%TF.GenerationSoftware,KiCad,Pcbnew,7.0.11+dfsg-1build4*%
%TF.CreationDate,2026-10-08T19:50:32+03:00*%
%TF.ProjectId,ledctl,6c656463-746c-42e6-9b69-6361645f7063,rev?*%
%TF.SameCoordinates,Original*%
%TF.FileFunction,Copper,L1,Top*%
%TF.FilePolarity,Positive*%
%FSLAX46Y46*%
G04 Gerber Fmt 4.6, Leading zero omitted, Abs format (unit mm)*
G04 Created by KiCad (PCBNEW 7.0.11+dfsg-1build4) date 2026-10-08 19:50:32*
%MOMM*%
%LPD*%
G01*
G04 APERTURE LIST*
G04 Aperture macros list*
%AMRoundRect*
0 Rectangle with rounded corners*
0 $1 Rounding radius*
0 $2 $3 $4 $5 $6 $7 $8 $9 X,Y pos of 4 corners*
0 Add a 4 corners polygon primitive as box body*
4,1,4,$2,$3,$4,$5,$6,$7,$8,$9,$2,$3,0*
0 Add four circle primitives for the rounded corners*
1,1,$1+$1,$2,$3*
1,1,$1+$1,$4,$5*
1,1,$1+$1,$6,$7*
1,1,$1+$1,$8,$9*
0 Add four rect primitives between the rounded corners*
20,1,$1+$1,$2,$3,$4,$5,0*
20,1,$1+$1,$4,$5,$6,$7,0*
20,1,$1+$1,$6,$7,$8,$9,0*
20,1,$1+$1,$8,$9,$2,$3,0*%
G04 Aperture macros list end*
%TA.AperFunction,SMDPad,CuDef*%
%ADD10RoundRect,0.250000X-1.000000X-0.650000X1.000000X-0.650000X1.000000X0.650000X-1.000000X0.650000X0*%
%TD*%
%TA.AperFunction,SMDPad,CuDef*%
%ADD11RoundRect,0.225000X-0.225000X-0.250000X0.225000X-0.250000X0.225000X0.250000X-0.225000X0.250000X0*%
%TD*%
%TA.AperFunction,SMDPad,CuDef*%
%ADD12R,0.900000X1.500000*%
%TD*%
%TA.AperFunction,HeatsinkPad*%
%ADD13C,0.600000*%
%TD*%
%TA.AperFunction,SMDPad,CuDef*%
%ADD14R,2.900000X2.900000*%
%TD*%
%TA.AperFunction,ComponentPad*%
%ADD15R,1.700000X1.700000*%
%TD*%
%TA.AperFunction,ComponentPad*%
%ADD16O,1.700000X1.700000*%
%TD*%
%TA.AperFunction,SMDPad,CuDef*%
%ADD17RoundRect,0.200000X-0.200000X-0.275000X0.200000X-0.275000X0.200000X0.275000X-0.200000X0.275000X0*%
%TD*%
%TA.AperFunction,ComponentPad*%
%ADD18R,2.600000X2.600000*%
%TD*%
%TA.AperFunction,ComponentPad*%
%ADD19C,2.600000*%
%TD*%
%TA.AperFunction,SMDPad,CuDef*%
%ADD20RoundRect,0.250000X0.650000X-0.325000X0.650000X0.325000X-0.650000X0.325000X-0.650000X-0.325000X0*%
%TD*%
%TA.AperFunction,SMDPad,CuDef*%
%ADD21RoundRect,0.150000X-0.512500X-0.150000X0.512500X-0.150000X0.512500X0.150000X-0.512500X0.150000X0*%
%TD*%
%TA.AperFunction,SMDPad,CuDef*%
%ADD22RoundRect,0.250000X-0.250000X-0.475000X0.250000X-0.475000X0.250000X0.475000X-0.250000X0.475000X0*%
%TD*%
%TA.AperFunction,SMDPad,CuDef*%
%ADD23R,1.000000X0.750000*%
%TD*%
%TA.AperFunction,SMDPad,CuDef*%
%ADD24RoundRect,0.225000X0.250000X-0.225000X0.250000X0.225000X-0.250000X0.225000X-0.250000X-0.225000X0*%
%TD*%
%TA.AperFunction,SMDPad,CuDef*%
%ADD25RoundRect,0.250000X0.475000X-0.250000X0.475000X0.250000X-0.475000X0.250000X-0.475000X-0.250000X0*%
%TD*%
%TA.AperFunction,SMDPad,CuDef*%
%ADD26RoundRect,0.218750X-0.218750X-0.256250X0.218750X-0.256250X0.218750X0.256250X-0.218750X0.256250X0*%
%TD*%
%TA.AperFunction,SMDPad,CuDef*%
%ADD27RoundRect,0.200000X0.275000X-0.200000X0.275000X0.200000X-0.275000X0.200000X-0.275000X-0.200000X0*%
%TD*%
%TA.AperFunction,SMDPad,CuDef*%
%ADD28RoundRect,0.150000X-0.587500X-0.150000X0.587500X-0.150000X0.587500X0.150000X-0.587500X0.150000X0*%
%TD*%
%TA.AperFunction,SMDPad,CuDef*%
%ADD29R,0.600000X1.450000*%
%TD*%
%TA.AperFunction,SMDPad,CuDef*%
%ADD30R,0.300000X1.450000*%
%TD*%
%TA.AperFunction,ComponentPad*%
%ADD31O,1.000000X2.100000*%
%TD*%
%TA.AperFunction,ComponentPad*%
%ADD32O,1.000000X1.600000*%
%TD*%
%TA.AperFunction,SMDPad,CuDef*%
%ADD33R,1.100000X3.700000*%
%TD*%
%TA.AperFunction,SMDPad,CuDef*%
%ADD34RoundRect,0.250000X-0.312500X-1.450000X0.312500X-1.450000X0.312500X1.450000X-0.312500X1.450000X0*%
%TD*%
%TA.AperFunction,ViaPad*%
%ADD35C,0.600000*%
%TD*%
%TA.AperFunction,Conductor*%
%ADD36C,0.500000*%
%TD*%
%TA.AperFunction,Conductor*%
%ADD37C,0.250000*%
%TD*%
%TA.AperFunction,Conductor*%
%ADD38C,1.500000*%
%TD*%
G04 APERTURE END LIST*
D10*
%TO.P,D2,1*%
%TO.N,VBUCK*%
X123000000Y-124000000D03*
%TO.P,D2,2*%
%TO.N,VBUS*%
X127000000Y-124000000D03*
%TD*%
D11*
%TO.P,C8,1*%
%TO.N,EN*%
X149725000Y-107600000D03*
%TO.P,C8,2*%
%TO.N,GND*%
X151275000Y-107600000D03*
%TD*%
D10*
%TO.P,D3,1*%
%TO.N,VIN*%
X113500000Y-107500000D03*
%TO.P,D3,2*%
%TO.N,GND*%
X117500000Y-107500000D03*
%TD*%
D12*
%TO.P,U2,1*%
%TO.N,+3V3*%
X162800000Y-111250000D03*
%TO.P,U2,2*%
%TO.N,EN*%
X161300000Y-111250000D03*
%TO.P,U2,3*%
%TO.N,LED_PWM*%
X159800000Y-111250000D03*
%TO.P,U2,4*%
%TO.N,unconnected-(U2-IO5-Pad4)*%
X158300000Y-111250000D03*
%TO.P,U2,5*%
%TO.N,unconnected-(U2-IO6-Pad5)*%
X156800000Y-111250000D03*
%TO.P,U2,6*%
%TO.N,unconnected-(U2-IO7-Pad6)*%
X155300000Y-111250000D03*
%TO.P,U2,7*%
%TO.N,IO8*%
X153800000Y-111250000D03*
%TO.P,U2,8*%
%TO.N,IO9_BOOT*%
X152300000Y-111250000D03*
%TO.P,U2,9*%
%TO.N,GND*%
X150800000Y-111250000D03*
%TO.P,U2,10*%
%TO.N,STAT*%
X150800000Y-128750000D03*
%TO.P,U2,11*%
%TO.N,RXD0*%
X152300000Y-128750000D03*
%TO.P,U2,12*%
%TO.N,TXD0*%
X153800000Y-128750000D03*
%TO.P,U2,13*%
%TO.N,USB_D-*%
X155300000Y-128750000D03*
%TO.P,U2,14*%
%TO.N,USB_D+*%
X156800000Y-128750000D03*
%TO.P,U2,15*%
%TO.N,unconnected-(U2-IO3-Pad15)*%
X158300000Y-128750000D03*
%TO.P,U2,16*%
%TO.N,IO2*%
X159800000Y-128750000D03*
%TO.P,U2,17*%
%TO.N,unconnected-(U2-IO1-Pad17)*%
X161300000Y-128750000D03*
%TO.P,U2,18*%
%TO.N,unconnected-(U2-IO0-Pad18)*%
X162800000Y-128750000D03*
D13*
%TO.P,U2,19*%
%TO.N,GND*%
X157150000Y-119860000D03*
X156050000Y-119860000D03*
X157700000Y-120410000D03*
X156600000Y-120410000D03*
X155500000Y-120410000D03*
X157150000Y-120960000D03*
D14*
X156600000Y-120960000D03*
D13*
X156050000Y-120960000D03*
X157700000Y-121510000D03*
X156600000Y-121510000D03*
X155500000Y-121510000D03*
X157150000Y-122060000D03*
X156050000Y-122060000D03*
%TD*%
D15*
%TO.P,J4,1*%
%TO.N,GND*%
X144000000Y-102500000D03*
D16*
%TO.P,J4,2*%
%TO.N,TXD0*%
X146540000Y-102500000D03*
%TO.P,J4,3*%
%TO.N,RXD0*%
X149080000Y-102500000D03*
%TO.P,J4,4*%
%TO.N,+3V3*%
X151620000Y-102500000D03*
%TD*%
D17*
%TO.P,R3,1*%
%TO.N,+3V3*%
X146675000Y-112500000D03*
%TO.P,R3,2*%
%TO.N,IO8*%
X148325000Y-112500000D03*
%TD*%
D18*
%TO.P,J2,1*%
%TO.N,VIN*%
X105000000Y-122000000D03*
D19*
%TO.P,J2,2*%
%TO.N,LED-*%
X105000000Y-127080000D03*
%TD*%
D20*
%TO.P,C1,1*%
%TO.N,VBUCK*%
X121000000Y-109475000D03*
%TO.P,C1,2*%
%TO.N,GND*%
X121000000Y-106525000D03*
%TD*%
D17*
%TO.P,R7,1*%
%TO.N,STAT*%
X148675000Y-132000000D03*
%TO.P,R7,2*%
%TO.N,STAT_A*%
X150325000Y-132000000D03*
%TD*%
D21*
%TO.P,U1,1*%
%TO.N,+3V3*%
X126362500Y-107050000D03*
%TO.P,U1,2*%
%TO.N,VBUCK*%
X126362500Y-108000000D03*
%TO.P,U1,3*%
X126362500Y-108950000D03*
%TO.P,U1,4*%
%TO.N,GND*%
X128637500Y-108950000D03*
%TO.P,U1,5*%
%TO.N,SW*%
X128637500Y-108000000D03*
%TO.P,U1,6*%
%TO.N,BST*%
X128637500Y-107050000D03*
%TD*%
D22*
%TO.P,C6,1*%
%TO.N,+3V3*%
X160050000Y-107600000D03*
%TO.P,C6,2*%
%TO.N,GND*%
X161950000Y-107600000D03*
%TD*%
D11*
%TO.P,C3,1*%
%TO.N,BST*%
X126725000Y-104500000D03*
%TO.P,C3,2*%
%TO.N,SW*%
X128275000Y-104500000D03*
%TD*%
D23*
%TO.P,SW1,1*%
%TO.N,EN*%
X112000000Y-131625000D03*
X118000000Y-131625000D03*
%TO.P,SW1,2*%
%TO.N,GND*%
X112000000Y-135375000D03*
X118000000Y-135375000D03*
%TD*%
D17*
%TO.P,R5,1*%
%TO.N,LED_PWM*%
X119175000Y-121500000D03*
%TO.P,R5,2*%
%TO.N,GATE*%
X120825000Y-121500000D03*
%TD*%
%TO.P,R6,1*%
%TO.N,GATE*%
X116675000Y-127000000D03*
%TO.P,R6,2*%
%TO.N,GND*%
X118325000Y-127000000D03*
%TD*%
%TO.P,R1,1*%
%TO.N,+3V3*%
X153175000Y-107600000D03*
%TO.P,R1,2*%
%TO.N,EN*%
X154825000Y-107600000D03*
%TD*%
D11*
%TO.P,C7,1*%
%TO.N,+3V3*%
X156725000Y-107600000D03*
%TO.P,C7,2*%
%TO.N,GND*%
X158275000Y-107600000D03*
%TD*%
D23*
%TO.P,SW2,1*%
%TO.N,IO9_BOOT*%
X139500000Y-131625000D03*
X145500000Y-131625000D03*
%TO.P,SW2,2*%
%TO.N,GND*%
X139500000Y-135375000D03*
X145500000Y-135375000D03*
%TD*%
D24*
%TO.P,C2,1*%
%TO.N,VBUCK*%
X123500000Y-108775000D03*
%TO.P,C2,2*%
%TO.N,GND*%
X123500000Y-107225000D03*
%TD*%
D10*
%TO.P,D1,1*%
%TO.N,VBUCK*%
X113500000Y-111500000D03*
%TO.P,D1,2*%
%TO.N,VIN*%
X117500000Y-111500000D03*
%TD*%
D25*
%TO.P,C4,1*%
%TO.N,+3V3*%
X137000000Y-108950000D03*
%TO.P,C4,2*%
%TO.N,GND*%
X137000000Y-107050000D03*
%TD*%
D26*
%TO.P,D4,1*%
%TO.N,GND*%
X148712500Y-134600000D03*
%TO.P,D4,2*%
%TO.N,STAT_A*%
X150287500Y-134600000D03*
%TD*%
D27*
%TO.P,R8,1*%
%TO.N,CC1*%
X122500000Y-131825000D03*
%TO.P,R8,2*%
%TO.N,GND*%
X122500000Y-130175000D03*
%TD*%
D28*
%TO.P,Q1,1*%
%TO.N,GATE*%
X112062500Y-123050000D03*
%TO.P,Q1,2*%
%TO.N,GND*%
X112062500Y-124950000D03*
%TO.P,Q1,3*%
%TO.N,LED-*%
X113937500Y-124000000D03*
%TD*%
D29*
%TO.P,J3,A1*%
%TO.N,GND*%
X126750000Y-130154999D03*
%TO.P,J3,A4*%
%TO.N,VBUS*%
X127550000Y-130154999D03*
D30*
%TO.P,J3,A5*%
%TO.N,CC1*%
X128750000Y-130154999D03*
%TO.P,J3,A6*%
%TO.N,USB_D+*%
X129750000Y-130154999D03*
%TO.P,J3,A7*%
%TO.N,USB_D-*%
X130250000Y-130154999D03*
%TO.P,J3,A8*%
%TO.N,unconnected-(J3-SBU1-PadA8)*%
X131250000Y-130154999D03*
D29*
%TO.P,J3,A9*%
%TO.N,VBUS*%
X132450000Y-130154999D03*
%TO.P,J3,A12*%
%TO.N,GND*%
X133250000Y-130154999D03*
%TO.P,J3,B1*%
X133250000Y-130154999D03*
%TO.P,J3,B4*%
%TO.N,VBUS*%
X132450000Y-130154999D03*
D30*
%TO.P,J3,B5*%
%TO.N,CC2*%
X131750000Y-130154999D03*
%TO.P,J3,B6*%
%TO.N,USB_D+*%
X130750000Y-130154999D03*
%TO.P,J3,B7*%
%TO.N,USB_D-*%
X129250000Y-130154999D03*
%TO.P,J3,B8*%
%TO.N,unconnected-(J3-SBU2-PadB8)*%
X128250000Y-130154999D03*
D29*
%TO.P,J3,B9*%
%TO.N,VBUS*%
X127550000Y-130154999D03*
%TO.P,J3,B12*%
%TO.N,GND*%
X126750000Y-130154999D03*
D31*
%TO.P,J3,S1*%
X125680000Y-131069999D03*
D32*
X125680000Y-135249999D03*
D31*
X134320000Y-131069999D03*
D32*
X134320000Y-135249999D03*
%TD*%
D17*
%TO.P,R4,1*%
%TO.N,+3V3*%
X152675000Y-132000000D03*
%TO.P,R4,2*%
%TO.N,IO2*%
X154325000Y-132000000D03*
%TD*%
D27*
%TO.P,R9,1*%
%TO.N,CC2*%
X137000000Y-131825000D03*
%TO.P,R9,2*%
%TO.N,GND*%
X137000000Y-130175000D03*
%TD*%
D33*
%TO.P,L1,1*%
%TO.N,SW*%
X131000000Y-108000000D03*
%TO.P,L1,2*%
%TO.N,+3V3*%
X134000000Y-108000000D03*
%TD*%
D18*
%TO.P,J1,1*%
%TO.N,VIN_RAW*%
X105000000Y-104500000D03*
D19*
%TO.P,J1,2*%
%TO.N,GND*%
X105000000Y-109580000D03*
%TD*%
D17*
%TO.P,R2,1*%
%TO.N,+3V3*%
X146675000Y-110000000D03*
%TO.P,R2,2*%
%TO.N,IO9_BOOT*%
X148325000Y-110000000D03*
%TD*%
D25*
%TO.P,C5,1*%
%TO.N,+3V3*%
X139500000Y-108950000D03*
%TO.P,C5,2*%
%TO.N,GND*%
X139500000Y-107050000D03*
%TD*%
D34*
%TO.P,F1,1*%
%TO.N,VIN_RAW*%
X113362500Y-103500000D03*
%TO.P,F1,2*%
%TO.N,VIN*%
X117637500Y-103500000D03*
%TD*%
D35*
%TO.N,GND*%
X134000000Y-122000000D03*
X110000000Y-114000000D03*
X126000000Y-114000000D03*
X138000000Y-126000000D03*
X110000000Y-118000000D03*
X130000000Y-118000000D03*
X142000000Y-118000000D03*
X158758400Y-108602200D03*
X142000000Y-126000000D03*
X114000000Y-130000000D03*
X122000000Y-118000000D03*
X142000000Y-122000000D03*
X122000000Y-134000000D03*
X102000000Y-118000000D03*
X134000000Y-126000000D03*
X142000000Y-106000000D03*
X134000000Y-114000000D03*
X142000000Y-130000000D03*
X138000000Y-102000000D03*
X146000000Y-126000000D03*
X130000000Y-126000000D03*
X134000000Y-102000000D03*
X118000000Y-122000000D03*
X118000000Y-130000000D03*
X122000000Y-102000000D03*
X142000000Y-114000000D03*
X138000000Y-118000000D03*
X110000000Y-134000000D03*
X130000000Y-102000000D03*
X138000000Y-122000000D03*
X126000000Y-102000000D03*
X130000000Y-114000000D03*
X126000000Y-118000000D03*
X122000000Y-114000000D03*
X106000000Y-114000000D03*
X154000000Y-102000000D03*
%TO.N,+3V3*%
X152350900Y-130897699D03*
X149319200Y-113020600D03*
%TO.N,EN*%
X144242900Y-108273500D03*
X120891399Y-131625000D03*
%TO.N,USB_D-*%
X129250000Y-131780600D03*
X130757000Y-131459900D03*
%TO.N,TXD0*%
X151077700Y-125995899D03*
%TO.N,RXD0*%
X151552800Y-127491700D03*
%TO.N,LED_PWM*%
X158642700Y-113296000D03*
X153875500Y-120864500D03*
%TD*%
D36*
%TO.N,VBUCK*%
X126362500Y-108775000D02*
X126362500Y-108000000D01*
X121000000Y-109475000D02*
X121000000Y-109967000D01*
X126362500Y-108950000D02*
X126362500Y-108775000D01*
X115033000Y-109967000D02*
X113500000Y-111500000D01*
X121700000Y-108775000D02*
X121000000Y-109475000D01*
X123000000Y-111967000D02*
X121000000Y-109967000D01*
X123000000Y-124000000D02*
X123000000Y-111967000D01*
X121000000Y-109967000D02*
X115033000Y-109967000D01*
X123500000Y-108775000D02*
X121700000Y-108775000D01*
X126362500Y-108775000D02*
X123500000Y-108775000D01*
%TO.N,GND*%
X144000000Y-102500000D02*
X144000000Y-103640800D01*
X134320000Y-131070000D02*
X134320000Y-130309100D01*
X144000000Y-103640800D02*
X144000000Y-103820200D01*
X144000000Y-103820200D02*
X145764600Y-105584800D01*
X134320000Y-135885800D02*
X125680000Y-135885800D01*
X158439100Y-107435899D02*
X159482399Y-106392600D01*
X148712500Y-134600000D02*
X147246700Y-134600000D01*
X150800000Y-112471700D02*
X150800000Y-114225500D01*
X155500000Y-121510000D02*
X156050000Y-122060000D01*
X158439100Y-107435899D02*
X152169000Y-101165900D01*
X103192399Y-126298400D02*
X104540800Y-124950000D01*
X120025000Y-107500000D02*
X121000000Y-106525000D01*
X158275000Y-108118800D02*
X158758400Y-108602200D01*
X144000000Y-103820200D02*
X144000000Y-103821700D01*
X145985900Y-135375000D02*
X145500000Y-135375000D01*
X125976800Y-102723500D02*
X123500000Y-105200300D01*
X152169000Y-101165900D02*
X145334100Y-101165900D01*
X123500000Y-106525000D02*
X121000000Y-106525000D01*
X128637499Y-108950000D02*
X133913000Y-114225500D01*
X150800000Y-114610000D02*
X156050000Y-119860000D01*
X132673499Y-102723500D02*
X125976800Y-102723500D01*
X134320000Y-135567899D02*
X134320000Y-135885800D01*
X145538799Y-121636200D02*
X155373800Y-121636200D01*
X145500000Y-135375000D02*
X139500000Y-135375000D01*
X136865899Y-130309100D02*
X137000000Y-130175000D01*
X134320000Y-135567899D02*
X138335400Y-135567899D01*
X150800000Y-111250000D02*
X150800000Y-112471700D01*
X159482399Y-106392600D02*
X160742600Y-106392600D01*
X112000000Y-135375000D02*
X110701200Y-135375000D01*
X118325000Y-127000000D02*
X119325000Y-127000000D01*
X119208199Y-135611500D02*
X118971700Y-135375000D01*
X122634100Y-130309100D02*
X125680000Y-130309100D01*
X125680000Y-135611500D02*
X119208199Y-135611500D01*
X125680000Y-131070000D02*
X125680000Y-130309100D01*
X123500000Y-106525000D02*
X123500000Y-107225000D01*
X110701200Y-135375000D02*
X103192399Y-127866199D01*
X123500000Y-105200300D02*
X123500000Y-106525000D01*
X156600000Y-120960000D02*
X157150000Y-120960000D01*
X125680000Y-135250000D02*
X125680000Y-135611500D01*
X138335400Y-135567899D02*
X138528300Y-135375000D01*
X134320000Y-130309100D02*
X133404100Y-130309100D01*
X118000000Y-135375000D02*
X118971700Y-135375000D01*
X156600000Y-120960000D02*
X156600000Y-121510000D01*
X145764600Y-105584800D02*
X149259799Y-105584800D01*
X104540800Y-124950000D02*
X112062500Y-124950000D01*
X117500000Y-107500000D02*
X120025000Y-107500000D01*
X114266900Y-109580000D02*
X116346899Y-107500000D01*
X119325000Y-127000000D02*
X122500000Y-130175000D01*
X156050000Y-120960000D02*
X156600000Y-120960000D01*
X134320000Y-135250000D02*
X134320000Y-135567899D01*
X122500000Y-130175000D02*
X122634100Y-130309100D01*
X116346899Y-107500000D02*
X117500000Y-107500000D01*
X126595900Y-130309100D02*
X126750000Y-130155000D01*
X137000000Y-130175000D02*
X145538799Y-121636200D01*
X103192399Y-127866199D02*
X103192399Y-126298400D01*
X133404100Y-130309100D02*
X133250000Y-130155000D01*
X147246700Y-134600000D02*
X146471700Y-135375000D01*
X160742600Y-106392600D02*
X161950000Y-107600000D01*
X118000000Y-135375000D02*
X112000000Y-135375000D01*
X125680000Y-130309100D02*
X126595900Y-130309100D01*
X139500000Y-135375000D02*
X138528300Y-135375000D01*
X133913000Y-114225500D02*
X150800000Y-114225500D01*
X142728300Y-103821700D02*
X139500000Y-107050000D01*
X134320000Y-130309100D02*
X136865899Y-130309100D01*
X137000000Y-107050000D02*
X132673499Y-102723500D01*
X139500000Y-107050000D02*
X137000000Y-107050000D01*
X155373800Y-121636200D02*
X155500000Y-121510000D01*
X125680000Y-135611500D02*
X125680000Y-135885800D01*
X105000000Y-109580000D02*
X114266900Y-109580000D01*
X158275000Y-107600000D02*
X158439100Y-107435899D01*
X150800000Y-114225500D02*
X150800000Y-114610000D01*
X149259799Y-105584800D02*
X151275000Y-107600000D01*
X145985900Y-135375000D02*
X146471700Y-135375000D01*
X158275000Y-107600000D02*
X158275000Y-108118800D01*
X145334100Y-101165900D02*
X144000000Y-102500000D01*
X144000000Y-103821700D02*
X142728300Y-103821700D01*
D37*
%TO.N,BST*%
X128637499Y-107050000D02*
X126725000Y-105137500D01*
X126725000Y-105137500D02*
X126725000Y-104500000D01*
D36*
%TO.N,SW*%
X129779600Y-107528399D02*
X129308000Y-108000000D01*
X129308000Y-108000000D02*
X128637499Y-108000000D01*
X129580999Y-105806000D02*
X128275000Y-104500000D01*
X129779600Y-105806000D02*
X129779600Y-107528399D01*
X129779600Y-105806000D02*
X129580999Y-105806000D01*
X131000000Y-105678300D02*
X129907299Y-105678300D01*
X131000000Y-108000000D02*
X131000000Y-105678300D01*
X129907299Y-105678300D02*
X129779600Y-105806000D01*
%TO.N,+3V3*%
X151620000Y-103821700D02*
X153175000Y-105376700D01*
X147678800Y-113503800D02*
X148836000Y-113503800D01*
X162478300Y-110028300D02*
X162800000Y-110028300D01*
X134000000Y-108000000D02*
X134000000Y-105678300D01*
X160462600Y-108012500D02*
X162478300Y-110028300D01*
X152350900Y-130897699D02*
X152675000Y-131221800D01*
X153175000Y-105376700D02*
X153175000Y-106652500D01*
X156725000Y-107600000D02*
X155777500Y-106652500D01*
X134000000Y-105678300D02*
X131820500Y-103498800D01*
X126264699Y-103498800D02*
X125787900Y-103975600D01*
X131820500Y-103498800D02*
X126264699Y-103498800D01*
X134000000Y-108190000D02*
X134000000Y-110228600D01*
X140550000Y-110000000D02*
X146675000Y-110000000D01*
X146675000Y-112500000D02*
X147678800Y-113503800D01*
X158391900Y-109376200D02*
X156725000Y-107709300D01*
X151620000Y-102500000D02*
X151620000Y-103821700D01*
X139500000Y-108950000D02*
X140550000Y-110000000D01*
X155777500Y-106652500D02*
X153175000Y-106652500D01*
X153175000Y-106652500D02*
X153175000Y-107600000D01*
X160050000Y-107600000D02*
X160462600Y-108012500D01*
X159098900Y-109376200D02*
X158391900Y-109376200D01*
X146675000Y-110000000D02*
X146675000Y-112500000D01*
X125787900Y-103975600D02*
X125787900Y-106475400D01*
X152675000Y-131221800D02*
X152675000Y-132000000D01*
X125787900Y-106475400D02*
X126362500Y-107050000D01*
X162800000Y-111250000D02*
X162800000Y-110028300D01*
X137000000Y-108950000D02*
X135721400Y-110228600D01*
X156725000Y-107709300D02*
X156725000Y-107600000D01*
X139500000Y-108950000D02*
X137000000Y-108950000D01*
X160462600Y-108012500D02*
X159098900Y-109376200D01*
X135721400Y-110228600D02*
X134000000Y-110228600D01*
X134000000Y-108190000D02*
X134000000Y-108000000D01*
X148836000Y-113503800D02*
X149319200Y-113020600D01*
D37*
%TO.N,EN*%
X150554700Y-108429700D02*
X153995300Y-108429700D01*
X112000000Y-131625000D02*
X118000000Y-131625000D01*
X161300000Y-111250000D02*
X161300000Y-110173300D01*
X149725000Y-107600000D02*
X149051500Y-108273500D01*
X118000000Y-131625000D02*
X120891399Y-131625000D01*
X157398299Y-110173300D02*
X161300000Y-110173300D01*
X149725000Y-107600000D02*
X150554700Y-108429700D01*
X153995300Y-108429700D02*
X154825000Y-107600000D01*
X154825000Y-107600000D02*
X157398299Y-110173300D01*
X149051500Y-108273500D02*
X144242900Y-108273500D01*
D38*
%TO.N,VIN*%
X109277700Y-119737800D02*
X102667400Y-113127500D01*
X113265400Y-107265400D02*
X113500000Y-107500000D01*
X115606800Y-119737800D02*
X117500000Y-117844600D01*
X109277700Y-119737800D02*
X115606800Y-119737800D01*
X102667400Y-113127500D02*
X102667400Y-108645200D01*
X113637500Y-107500000D02*
X113500000Y-107500000D01*
X109277700Y-120024000D02*
X109277700Y-119737800D01*
X104047200Y-107265400D02*
X113265400Y-107265400D01*
X117500000Y-117844600D02*
X117500000Y-111500000D01*
X102667400Y-108645200D02*
X104047200Y-107265400D01*
X107301700Y-122000000D02*
X109277700Y-120024000D01*
X105000000Y-122000000D02*
X107301700Y-122000000D01*
X117637500Y-103500000D02*
X113637500Y-107500000D01*
D36*
%TO.N,VBUS*%
X127550000Y-130155000D02*
X127550000Y-128958300D01*
X127000000Y-124000000D02*
X128090100Y-125090100D01*
X128090100Y-125090100D02*
X128090100Y-128418199D01*
X132449999Y-130155000D02*
X132449999Y-128958300D01*
X127550000Y-128958300D02*
X128090100Y-128418199D01*
X128090100Y-128418199D02*
X131909900Y-128418199D01*
X131909900Y-128418199D02*
X132449999Y-128958300D01*
D37*
%TO.N,STAT_A*%
X150325000Y-134562500D02*
X150325000Y-132000000D01*
X150287500Y-134600000D02*
X150325000Y-134562500D01*
D38*
%TO.N,VIN_RAW*%
X113362500Y-103500000D02*
X108301700Y-103500000D01*
X105000000Y-104500000D02*
X107301700Y-104500000D01*
X108301700Y-103500000D02*
X107301700Y-104500000D01*
%TO.N,LED-*%
X112321199Y-127080000D02*
X105000000Y-127080000D01*
X113937500Y-124000000D02*
X113937500Y-125463700D01*
X113937500Y-125463700D02*
X112321199Y-127080000D01*
D37*
%TO.N,CC1*%
X128750000Y-130155000D02*
X128750000Y-131243500D01*
X128750000Y-131243500D02*
X127438500Y-132555000D01*
X123230000Y-132555000D02*
X122500000Y-131824999D01*
X127438500Y-132555000D02*
X123230000Y-132555000D01*
%TO.N,USB_D+*%
X155243700Y-129826699D02*
X156800000Y-129826699D01*
X150676100Y-135475100D02*
X153514100Y-132637100D01*
X153514100Y-132637100D02*
X153514100Y-131556300D01*
X149510000Y-135136600D02*
X149848500Y-135475100D01*
X132018700Y-133640999D02*
X149132799Y-133640999D01*
X129750000Y-130155000D02*
X129750000Y-131372300D01*
X130750000Y-129103299D02*
X129750000Y-129103299D01*
X129750000Y-130155000D02*
X129750000Y-129103299D01*
X153514100Y-131556300D02*
X155243700Y-129826699D01*
X149848500Y-135475100D02*
X150676100Y-135475100D01*
X156800000Y-128750000D02*
X156800000Y-129826699D01*
X149510000Y-134018200D02*
X149510000Y-135136600D01*
X149132799Y-133640999D02*
X149510000Y-134018200D01*
X130750000Y-130155000D02*
X130750000Y-129103299D01*
X129750000Y-131372300D02*
X132018700Y-133640999D01*
%TO.N,USB_D-*%
X130250000Y-131206700D02*
X130503199Y-131459900D01*
X149500000Y-131586999D02*
X151207400Y-129879600D01*
X148973900Y-132980899D02*
X149500000Y-132454799D01*
X154359200Y-129879600D02*
X155300000Y-128938800D01*
X130503199Y-131459900D02*
X130757000Y-131459900D01*
X132277999Y-132980899D02*
X148973900Y-132980899D01*
X130250000Y-130155000D02*
X130250000Y-131206700D01*
X130757000Y-131459900D02*
X132277999Y-132980899D01*
X149500000Y-132454799D02*
X149500000Y-131586999D01*
X155300000Y-128938800D02*
X155300000Y-128750000D01*
X129250000Y-130155000D02*
X129250000Y-131780600D01*
X151207400Y-129879600D02*
X154359200Y-129879600D01*
%TO.N,CC2*%
X132515400Y-132514899D02*
X131750000Y-131749500D01*
X131750000Y-131749500D02*
X131750000Y-130155000D01*
X137000000Y-131824999D02*
X136310100Y-132514899D01*
X136310100Y-132514899D02*
X132515400Y-132514899D01*
%TO.N,TXD0*%
X153800000Y-128750000D02*
X153800000Y-127673300D01*
X151077700Y-125995899D02*
X152122600Y-125995899D01*
X152122600Y-125995899D02*
X153800000Y-127673300D01*
%TO.N,RXD0*%
X152300000Y-127673300D02*
X151734400Y-127673300D01*
X151734400Y-127673300D02*
X151552800Y-127491700D01*
X152300000Y-128750000D02*
X152300000Y-127673300D01*
%TO.N,GATE*%
X112062500Y-123050000D02*
X112291900Y-122820600D01*
X116675000Y-125067200D02*
X116675000Y-127000000D01*
X116675000Y-125067200D02*
X117257800Y-125067200D01*
X112291900Y-122820600D02*
X114428400Y-122820600D01*
X117257800Y-125067200D02*
X120825000Y-121500000D01*
X114428400Y-122820600D02*
X116675000Y-125067200D01*
%TO.N,IO9_BOOT*%
X150818200Y-125369199D02*
X145500000Y-130687400D01*
X139500000Y-131625000D02*
X140326700Y-131625000D01*
X152126700Y-110000000D02*
X148325000Y-110000000D01*
X152300000Y-112326700D02*
X158396700Y-118423400D01*
X140677600Y-131274100D02*
X145500000Y-131274100D01*
X158396700Y-122554100D02*
X155581600Y-125369199D01*
X152300000Y-111250000D02*
X152300000Y-110173300D01*
X145500000Y-131625000D02*
X145500000Y-131274100D01*
X158396700Y-118423400D02*
X158396700Y-122554100D01*
X155581600Y-125369199D02*
X150818200Y-125369199D01*
X152300000Y-111685000D02*
X152300000Y-111250000D01*
X145500000Y-130687400D02*
X145500000Y-131274100D01*
X152300000Y-111685000D02*
X152300000Y-112326700D01*
X140326700Y-131625000D02*
X140677600Y-131274100D01*
X152300000Y-110173300D02*
X152126700Y-110000000D01*
%TO.N,IO8*%
X152824200Y-109197500D02*
X153800000Y-110173300D01*
X147898600Y-109197500D02*
X152824200Y-109197500D01*
X147510000Y-109586100D02*
X147898600Y-109197500D01*
X147510000Y-111685000D02*
X147510000Y-109586100D01*
X153800000Y-111250000D02*
X153800000Y-110173300D01*
X148325000Y-112500000D02*
X147510000Y-111685000D01*
%TO.N,IO2*%
X154325000Y-132000000D02*
X157626700Y-132000000D01*
X157626700Y-132000000D02*
X159800000Y-129826699D01*
X159800000Y-128750000D02*
X159800000Y-129826699D01*
%TO.N,LED_PWM*%
X125000000Y-124559900D02*
X125000000Y-123431100D01*
X121752800Y-125251100D02*
X124308800Y-125251100D01*
X121587300Y-121017800D02*
X121587300Y-122117600D01*
X121587300Y-122117600D02*
X121387600Y-122317300D01*
X121387600Y-124885899D02*
X121752800Y-125251100D01*
X121231000Y-120661500D02*
X121587300Y-121017800D01*
X125000000Y-123431100D02*
X127566600Y-120864500D01*
X127566600Y-120864500D02*
X153875500Y-120864500D01*
X159800000Y-111250000D02*
X159800000Y-112326700D01*
X158642700Y-113296000D02*
X159612000Y-112326700D01*
X159612000Y-112326700D02*
X159800000Y-112326700D01*
X121387600Y-122317300D02*
X121387600Y-124885899D01*
X120013500Y-120661500D02*
X121231000Y-120661500D01*
X119175000Y-121500000D02*
X120013500Y-120661500D01*
X124308800Y-125251100D02*
X125000000Y-124559900D01*
%TO.N,STAT*%
X148675000Y-132000000D02*
X148675000Y-130875000D01*
X148675000Y-130875000D02*
X150800000Y-128750000D01*
%TD*%
%TA.AperFunction,Conductor*%
%TO.N,GND*%
G36*
X162004418Y-100250816D02*
G01*
X162240140Y-100267674D01*
X162257641Y-100270191D01*
X162484229Y-100319482D01*
X162501188Y-100324461D01*
X162638672Y-100375740D01*
X162718462Y-100405501D01*
X162734555Y-100412851D01*
X162938068Y-100523977D01*
X162952951Y-100533542D01*
X163138579Y-100672501D01*
X163151950Y-100684087D01*
X163315912Y-100848049D01*
X163327498Y-100861420D01*
X163466457Y-101047048D01*
X163476022Y-101061931D01*
X163587148Y-101265444D01*
X163594498Y-101281537D01*
X163675535Y-101498803D01*
X163680519Y-101515779D01*
X163729807Y-101742352D01*
X163732325Y-101759864D01*
X163749184Y-101995581D01*
X163749500Y-102004427D01*
X163749500Y-110299479D01*
X163729815Y-110366518D01*
X163677011Y-110412273D01*
X163607853Y-110422217D01*
X163544297Y-110393192D01*
X163512066Y-110349566D01*
X163502206Y-110327235D01*
X163422765Y-110247794D01*
X163422764Y-110247793D01*
X163422763Y-110247792D01*
X163413287Y-110241301D01*
X163414231Y-110239922D01*
X163371034Y-110203430D01*
X163350510Y-110136642D01*
X163350500Y-110135087D01*
X163350500Y-110051354D01*
X163350789Y-110042892D01*
X163354381Y-109990379D01*
X163351750Y-109977719D01*
X163343668Y-109938831D01*
X163342234Y-109930507D01*
X163337335Y-109894864D01*
X163335070Y-109878380D01*
X163332551Y-109872581D01*
X163324879Y-109848409D01*
X163323592Y-109842215D01*
X163299373Y-109795475D01*
X163295753Y-109787865D01*
X163274780Y-109739580D01*
X163273013Y-109737409D01*
X163270787Y-109734671D01*
X163256884Y-109713474D01*
X163255602Y-109711001D01*
X163253971Y-109707853D01*
X163253968Y-109707850D01*
X163253967Y-109707848D01*
X163218052Y-109669393D01*
X163212487Y-109663011D01*
X163179277Y-109622191D01*
X163179276Y-109622190D01*
X163174111Y-109618544D01*
X163154997Y-109601879D01*
X163150680Y-109597256D01*
X163150679Y-109597255D01*
X163150677Y-109597253D01*
X163105714Y-109569911D01*
X163098655Y-109565281D01*
X163055647Y-109534923D01*
X163055644Y-109534922D01*
X163055643Y-109534921D01*
X163055644Y-109534921D01*
X163049683Y-109532803D01*
X163026782Y-109521912D01*
X163021382Y-109518628D01*
X163021379Y-109518627D01*
X163021380Y-109518627D01*
X162970727Y-109504434D01*
X162962661Y-109501874D01*
X162913060Y-109484246D01*
X162913048Y-109484244D01*
X162906731Y-109483812D01*
X162881755Y-109479506D01*
X162875666Y-109477800D01*
X162875665Y-109477800D01*
X162823055Y-109477800D01*
X162814593Y-109477511D01*
X162753617Y-109473340D01*
X162753712Y-109471941D01*
X162694300Y-109458819D01*
X162666390Y-109437855D01*
X162065244Y-108836679D01*
X162031760Y-108775355D01*
X162036746Y-108705664D01*
X162078619Y-108649731D01*
X162144084Y-108625316D01*
X162152927Y-108625000D01*
X162243054Y-108625000D01*
X162331443Y-108614386D01*
X162472095Y-108558920D01*
X162592564Y-108467564D01*
X162683920Y-108347095D01*
X162739386Y-108206443D01*
X162750000Y-108118053D01*
X162750000Y-107850000D01*
X161129977Y-107850000D01*
X161062938Y-107830315D01*
X161042299Y-107813684D01*
X160911477Y-107682855D01*
X160911353Y-107682713D01*
X160886828Y-107658193D01*
X160853336Y-107596873D01*
X160850500Y-107570503D01*
X160850500Y-107350000D01*
X161150000Y-107350000D01*
X161700000Y-107350000D01*
X161700000Y-106575000D01*
X162200000Y-106575000D01*
X162200000Y-107350000D01*
X162750000Y-107350000D01*
X162750000Y-107081946D01*
X162739386Y-106993556D01*
X162683920Y-106852904D01*
X162592564Y-106732435D01*
X162472095Y-106641079D01*
X162331443Y-106585613D01*
X162243054Y-106575000D01*
X162200000Y-106575000D01*
X161700000Y-106575000D01*
X161656946Y-106575000D01*
X161568556Y-106585613D01*
X161427904Y-106641079D01*
X161307435Y-106732435D01*
X161216079Y-106852904D01*
X161160613Y-106993556D01*
X161150000Y-107081946D01*
X161150000Y-107350000D01*
X160850500Y-107350000D01*
X160850500Y-107081903D01*
X160850500Y-107081898D01*
X160839877Y-106993436D01*
X160784361Y-106852658D01*
X160784360Y-106852657D01*
X160784360Y-106852656D01*
X160692922Y-106732077D01*
X160572343Y-106640639D01*
X160476192Y-106602722D01*
X160431564Y-106585123D01*
X160431563Y-106585122D01*
X160431561Y-106585122D01*
X160385926Y-106579642D01*
X160343102Y-106574500D01*
X159756898Y-106574500D01*
X159717853Y-106579188D01*
X159668438Y-106585122D01*
X159527656Y-106640639D01*
X159407077Y-106732077D01*
X159315639Y-106852656D01*
X159260122Y-106993438D01*
X159254188Y-107042853D01*
X159249500Y-107081898D01*
X159249500Y-107081903D01*
X159249500Y-107167064D01*
X159229815Y-107234103D01*
X159177011Y-107279858D01*
X159107853Y-107289802D01*
X159044297Y-107260777D01*
X159010146Y-107212554D01*
X158961925Y-107090276D01*
X158961922Y-107090270D01*
X158874721Y-106975278D01*
X158759729Y-106888077D01*
X158625467Y-106835131D01*
X158541102Y-106825000D01*
X158525000Y-106825000D01*
X158525000Y-107726000D01*
X158505315Y-107793039D01*
X158452511Y-107838794D01*
X158401000Y-107850000D01*
X158149000Y-107850000D01*
X158081961Y-107830315D01*
X158036206Y-107777511D01*
X158025000Y-107726000D01*
X158025000Y-106825000D01*
X158008898Y-106825000D01*
X157924532Y-106835131D01*
X157924531Y-106835131D01*
X157790270Y-106888077D01*
X157675280Y-106975277D01*
X157599118Y-107075712D01*
X157542925Y-107117235D01*
X157473204Y-107121786D01*
X157412090Y-107087921D01*
X157401511Y-107075712D01*
X157325078Y-106974922D01*
X157209976Y-106887636D01*
X157075588Y-106834640D01*
X157030315Y-106829204D01*
X156991144Y-106824500D01*
X156991138Y-106824500D01*
X156779386Y-106824500D01*
X156712347Y-106804815D01*
X156691705Y-106788181D01*
X156441601Y-106538077D01*
X156174906Y-106271381D01*
X156171964Y-106268337D01*
X156152387Y-106247375D01*
X156128180Y-106221456D01*
X156128179Y-106221455D01*
X156093075Y-106200108D01*
X156082579Y-106192964D01*
X156049841Y-106168138D01*
X156049842Y-106168138D01*
X156033142Y-106161552D01*
X156014216Y-106152152D01*
X155998880Y-106142827D01*
X155959316Y-106131741D01*
X155947286Y-106127696D01*
X155909064Y-106112624D01*
X155909056Y-106112622D01*
X155891216Y-106110788D01*
X155870451Y-106106842D01*
X155853169Y-106102000D01*
X155853165Y-106102000D01*
X155812082Y-106102000D01*
X155799402Y-106101350D01*
X155758529Y-106097148D01*
X155758524Y-106097148D01*
X155740844Y-106100197D01*
X155719776Y-106102000D01*
X153849500Y-106102000D01*
X153782461Y-106082315D01*
X153736706Y-106029511D01*
X153725500Y-105978000D01*
X153725500Y-105388221D01*
X153725572Y-105383989D01*
X153725929Y-105373533D01*
X153727762Y-105319874D01*
X153718035Y-105279960D01*
X153715664Y-105267484D01*
X153712884Y-105247256D01*
X153710070Y-105226780D01*
X153703808Y-105212364D01*
X153702921Y-105210322D01*
X153696180Y-105190278D01*
X153691933Y-105172848D01*
X153671795Y-105137032D01*
X153666148Y-105125663D01*
X153666094Y-105125538D01*
X153649780Y-105087980D01*
X153638454Y-105074059D01*
X153626556Y-105056577D01*
X153617765Y-105040941D01*
X153588710Y-105011885D01*
X153580214Y-105002470D01*
X153554278Y-104970592D01*
X153539613Y-104960240D01*
X153523441Y-104946617D01*
X152230957Y-103654132D01*
X152197472Y-103592809D01*
X152202456Y-103523117D01*
X152244328Y-103467184D01*
X152253360Y-103461024D01*
X152316302Y-103422052D01*
X152473872Y-103278407D01*
X152602366Y-103108255D01*
X152613899Y-103085093D01*
X152622528Y-103067763D01*
X157145787Y-103067763D01*
X157175413Y-103337013D01*
X157175415Y-103337024D01*
X157243926Y-103599082D01*
X157243928Y-103599088D01*
X157349870Y-103848390D01*
X157484498Y-104068985D01*
X157490979Y-104079605D01*
X157490986Y-104079615D01*
X157664253Y-104287819D01*
X157664259Y-104287824D01*
X157865998Y-104468582D01*
X158091910Y-104618044D01*
X158337176Y-104733020D01*
X158337183Y-104733022D01*
X158337185Y-104733023D01*
X158596557Y-104811057D01*
X158596564Y-104811058D01*
X158596569Y-104811060D01*
X158864561Y-104850500D01*
X158864566Y-104850500D01*
X159067629Y-104850500D01*
X159067631Y-104850500D01*
X159067636Y-104850499D01*
X159067648Y-104850499D01*
X159105191Y-104847750D01*
X159270156Y-104835677D01*
X159382758Y-104810593D01*
X159534546Y-104776782D01*
X159534548Y-104776781D01*
X159534553Y-104776780D01*
X159787558Y-104680014D01*
X160023777Y-104547441D01*
X160238177Y-104381888D01*
X160426186Y-104186881D01*
X160583799Y-103966579D01*
X160666457Y-103805808D01*
X160707649Y-103725690D01*
X160707651Y-103725684D01*
X160707656Y-103725675D01*
X160795118Y-103469305D01*
X160844319Y-103202933D01*
X160854212Y-102932235D01*
X160824586Y-102662982D01*
X160756072Y-102400912D01*
X160650130Y-102151610D01*
X160509018Y-101920390D01*
X160507392Y-101918436D01*
X160335746Y-101712180D01*
X160335740Y-101712175D01*
X160134002Y-101531418D01*
X159908092Y-101381957D01*
X159846125Y-101352908D01*
X159662824Y-101266980D01*
X159662819Y-101266978D01*
X159662814Y-101266976D01*
X159403442Y-101188942D01*
X159403428Y-101188939D01*
X159287791Y-101171921D01*
X159135439Y-101149500D01*
X158932369Y-101149500D01*
X158932351Y-101149500D01*
X158729844Y-101164323D01*
X158729831Y-101164325D01*
X158465453Y-101223217D01*
X158465446Y-101223220D01*
X158212439Y-101319987D01*
X157976226Y-101452557D01*
X157976224Y-101452558D01*
X157976223Y-101452559D01*
X157959202Y-101465702D01*
X157761822Y-101618112D01*
X157573822Y-101813109D01*
X157573816Y-101813116D01*
X157416202Y-102033419D01*
X157416199Y-102033424D01*
X157292350Y-102274309D01*
X157292343Y-102274327D01*
X157204884Y-102530685D01*
X157204881Y-102530699D01*
X157155681Y-102797068D01*
X157155680Y-102797075D01*
X157145787Y-103067763D01*
X152622528Y-103067763D01*
X152697403Y-102917394D01*
X152697403Y-102917393D01*
X152697405Y-102917389D01*
X152755756Y-102712310D01*
X152775429Y-102500000D01*
X152755756Y-102287690D01*
X152697405Y-102082611D01*
X152697403Y-102082606D01*
X152697403Y-102082605D01*
X152602367Y-101891746D01*
X152473872Y-101721593D01*
X152316302Y-101577948D01*
X152135019Y-101465702D01*
X152135017Y-101465701D01*
X152035608Y-101427190D01*
X151936198Y-101388679D01*
X151726610Y-101349500D01*
X151513390Y-101349500D01*
X151303802Y-101388679D01*
X151303799Y-101388679D01*
X151303799Y-101388680D01*
X151104982Y-101465701D01*
X151104980Y-101465702D01*
X150923699Y-101577947D01*
X150766127Y-101721593D01*
X150637632Y-101891746D01*
X150542596Y-102082605D01*
X150542596Y-102082607D01*
X150484244Y-102287689D01*
X150473471Y-102403951D01*
X150447685Y-102468888D01*
X150403130Y-102500804D01*
X150439503Y-102521668D01*
X150471693Y-102583681D01*
X150473470Y-102596047D01*
X150484244Y-102712310D01*
X150538334Y-102902415D01*
X150542596Y-102917392D01*
X150542596Y-102917394D01*
X150637632Y-103108253D01*
X150709132Y-103202933D01*
X150766128Y-103278407D01*
X150923698Y-103422052D01*
X150923700Y-103422053D01*
X150923701Y-103422054D01*
X151010777Y-103475969D01*
X151057413Y-103527997D01*
X151069500Y-103581396D01*
X151069500Y-103810177D01*
X151069428Y-103814409D01*
X151067807Y-103861884D01*
X151067238Y-103878529D01*
X151076963Y-103918433D01*
X151079334Y-103930908D01*
X151084930Y-103971620D01*
X151092079Y-103988079D01*
X151098819Y-104008120D01*
X151103067Y-104025552D01*
X151103067Y-104025553D01*
X151123206Y-104061371D01*
X151128846Y-104072725D01*
X151134843Y-104086530D01*
X151145221Y-104110423D01*
X151156541Y-104124336D01*
X151168439Y-104141817D01*
X151177234Y-104157460D01*
X151177236Y-104157461D01*
X151206286Y-104186511D01*
X151214784Y-104195926D01*
X151240722Y-104227808D01*
X151255381Y-104238155D01*
X151271552Y-104251777D01*
X152588181Y-105568405D01*
X152621666Y-105629728D01*
X152624500Y-105656086D01*
X152624500Y-106629444D01*
X152624211Y-106637906D01*
X152620618Y-106690418D01*
X152620619Y-106690420D01*
X152621906Y-106696613D01*
X152624500Y-106721844D01*
X152624500Y-106916769D01*
X152604815Y-106983808D01*
X152599767Y-106991080D01*
X152531204Y-107082668D01*
X152531202Y-107082671D01*
X152480910Y-107217513D01*
X152480909Y-107217517D01*
X152474500Y-107277127D01*
X152474500Y-107598634D01*
X152474501Y-107880200D01*
X152454817Y-107947239D01*
X152402013Y-107992994D01*
X152350501Y-108004200D01*
X152149000Y-108004200D01*
X152081961Y-107984515D01*
X152036206Y-107931711D01*
X152025000Y-107880200D01*
X152025000Y-107850000D01*
X151149000Y-107850000D01*
X151081961Y-107830315D01*
X151036206Y-107777511D01*
X151025000Y-107726000D01*
X151025000Y-106825000D01*
X151525000Y-106825000D01*
X151525000Y-107350000D01*
X152025000Y-107350000D01*
X152025000Y-107308897D01*
X152014868Y-107224532D01*
X152014868Y-107224531D01*
X151961922Y-107090270D01*
X151874721Y-106975278D01*
X151759729Y-106888077D01*
X151625467Y-106835131D01*
X151541102Y-106825000D01*
X151525000Y-106825000D01*
X151025000Y-106825000D01*
X151008898Y-106825000D01*
X150924532Y-106835131D01*
X150924531Y-106835131D01*
X150790270Y-106888077D01*
X150675280Y-106975277D01*
X150599118Y-107075712D01*
X150542925Y-107117235D01*
X150473204Y-107121786D01*
X150412090Y-107087921D01*
X150401511Y-107075712D01*
X150325078Y-106974922D01*
X150209976Y-106887636D01*
X150075588Y-106834640D01*
X150030315Y-106829204D01*
X149991144Y-106824500D01*
X149458856Y-106824500D01*
X149420841Y-106829065D01*
X149374411Y-106834640D01*
X149240023Y-106887636D01*
X149124921Y-106974921D01*
X149037636Y-107090023D01*
X148984640Y-107224411D01*
X148981055Y-107254269D01*
X148974500Y-107308856D01*
X148974500Y-107308862D01*
X148974500Y-107697390D01*
X148954815Y-107764429D01*
X148938181Y-107785071D01*
X148911571Y-107811681D01*
X148850248Y-107845166D01*
X148823890Y-107848000D01*
X144716901Y-107848000D01*
X144649862Y-107828315D01*
X144641415Y-107822376D01*
X144545742Y-107748964D01*
X144399662Y-107688456D01*
X144399660Y-107688455D01*
X144242901Y-107667818D01*
X144242899Y-107667818D01*
X144086139Y-107688455D01*
X144086137Y-107688456D01*
X143940060Y-107748963D01*
X143814618Y-107845218D01*
X143718363Y-107970660D01*
X143657856Y-108116737D01*
X143657855Y-108116739D01*
X143637218Y-108273498D01*
X143637218Y-108273501D01*
X143657855Y-108430260D01*
X143657856Y-108430262D01*
X143715089Y-108568436D01*
X143718364Y-108576341D01*
X143814618Y-108701782D01*
X143940059Y-108798036D01*
X144086138Y-108858544D01*
X144164519Y-108868863D01*
X144242899Y-108879182D01*
X144242900Y-108879182D01*
X144242901Y-108879182D01*
X144295154Y-108872302D01*
X144399662Y-108858544D01*
X144545741Y-108798036D01*
X144566018Y-108782477D01*
X144641415Y-108724624D01*
X144706585Y-108699430D01*
X144716901Y-108699000D01*
X147495990Y-108699000D01*
X147563029Y-108718685D01*
X147608784Y-108771489D01*
X147618728Y-108840647D01*
X147589703Y-108904203D01*
X147583671Y-108910681D01*
X147256780Y-109237571D01*
X147256777Y-109237575D01*
X147243464Y-109250887D01*
X147182140Y-109284369D01*
X147112453Y-109279384D01*
X146982486Y-109230910D01*
X146982485Y-109230909D01*
X146982483Y-109230909D01*
X146922873Y-109224500D01*
X146922863Y-109224500D01*
X146427129Y-109224500D01*
X146427123Y-109224501D01*
X146367516Y-109230908D01*
X146232671Y-109281202D01*
X146232664Y-109281206D01*
X146117457Y-109367451D01*
X146117449Y-109367458D01*
X146093232Y-109399810D01*
X146037299Y-109441682D01*
X145993965Y-109449500D01*
X140829386Y-109449500D01*
X140762347Y-109429815D01*
X140741705Y-109413181D01*
X140561819Y-109233294D01*
X140528334Y-109171971D01*
X140525500Y-109145613D01*
X140525500Y-108656903D01*
X140525500Y-108656898D01*
X140514877Y-108568436D01*
X140459361Y-108427658D01*
X140459360Y-108427657D01*
X140459360Y-108427656D01*
X140367922Y-108307077D01*
X140247343Y-108215639D01*
X140144076Y-108174916D01*
X140106564Y-108160123D01*
X140106563Y-108160122D01*
X140106561Y-108160122D01*
X140060926Y-108154642D01*
X140018102Y-108149500D01*
X138981898Y-108149500D01*
X138942853Y-108154188D01*
X138893438Y-108160122D01*
X138752656Y-108215639D01*
X138632077Y-108307077D01*
X138599207Y-108350425D01*
X138543015Y-108391948D01*
X138500403Y-108399500D01*
X137999597Y-108399500D01*
X137932558Y-108379815D01*
X137900793Y-108350425D01*
X137867922Y-108307077D01*
X137747343Y-108215639D01*
X137644076Y-108174916D01*
X137606564Y-108160123D01*
X137606563Y-108160122D01*
X137606561Y-108160122D01*
X137560926Y-108154642D01*
X137518102Y-108149500D01*
X136481898Y-108149500D01*
X136442853Y-108154188D01*
X136393438Y-108160122D01*
X136252656Y-108215639D01*
X136132077Y-108307077D01*
X136040639Y-108427656D01*
X135985122Y-108568438D01*
X135980130Y-108610016D01*
X135974500Y-108656898D01*
X135974500Y-108656903D01*
X135974500Y-109145613D01*
X135954815Y-109212652D01*
X135938181Y-109233294D01*
X135529694Y-109641781D01*
X135468371Y-109675266D01*
X135442013Y-109678100D01*
X134974500Y-109678100D01*
X134907461Y-109658415D01*
X134861706Y-109605611D01*
X134850500Y-109554100D01*
X134850499Y-107300000D01*
X135975000Y-107300000D01*
X135975000Y-107343053D01*
X135985613Y-107431443D01*
X136041079Y-107572095D01*
X136132435Y-107692564D01*
X136252904Y-107783920D01*
X136393556Y-107839386D01*
X136481946Y-107850000D01*
X136750000Y-107850000D01*
X136750000Y-107300000D01*
X137250000Y-107300000D01*
X137250000Y-107850000D01*
X137518054Y-107850000D01*
X137606443Y-107839386D01*
X137747095Y-107783920D01*
X137867564Y-107692564D01*
X137958920Y-107572095D01*
X138014386Y-107431443D01*
X138025000Y-107343053D01*
X138025000Y-107300000D01*
X138475000Y-107300000D01*
X138475000Y-107343053D01*
X138485613Y-107431443D01*
X138541079Y-107572095D01*
X138632435Y-107692564D01*
X138752904Y-107783920D01*
X138893556Y-107839386D01*
X138981946Y-107850000D01*
X139250000Y-107850000D01*
X139250000Y-107300000D01*
X139750000Y-107300000D01*
X139750000Y-107850000D01*
X140018054Y-107850000D01*
X140106443Y-107839386D01*
X140247095Y-107783920D01*
X140367564Y-107692564D01*
X140458920Y-107572095D01*
X140514386Y-107431443D01*
X140525000Y-107343053D01*
X140525000Y-107300000D01*
X139750000Y-107300000D01*
X139250000Y-107300000D01*
X138475000Y-107300000D01*
X138025000Y-107300000D01*
X137250000Y-107300000D01*
X136750000Y-107300000D01*
X135975000Y-107300000D01*
X134850499Y-107300000D01*
X134850499Y-106800000D01*
X135975000Y-106800000D01*
X136750000Y-106800000D01*
X136750000Y-106250000D01*
X137250000Y-106250000D01*
X137250000Y-106800000D01*
X138025000Y-106800000D01*
X138475000Y-106800000D01*
X139250000Y-106800000D01*
X139250000Y-106250000D01*
X139750000Y-106250000D01*
X139750000Y-106800000D01*
X140525000Y-106800000D01*
X140525000Y-106756946D01*
X140514386Y-106668556D01*
X140458920Y-106527904D01*
X140367564Y-106407435D01*
X140247095Y-106316079D01*
X140106443Y-106260613D01*
X140018054Y-106250000D01*
X139750000Y-106250000D01*
X139250000Y-106250000D01*
X138981946Y-106250000D01*
X138893556Y-106260613D01*
X138752904Y-106316079D01*
X138632435Y-106407435D01*
X138541079Y-106527904D01*
X138485613Y-106668556D01*
X138475000Y-106756946D01*
X138475000Y-106800000D01*
X138025000Y-106800000D01*
X138025000Y-106756946D01*
X138014386Y-106668556D01*
X137958920Y-106527904D01*
X137867564Y-106407435D01*
X137747095Y-106316079D01*
X137606443Y-106260613D01*
X137518054Y-106250000D01*
X137250000Y-106250000D01*
X136750000Y-106250000D01*
X136481946Y-106250000D01*
X136393556Y-106260613D01*
X136252904Y-106316079D01*
X136132435Y-106407435D01*
X136041079Y-106527904D01*
X135985613Y-106668556D01*
X135975000Y-106756946D01*
X135975000Y-106800000D01*
X134850499Y-106800000D01*
X134850499Y-106105143D01*
X134850499Y-106105136D01*
X134850497Y-106105117D01*
X134847586Y-106080012D01*
X134847585Y-106080010D01*
X134847585Y-106080009D01*
X134802206Y-105977235D01*
X134722765Y-105897794D01*
X134659802Y-105869993D01*
X134624413Y-105854367D01*
X134571037Y-105809281D01*
X134550510Y-105742495D01*
X134550500Y-105740933D01*
X134550500Y-105689820D01*
X134550572Y-105685588D01*
X134551425Y-105660613D01*
X134552762Y-105621474D01*
X134548680Y-105604724D01*
X134543035Y-105581560D01*
X134540664Y-105569084D01*
X134536021Y-105535300D01*
X134535070Y-105528380D01*
X134527921Y-105511922D01*
X134521180Y-105491878D01*
X134516933Y-105474448D01*
X134496795Y-105438632D01*
X134491148Y-105427263D01*
X134474780Y-105389580D01*
X134463454Y-105375659D01*
X134451556Y-105358177D01*
X134442764Y-105342540D01*
X134413718Y-105313494D01*
X134405210Y-105304067D01*
X134379278Y-105272191D01*
X134364613Y-105261840D01*
X134348441Y-105248217D01*
X132217906Y-103117681D01*
X132214964Y-103114637D01*
X132197601Y-103096046D01*
X132171180Y-103067756D01*
X132171179Y-103067755D01*
X132136075Y-103046408D01*
X132125579Y-103039264D01*
X132092841Y-103014438D01*
X132092842Y-103014438D01*
X132076142Y-103007852D01*
X132057216Y-102998452D01*
X132041880Y-102989127D01*
X132002316Y-102978041D01*
X131990286Y-102973996D01*
X131952064Y-102958924D01*
X131952056Y-102958922D01*
X131934216Y-102957088D01*
X131913451Y-102953142D01*
X131896169Y-102948300D01*
X131896165Y-102948300D01*
X131855082Y-102948300D01*
X131842402Y-102947650D01*
X131801529Y-102943448D01*
X131801524Y-102943448D01*
X131783844Y-102946497D01*
X131762776Y-102948300D01*
X126276220Y-102948300D01*
X126271988Y-102948228D01*
X126255065Y-102947650D01*
X126207872Y-102946038D01*
X126207871Y-102946038D01*
X126207868Y-102946038D01*
X126167955Y-102955764D01*
X126155487Y-102958134D01*
X126114779Y-102963730D01*
X126114774Y-102963731D01*
X126098317Y-102970879D01*
X126078288Y-102977614D01*
X126060854Y-102981863D01*
X126060843Y-102981867D01*
X126025026Y-103002006D01*
X126013661Y-103007651D01*
X125975979Y-103024020D01*
X125962061Y-103035343D01*
X125944585Y-103047237D01*
X125928938Y-103056035D01*
X125928937Y-103056036D01*
X125899878Y-103085093D01*
X125890458Y-103093594D01*
X125858592Y-103119519D01*
X125858592Y-103119520D01*
X125848242Y-103134182D01*
X125834621Y-103150351D01*
X125406794Y-103578179D01*
X125403752Y-103581119D01*
X125356858Y-103624916D01*
X125335506Y-103660027D01*
X125328370Y-103670511D01*
X125303539Y-103703258D01*
X125303536Y-103703263D01*
X125296955Y-103719952D01*
X125287553Y-103738883D01*
X125278227Y-103754219D01*
X125267142Y-103793781D01*
X125263098Y-103805808D01*
X125248022Y-103844040D01*
X125246188Y-103861884D01*
X125242242Y-103882648D01*
X125237401Y-103899928D01*
X125237400Y-103899937D01*
X125237400Y-103941018D01*
X125236750Y-103953698D01*
X125232548Y-103994570D01*
X125232548Y-103994575D01*
X125235597Y-104012256D01*
X125237400Y-104033324D01*
X125237400Y-106463877D01*
X125237328Y-106468109D01*
X125235138Y-106532229D01*
X125244863Y-106572133D01*
X125247234Y-106584608D01*
X125252830Y-106625320D01*
X125259979Y-106641779D01*
X125266719Y-106661820D01*
X125270967Y-106679252D01*
X125270967Y-106679253D01*
X125291106Y-106715071D01*
X125296746Y-106726425D01*
X125299202Y-106732078D01*
X125313121Y-106764123D01*
X125324441Y-106778036D01*
X125336339Y-106795517D01*
X125345135Y-106811160D01*
X125345135Y-106811161D01*
X125363179Y-106829204D01*
X125396666Y-106890526D01*
X125399500Y-106916887D01*
X125399500Y-107254269D01*
X125402353Y-107284699D01*
X125402353Y-107284701D01*
X125447206Y-107412880D01*
X125447207Y-107412882D01*
X125460906Y-107431443D01*
X125475610Y-107451367D01*
X125499580Y-107516997D01*
X125484264Y-107585167D01*
X125475610Y-107598633D01*
X125447207Y-107637118D01*
X125447206Y-107637119D01*
X125402353Y-107765298D01*
X125402353Y-107765300D01*
X125399500Y-107795730D01*
X125399500Y-108100500D01*
X125379815Y-108167539D01*
X125327011Y-108213294D01*
X125275500Y-108224500D01*
X124224263Y-108224500D01*
X124157224Y-108204815D01*
X124131227Y-108180761D01*
X124131072Y-108180917D01*
X124127080Y-108176925D01*
X124125460Y-108175426D01*
X124125078Y-108174922D01*
X124125073Y-108174918D01*
X124125072Y-108174917D01*
X124024287Y-108098488D01*
X123982764Y-108042296D01*
X123978213Y-107972574D01*
X124012078Y-107911461D01*
X124024288Y-107900881D01*
X124124721Y-107824721D01*
X124211922Y-107709729D01*
X124264868Y-107575468D01*
X124264868Y-107575467D01*
X124275000Y-107491102D01*
X124275000Y-107475000D01*
X122725000Y-107475000D01*
X122725000Y-107491102D01*
X122735131Y-107575467D01*
X122735131Y-107575468D01*
X122788077Y-107709729D01*
X122875278Y-107824721D01*
X122975711Y-107900881D01*
X123017234Y-107957073D01*
X123021786Y-108026795D01*
X122987921Y-108087909D01*
X122975712Y-108098488D01*
X122874927Y-108174916D01*
X122874922Y-108174921D01*
X122874922Y-108174922D01*
X122874540Y-108175425D01*
X122874076Y-108175767D01*
X122868928Y-108180917D01*
X122868154Y-108180143D01*
X122818350Y-108216948D01*
X122775737Y-108224500D01*
X121711522Y-108224500D01*
X121707290Y-108224428D01*
X121692570Y-108223925D01*
X121643174Y-108222238D01*
X121643173Y-108222238D01*
X121643171Y-108222238D01*
X121603255Y-108231965D01*
X121590784Y-108234335D01*
X121550079Y-108239930D01*
X121533616Y-108247081D01*
X121513575Y-108253820D01*
X121496150Y-108258066D01*
X121496145Y-108258068D01*
X121460334Y-108278203D01*
X121448970Y-108283847D01*
X121411278Y-108300220D01*
X121397357Y-108311546D01*
X121379883Y-108323438D01*
X121364246Y-108332230D01*
X121364239Y-108332236D01*
X121335184Y-108361290D01*
X121325762Y-108369793D01*
X121293890Y-108395723D01*
X121283539Y-108410387D01*
X121269919Y-108426555D01*
X121133293Y-108563182D01*
X121071973Y-108596666D01*
X121045614Y-108599500D01*
X120306898Y-108599500D01*
X120267853Y-108604188D01*
X120218438Y-108610122D01*
X120077656Y-108665639D01*
X119957077Y-108757077D01*
X119865639Y-108877656D01*
X119810122Y-109018438D01*
X119806337Y-109049960D01*
X119799500Y-109106898D01*
X119799500Y-109106903D01*
X119799500Y-109292500D01*
X119779815Y-109359539D01*
X119727011Y-109405294D01*
X119675500Y-109416500D01*
X115044522Y-109416500D01*
X115040290Y-109416428D01*
X115025570Y-109415925D01*
X114976174Y-109414238D01*
X114976173Y-109414238D01*
X114976171Y-109414238D01*
X114936255Y-109423965D01*
X114923784Y-109426335D01*
X114883079Y-109431930D01*
X114866616Y-109439081D01*
X114846575Y-109445820D01*
X114829150Y-109450066D01*
X114829145Y-109450068D01*
X114793334Y-109470203D01*
X114781970Y-109475847D01*
X114744278Y-109492220D01*
X114730357Y-109503546D01*
X114712883Y-109515438D01*
X114697244Y-109524231D01*
X114697240Y-109524235D01*
X114668186Y-109553287D01*
X114658767Y-109561788D01*
X114626891Y-109587722D01*
X114616539Y-109602387D01*
X114602919Y-109618555D01*
X113958295Y-110263181D01*
X113896972Y-110296666D01*
X113870614Y-110299500D01*
X112456898Y-110299500D01*
X112417853Y-110304188D01*
X112368438Y-110310122D01*
X112227656Y-110365639D01*
X112107077Y-110457077D01*
X112015639Y-110577656D01*
X111960122Y-110718438D01*
X111956057Y-110752292D01*
X111949500Y-110806898D01*
X111949500Y-112193102D01*
X111953444Y-112225943D01*
X111960122Y-112281561D01*
X111960122Y-112281563D01*
X111960123Y-112281564D01*
X111969875Y-112306293D01*
X112015639Y-112422343D01*
X112107077Y-112542922D01*
X112227656Y-112634360D01*
X112227657Y-112634360D01*
X112227658Y-112634361D01*
X112368436Y-112689877D01*
X112456898Y-112700500D01*
X112456903Y-112700500D01*
X114543097Y-112700500D01*
X114543102Y-112700500D01*
X114631564Y-112689877D01*
X114772342Y-112634361D01*
X114892922Y-112542922D01*
X114984361Y-112422342D01*
X115039877Y-112281564D01*
X115050500Y-112193102D01*
X115050500Y-110806898D01*
X115049230Y-110796325D01*
X115060779Y-110727418D01*
X115084658Y-110693864D01*
X115224706Y-110553816D01*
X115286029Y-110520334D01*
X115312386Y-110517500D01*
X115857169Y-110517500D01*
X115924208Y-110537185D01*
X115969963Y-110589989D01*
X115979907Y-110659147D01*
X115972524Y-110686989D01*
X115960122Y-110718436D01*
X115953915Y-110770130D01*
X115949500Y-110806898D01*
X115949500Y-112193102D01*
X115953444Y-112225943D01*
X115960122Y-112281561D01*
X115960122Y-112281563D01*
X115960123Y-112281564D01*
X115969875Y-112306293D01*
X116015639Y-112422343D01*
X116107077Y-112542922D01*
X116227656Y-112634360D01*
X116227657Y-112634360D01*
X116227658Y-112634361D01*
X116368436Y-112689877D01*
X116368440Y-112689877D01*
X116370990Y-112690883D01*
X116426134Y-112733789D01*
X116449327Y-112799697D01*
X116449500Y-112806238D01*
X116449500Y-116047240D01*
X116429815Y-116114279D01*
X116377011Y-116160034D01*
X116307853Y-116169978D01*
X116244297Y-116140953D01*
X116211377Y-116095737D01*
X116190768Y-116047240D01*
X116150130Y-115951610D01*
X116009018Y-115720390D01*
X115919747Y-115613119D01*
X115835746Y-115512180D01*
X115835740Y-115512175D01*
X115634002Y-115331418D01*
X115408092Y-115181957D01*
X115408090Y-115181956D01*
X115162824Y-115066980D01*
X115162819Y-115066978D01*
X115162814Y-115066976D01*
X114903442Y-114988942D01*
X114903428Y-114988939D01*
X114787791Y-114971921D01*
X114635439Y-114949500D01*
X114432369Y-114949500D01*
X114432351Y-114949500D01*
X114229844Y-114964323D01*
X114229831Y-114964325D01*
X113965453Y-115023217D01*
X113965446Y-115023220D01*
X113712439Y-115119987D01*
X113476226Y-115252557D01*
X113261822Y-115418112D01*
X113073822Y-115613109D01*
X113073816Y-115613116D01*
X112916202Y-115833419D01*
X112916199Y-115833424D01*
X112792350Y-116074309D01*
X112792343Y-116074327D01*
X112704884Y-116330685D01*
X112704881Y-116330699D01*
X112655681Y-116597068D01*
X112655680Y-116597075D01*
X112645787Y-116867763D01*
X112675413Y-117137013D01*
X112675415Y-117137024D01*
X112709998Y-117269305D01*
X112743928Y-117399088D01*
X112849870Y-117648390D01*
X112922000Y-117766579D01*
X112990979Y-117879605D01*
X112990986Y-117879615D01*
X113164253Y-118087819D01*
X113164259Y-118087824D01*
X113320499Y-118227815D01*
X113365998Y-118268582D01*
X113591910Y-118418044D01*
X113662265Y-118451025D01*
X113714609Y-118497303D01*
X113733625Y-118564535D01*
X113713273Y-118631375D01*
X113660016Y-118676602D01*
X113609631Y-118687300D01*
X109764193Y-118687300D01*
X109697154Y-118667615D01*
X109676512Y-118650981D01*
X103754219Y-112728688D01*
X103720734Y-112667365D01*
X103717900Y-112641007D01*
X103717900Y-110559909D01*
X103737585Y-110492870D01*
X103754219Y-110472228D01*
X104397452Y-109828993D01*
X104407188Y-109858956D01*
X104495186Y-109997619D01*
X104614903Y-110110040D01*
X104749510Y-110184041D01*
X104055819Y-110877732D01*
X104055819Y-110877733D01*
X104056634Y-110878429D01*
X104271368Y-111010019D01*
X104504043Y-111106396D01*
X104748927Y-111165187D01*
X105000000Y-111184947D01*
X105251072Y-111165187D01*
X105495956Y-111106396D01*
X105728631Y-111010019D01*
X105943361Y-110878432D01*
X105943363Y-110878430D01*
X105944180Y-110877732D01*
X105247534Y-110181086D01*
X105315629Y-110154126D01*
X105448492Y-110057595D01*
X105553175Y-109931055D01*
X105601631Y-109828079D01*
X106297732Y-110524180D01*
X106298430Y-110523363D01*
X106298432Y-110523361D01*
X106430019Y-110308631D01*
X106526396Y-110075956D01*
X106585187Y-109831072D01*
X106604947Y-109580000D01*
X106585187Y-109328927D01*
X106526396Y-109084043D01*
X106430019Y-108851368D01*
X106298431Y-108636637D01*
X106298428Y-108636632D01*
X106199184Y-108520432D01*
X106170613Y-108456670D01*
X106181050Y-108387584D01*
X106227181Y-108335109D01*
X106293474Y-108315900D01*
X111889269Y-108315900D01*
X111956308Y-108335585D01*
X112002063Y-108388389D01*
X112004623Y-108394409D01*
X112015638Y-108422341D01*
X112107077Y-108542922D01*
X112227656Y-108634360D01*
X112227657Y-108634360D01*
X112227658Y-108634361D01*
X112368436Y-108689877D01*
X112456898Y-108700500D01*
X112456903Y-108700500D01*
X114543097Y-108700500D01*
X114543102Y-108700500D01*
X114631564Y-108689877D01*
X114772342Y-108634361D01*
X114892922Y-108542922D01*
X114984361Y-108422342D01*
X115039877Y-108281564D01*
X115050500Y-108193102D01*
X115050500Y-107750000D01*
X115950000Y-107750000D01*
X115950000Y-108193053D01*
X115960613Y-108281443D01*
X116016079Y-108422095D01*
X116107435Y-108542564D01*
X116227904Y-108633920D01*
X116368556Y-108689386D01*
X116456946Y-108700000D01*
X117250000Y-108700000D01*
X117250000Y-107750000D01*
X117750000Y-107750000D01*
X117750000Y-108700000D01*
X118543054Y-108700000D01*
X118631443Y-108689386D01*
X118772095Y-108633920D01*
X118892564Y-108542564D01*
X118983920Y-108422095D01*
X119039386Y-108281443D01*
X119050000Y-108193053D01*
X119050000Y-107750000D01*
X117750000Y-107750000D01*
X117250000Y-107750000D01*
X115950000Y-107750000D01*
X115050500Y-107750000D01*
X115050500Y-107623992D01*
X115070185Y-107556953D01*
X115086814Y-107536316D01*
X115738320Y-106884810D01*
X115799642Y-106851326D01*
X115869334Y-106856310D01*
X115925267Y-106898182D01*
X115949684Y-106963646D01*
X115950000Y-106972492D01*
X115950000Y-107250000D01*
X117250000Y-107250000D01*
X117250000Y-106300000D01*
X117750000Y-106300000D01*
X117750000Y-107250000D01*
X119050000Y-107250000D01*
X119050000Y-106806946D01*
X119046164Y-106775000D01*
X119800000Y-106775000D01*
X119800000Y-106893053D01*
X119810613Y-106981443D01*
X119866079Y-107122095D01*
X119957435Y-107242564D01*
X120077904Y-107333920D01*
X120218556Y-107389386D01*
X120306946Y-107400000D01*
X120750000Y-107400000D01*
X120750000Y-106775000D01*
X121250000Y-106775000D01*
X121250000Y-107400000D01*
X121693054Y-107400000D01*
X121781443Y-107389386D01*
X121922095Y-107333920D01*
X122042564Y-107242564D01*
X122133920Y-107122095D01*
X122189386Y-106981443D01*
X122190160Y-106975000D01*
X122725000Y-106975000D01*
X123250000Y-106975000D01*
X123250000Y-106475000D01*
X123750000Y-106475000D01*
X123750000Y-106975000D01*
X124275000Y-106975000D01*
X124275000Y-106958897D01*
X124264868Y-106874532D01*
X124264868Y-106874531D01*
X124211922Y-106740270D01*
X124124721Y-106625278D01*
X124009729Y-106538077D01*
X123875467Y-106485131D01*
X123791102Y-106475000D01*
X123750000Y-106475000D01*
X123250000Y-106475000D01*
X123208898Y-106475000D01*
X123124532Y-106485131D01*
X123124531Y-106485131D01*
X122990270Y-106538077D01*
X122875278Y-106625278D01*
X122788077Y-106740270D01*
X122735131Y-106874531D01*
X122735131Y-106874532D01*
X122725000Y-106958897D01*
X122725000Y-106975000D01*
X122190160Y-106975000D01*
X122200000Y-106893053D01*
X122200000Y-106775000D01*
X121250000Y-106775000D01*
X120750000Y-106775000D01*
X119800000Y-106775000D01*
X119046164Y-106775000D01*
X119039386Y-106718556D01*
X118983920Y-106577904D01*
X118892564Y-106457435D01*
X118772095Y-106366079D01*
X118631443Y-106310613D01*
X118543054Y-106300000D01*
X117750000Y-106300000D01*
X117250000Y-106300000D01*
X116622492Y-106300000D01*
X116555453Y-106280315D01*
X116550848Y-106275000D01*
X119800000Y-106275000D01*
X120750000Y-106275000D01*
X120750000Y-105650000D01*
X121250000Y-105650000D01*
X121250000Y-106275000D01*
X122200000Y-106275000D01*
X122200000Y-106156946D01*
X122189386Y-106068556D01*
X122133920Y-105927904D01*
X122042564Y-105807435D01*
X121922095Y-105716079D01*
X121781443Y-105660613D01*
X121693054Y-105650000D01*
X121250000Y-105650000D01*
X120750000Y-105650000D01*
X120306946Y-105650000D01*
X120218556Y-105660613D01*
X120077904Y-105716079D01*
X119957435Y-105807435D01*
X119866079Y-105927904D01*
X119810613Y-106068556D01*
X119800000Y-106156946D01*
X119800000Y-106275000D01*
X116550848Y-106275000D01*
X116509698Y-106227511D01*
X116499754Y-106158353D01*
X116528779Y-106094797D01*
X116534811Y-106088319D01*
X116815695Y-105807435D01*
X117097086Y-105526043D01*
X117158407Y-105492560D01*
X117199548Y-105490611D01*
X117251243Y-105496818D01*
X117281897Y-105500500D01*
X117281898Y-105500500D01*
X117993097Y-105500500D01*
X117993102Y-105500500D01*
X118081564Y-105489877D01*
X118222342Y-105434361D01*
X118342922Y-105342922D01*
X118434361Y-105222342D01*
X118489877Y-105081564D01*
X118500500Y-104993102D01*
X118500500Y-104144983D01*
X118515142Y-104086530D01*
X118543582Y-104033324D01*
X118612732Y-103903955D01*
X118672800Y-103705934D01*
X118693083Y-103500000D01*
X118672800Y-103294066D01*
X118612732Y-103096046D01*
X118612730Y-103096043D01*
X118612730Y-103096041D01*
X118515142Y-102913467D01*
X118500500Y-102855014D01*
X118500500Y-102250000D01*
X142850000Y-102250000D01*
X143566314Y-102250000D01*
X143540507Y-102290156D01*
X143500000Y-102428111D01*
X143500000Y-102571889D01*
X143540507Y-102709844D01*
X143566314Y-102750000D01*
X142850001Y-102750000D01*
X142850001Y-103394785D01*
X142850002Y-103394808D01*
X142852908Y-103419869D01*
X142852909Y-103419873D01*
X142898211Y-103522474D01*
X142898214Y-103522479D01*
X142977520Y-103601785D01*
X142977525Y-103601788D01*
X143080123Y-103647089D01*
X143105206Y-103649999D01*
X143749999Y-103649999D01*
X143750000Y-103649998D01*
X143750000Y-102935501D01*
X143857685Y-102984680D01*
X143964237Y-103000000D01*
X144035763Y-103000000D01*
X144142315Y-102984680D01*
X144250000Y-102935501D01*
X144250000Y-103649999D01*
X144894786Y-103649999D01*
X144894808Y-103649997D01*
X144919869Y-103647091D01*
X144919873Y-103647090D01*
X145022474Y-103601788D01*
X145022479Y-103601785D01*
X145101785Y-103522479D01*
X145101788Y-103522474D01*
X145147089Y-103419877D01*
X145147089Y-103419875D01*
X145149999Y-103394794D01*
X145149999Y-102650653D01*
X145169683Y-102583614D01*
X145222487Y-102537859D01*
X145291646Y-102527915D01*
X145355202Y-102556940D01*
X145392976Y-102615718D01*
X145397470Y-102639211D01*
X145404015Y-102709844D01*
X145404244Y-102712310D01*
X145458334Y-102902415D01*
X145462596Y-102917392D01*
X145462596Y-102917394D01*
X145557632Y-103108253D01*
X145629132Y-103202933D01*
X145686128Y-103278407D01*
X145843698Y-103422052D01*
X146024981Y-103534298D01*
X146223802Y-103611321D01*
X146433390Y-103650500D01*
X146433392Y-103650500D01*
X146646608Y-103650500D01*
X146646610Y-103650500D01*
X146856198Y-103611321D01*
X147055019Y-103534298D01*
X147236302Y-103422052D01*
X147393872Y-103278407D01*
X147522366Y-103108255D01*
X147533899Y-103085093D01*
X147617403Y-102917394D01*
X147617403Y-102917393D01*
X147617405Y-102917389D01*
X147675756Y-102712310D01*
X147686529Y-102596047D01*
X147712315Y-102531111D01*
X147754622Y-102500804D01*
X147863130Y-102500804D01*
X147899503Y-102521668D01*
X147931693Y-102583681D01*
X147933470Y-102596047D01*
X147944244Y-102712310D01*
X147998334Y-102902415D01*
X148002596Y-102917392D01*
X148002596Y-102917394D01*
X148097632Y-103108253D01*
X148169132Y-103202933D01*
X148226128Y-103278407D01*
X148383698Y-103422052D01*
X148564981Y-103534298D01*
X148763802Y-103611321D01*
X148973390Y-103650500D01*
X148973392Y-103650500D01*
X149186608Y-103650500D01*
X149186610Y-103650500D01*
X149396198Y-103611321D01*
X149595019Y-103534298D01*
X149776302Y-103422052D01*
X149933872Y-103278407D01*
X150062366Y-103108255D01*
X150073899Y-103085093D01*
X150157403Y-102917394D01*
X150157403Y-102917393D01*
X150157405Y-102917389D01*
X150215756Y-102712310D01*
X150226529Y-102596047D01*
X150252315Y-102531111D01*
X150296869Y-102499194D01*
X150260497Y-102478331D01*
X150228307Y-102416318D01*
X150226529Y-102403951D01*
X150223675Y-102373155D01*
X150215756Y-102287690D01*
X150157405Y-102082611D01*
X150157403Y-102082606D01*
X150157403Y-102082605D01*
X150062367Y-101891746D01*
X149933872Y-101721593D01*
X149776302Y-101577948D01*
X149595019Y-101465702D01*
X149595017Y-101465701D01*
X149495608Y-101427190D01*
X149396198Y-101388679D01*
X149186610Y-101349500D01*
X148973390Y-101349500D01*
X148763802Y-101388679D01*
X148763799Y-101388679D01*
X148763799Y-101388680D01*
X148564982Y-101465701D01*
X148564980Y-101465702D01*
X148383699Y-101577947D01*
X148226127Y-101721593D01*
X148097632Y-101891746D01*
X148002596Y-102082605D01*
X148002596Y-102082607D01*
X147944244Y-102287689D01*
X147933471Y-102403951D01*
X147907685Y-102468888D01*
X147863130Y-102500804D01*
X147754622Y-102500804D01*
X147756869Y-102499194D01*
X147720497Y-102478331D01*
X147688307Y-102416318D01*
X147686529Y-102403951D01*
X147683675Y-102373155D01*
X147675756Y-102287690D01*
X147617405Y-102082611D01*
X147617403Y-102082606D01*
X147617403Y-102082605D01*
X147522367Y-101891746D01*
X147393872Y-101721593D01*
X147236302Y-101577948D01*
X147055019Y-101465702D01*
X147055017Y-101465701D01*
X146955608Y-101427190D01*
X146856198Y-101388679D01*
X146646610Y-101349500D01*
X146433390Y-101349500D01*
X146223802Y-101388679D01*
X146223799Y-101388679D01*
X146223799Y-101388680D01*
X146024982Y-101465701D01*
X146024980Y-101465702D01*
X145843699Y-101577947D01*
X145686127Y-101721593D01*
X145557632Y-101891746D01*
X145462596Y-102082605D01*
X145462596Y-102082607D01*
X145404244Y-102287689D01*
X145397470Y-102360790D01*
X145371683Y-102425727D01*
X145314883Y-102466414D01*
X145245102Y-102469934D01*
X145184496Y-102435168D01*
X145152306Y-102373155D01*
X145149999Y-102349348D01*
X145149999Y-101605214D01*
X145149997Y-101605191D01*
X145147091Y-101580130D01*
X145147090Y-101580126D01*
X145101788Y-101477525D01*
X145101785Y-101477520D01*
X145022479Y-101398214D01*
X145022474Y-101398211D01*
X144919876Y-101352910D01*
X144894794Y-101350000D01*
X144250000Y-101350000D01*
X144250000Y-102064498D01*
X144142315Y-102015320D01*
X144035763Y-102000000D01*
X143964237Y-102000000D01*
X143857685Y-102015320D01*
X143750000Y-102064498D01*
X143750000Y-101350000D01*
X143105214Y-101350000D01*
X143105191Y-101350002D01*
X143080130Y-101352908D01*
X143080126Y-101352909D01*
X142977525Y-101398211D01*
X142977520Y-101398214D01*
X142898214Y-101477520D01*
X142898211Y-101477525D01*
X142852910Y-101580122D01*
X142852910Y-101580124D01*
X142850000Y-101605205D01*
X142850000Y-102250000D01*
X118500500Y-102250000D01*
X118500500Y-102006903D01*
X118500500Y-102006898D01*
X118489877Y-101918436D01*
X118434361Y-101777658D01*
X118434360Y-101777657D01*
X118434360Y-101777656D01*
X118342922Y-101657077D01*
X118222343Y-101565639D01*
X118126192Y-101527722D01*
X118081564Y-101510123D01*
X118081563Y-101510122D01*
X118081561Y-101510122D01*
X118035926Y-101504642D01*
X117993102Y-101499500D01*
X117281898Y-101499500D01*
X117242853Y-101504188D01*
X117193438Y-101510122D01*
X117052656Y-101565639D01*
X116932077Y-101657077D01*
X116840639Y-101777656D01*
X116785122Y-101918438D01*
X116779188Y-101967853D01*
X116774500Y-102006898D01*
X116774500Y-102006903D01*
X116774500Y-102826006D01*
X116754815Y-102893045D01*
X116738181Y-102913687D01*
X114405397Y-105246470D01*
X114344074Y-105279955D01*
X114274382Y-105274971D01*
X114218449Y-105233099D01*
X114194032Y-105167635D01*
X114202361Y-105113301D01*
X114214877Y-105081564D01*
X114225500Y-104993102D01*
X114225500Y-104144983D01*
X114240142Y-104086529D01*
X114240182Y-104086452D01*
X114240185Y-104086450D01*
X114337732Y-103903954D01*
X114397800Y-103705934D01*
X114418083Y-103500000D01*
X114397800Y-103294066D01*
X114337732Y-103096046D01*
X114337730Y-103096043D01*
X114337730Y-103096041D01*
X114240142Y-102913467D01*
X114225500Y-102855014D01*
X114225500Y-102006903D01*
X114225500Y-102006898D01*
X114214877Y-101918436D01*
X114159361Y-101777658D01*
X114159360Y-101777657D01*
X114159360Y-101777656D01*
X114067922Y-101657077D01*
X113947343Y-101565639D01*
X113851192Y-101527722D01*
X113806564Y-101510123D01*
X113806563Y-101510122D01*
X113806561Y-101510122D01*
X113760926Y-101504642D01*
X113718102Y-101499500D01*
X113006898Y-101499500D01*
X112967853Y-101504188D01*
X112918438Y-101510122D01*
X112777656Y-101565639D01*
X112657077Y-101657077D01*
X112565639Y-101777656D01*
X112510122Y-101918438D01*
X112504188Y-101967853D01*
X112499500Y-102006898D01*
X112499500Y-102006903D01*
X112499500Y-102325500D01*
X112479815Y-102392539D01*
X112427011Y-102438294D01*
X112375500Y-102449500D01*
X108359401Y-102449500D01*
X108347247Y-102448903D01*
X108301700Y-102444417D01*
X108250092Y-102449500D01*
X108095767Y-102464699D01*
X107920392Y-102517898D01*
X107907966Y-102521668D01*
X107897743Y-102524769D01*
X107715246Y-102622317D01*
X107555288Y-102753591D01*
X107555287Y-102753592D01*
X107526246Y-102788977D01*
X107518077Y-102797990D01*
X106902888Y-103413181D01*
X106841565Y-103446666D01*
X106815207Y-103449500D01*
X106724499Y-103449500D01*
X106657460Y-103429815D01*
X106611705Y-103377011D01*
X106600499Y-103325500D01*
X106600499Y-103155143D01*
X106600499Y-103155136D01*
X106599074Y-103142849D01*
X106597586Y-103130012D01*
X106597585Y-103130010D01*
X106597585Y-103130009D01*
X106552206Y-103027235D01*
X106472765Y-102947794D01*
X106421033Y-102924952D01*
X106369992Y-102902415D01*
X106344865Y-102899500D01*
X103655143Y-102899500D01*
X103655117Y-102899502D01*
X103630012Y-102902413D01*
X103630008Y-102902415D01*
X103527235Y-102947793D01*
X103447794Y-103027234D01*
X103402415Y-103130006D01*
X103402415Y-103130008D01*
X103399500Y-103155131D01*
X103399500Y-105844856D01*
X103399502Y-105844882D01*
X103402413Y-105869987D01*
X103402415Y-105869991D01*
X103447793Y-105972764D01*
X103447794Y-105972765D01*
X103527235Y-106052206D01*
X103601726Y-106085097D01*
X103655100Y-106130181D01*
X103675628Y-106196967D01*
X103656790Y-106264250D01*
X103610093Y-106307887D01*
X103460748Y-106387715D01*
X103300788Y-106518991D01*
X103300787Y-106518992D01*
X103271746Y-106554377D01*
X103263577Y-106563390D01*
X101965390Y-107861577D01*
X101956377Y-107869746D01*
X101920992Y-107898787D01*
X101920991Y-107898788D01*
X101824888Y-108015891D01*
X101789717Y-108058746D01*
X101692169Y-108241241D01*
X101672198Y-108307078D01*
X101635232Y-108428944D01*
X101635003Y-108429698D01*
X101635001Y-108429703D01*
X101632099Y-108439265D01*
X101624451Y-108516933D01*
X101623795Y-108523592D01*
X101611817Y-108645200D01*
X101616217Y-108689877D01*
X101616303Y-108690745D01*
X101616900Y-108702899D01*
X101616900Y-113069799D01*
X101616303Y-113081953D01*
X101611817Y-113127499D01*
X101632099Y-113333431D01*
X101692169Y-113531458D01*
X101771486Y-113679848D01*
X101789713Y-113713948D01*
X101789714Y-113713949D01*
X101789715Y-113713950D01*
X101920990Y-113873910D01*
X101934402Y-113884917D01*
X101956372Y-113902947D01*
X101965388Y-113911119D01*
X107847488Y-119793219D01*
X107880973Y-119854542D01*
X107875989Y-119924234D01*
X107847488Y-119968581D01*
X106902888Y-120913181D01*
X106841565Y-120946666D01*
X106815207Y-120949500D01*
X106724499Y-120949500D01*
X106657460Y-120929815D01*
X106611705Y-120877011D01*
X106600499Y-120825500D01*
X106600499Y-120655143D01*
X106600499Y-120655136D01*
X106600497Y-120655117D01*
X106597586Y-120630012D01*
X106597585Y-120630010D01*
X106597585Y-120630009D01*
X106552206Y-120527235D01*
X106472765Y-120447794D01*
X106464446Y-120444121D01*
X106369992Y-120402415D01*
X106344865Y-120399500D01*
X103655143Y-120399500D01*
X103655117Y-120399502D01*
X103630012Y-120402413D01*
X103630008Y-120402415D01*
X103527235Y-120447793D01*
X103447794Y-120527234D01*
X103402415Y-120630006D01*
X103402415Y-120630008D01*
X103399500Y-120655131D01*
X103399500Y-123344856D01*
X103399502Y-123344882D01*
X103402413Y-123369987D01*
X103402415Y-123369991D01*
X103447793Y-123472764D01*
X103447794Y-123472765D01*
X103527235Y-123552206D01*
X103630009Y-123597585D01*
X103655135Y-123600500D01*
X106344864Y-123600499D01*
X106344879Y-123600497D01*
X106344882Y-123600497D01*
X106369987Y-123597586D01*
X106369988Y-123597585D01*
X106369991Y-123597585D01*
X106472765Y-123552206D01*
X106552206Y-123472765D01*
X106597585Y-123369991D01*
X106600500Y-123344865D01*
X106600500Y-123174500D01*
X106620185Y-123107461D01*
X106672989Y-123061706D01*
X106724500Y-123050500D01*
X107243999Y-123050500D01*
X107256153Y-123051097D01*
X107301700Y-123055583D01*
X107507634Y-123035300D01*
X107705655Y-122975232D01*
X107888150Y-122877685D01*
X107916500Y-122854419D01*
X108048110Y-122746410D01*
X108077148Y-122711025D01*
X108085311Y-122702018D01*
X109962711Y-120824619D01*
X110024034Y-120791134D01*
X110050392Y-120788300D01*
X115549099Y-120788300D01*
X115561253Y-120788897D01*
X115606800Y-120793383D01*
X115812734Y-120773100D01*
X116010755Y-120713032D01*
X116193250Y-120615485D01*
X116227964Y-120586996D01*
X116353210Y-120484210D01*
X116382248Y-120448825D01*
X116390411Y-120439818D01*
X118202018Y-118628211D01*
X118211028Y-118620046D01*
X118246409Y-118591011D01*
X118294001Y-118533020D01*
X118377685Y-118431050D01*
X118417797Y-118356007D01*
X118475232Y-118248555D01*
X118535300Y-118050534D01*
X118555583Y-117844600D01*
X118551097Y-117799053D01*
X118550500Y-117786899D01*
X118550500Y-112806238D01*
X118570185Y-112739199D01*
X118622989Y-112693444D01*
X118629010Y-112690883D01*
X118631559Y-112689877D01*
X118631564Y-112689877D01*
X118772342Y-112634361D01*
X118892922Y-112542922D01*
X118984361Y-112422342D01*
X119039877Y-112281564D01*
X119050500Y-112193102D01*
X119050500Y-110806898D01*
X119039877Y-110718436D01*
X119027476Y-110686989D01*
X119021195Y-110617402D01*
X119053532Y-110555466D01*
X119114222Y-110520846D01*
X119142831Y-110517500D01*
X120720613Y-110517500D01*
X120787652Y-110537185D01*
X120808294Y-110553819D01*
X122413181Y-112158705D01*
X122446666Y-112220028D01*
X122449500Y-112246386D01*
X122449500Y-122675500D01*
X122429815Y-122742539D01*
X122377011Y-122788294D01*
X122325500Y-122799500D01*
X121956898Y-122799500D01*
X121951872Y-122800103D01*
X121882965Y-122788545D01*
X121831245Y-122741568D01*
X121813100Y-122676986D01*
X121813100Y-122544910D01*
X121832785Y-122477871D01*
X121849419Y-122457229D01*
X121892477Y-122414171D01*
X121911853Y-122394795D01*
X121935828Y-122370820D01*
X121946793Y-122349298D01*
X121956954Y-122332718D01*
X121971149Y-122313181D01*
X121978609Y-122290216D01*
X121986059Y-122272234D01*
X121997018Y-122250728D01*
X121997018Y-122250727D01*
X121997019Y-122250726D01*
X122000795Y-122226876D01*
X122005336Y-122207960D01*
X122012800Y-122184993D01*
X122012800Y-122050207D01*
X122012800Y-120984312D01*
X122012800Y-120950407D01*
X122005339Y-120927445D01*
X122000795Y-120908521D01*
X121997019Y-120884674D01*
X121986053Y-120863154D01*
X121978608Y-120845178D01*
X121971928Y-120824619D01*
X121971149Y-120822219D01*
X121956949Y-120802675D01*
X121946793Y-120786100D01*
X121935828Y-120764580D01*
X121840520Y-120669272D01*
X121508194Y-120336946D01*
X121484220Y-120312972D01*
X121484218Y-120312970D01*
X121462703Y-120302008D01*
X121446110Y-120291840D01*
X121426580Y-120277650D01*
X121403615Y-120270188D01*
X121385641Y-120262743D01*
X121364127Y-120251781D01*
X121359010Y-120250970D01*
X121340273Y-120248003D01*
X121321358Y-120243462D01*
X121298394Y-120236000D01*
X121298393Y-120236000D01*
X121264488Y-120236000D01*
X120080893Y-120236000D01*
X119946107Y-120236000D01*
X119946104Y-120236000D01*
X119923139Y-120243462D01*
X119904222Y-120248003D01*
X119880373Y-120251780D01*
X119858858Y-120262743D01*
X119840885Y-120270188D01*
X119817918Y-120277650D01*
X119817916Y-120277651D01*
X119798383Y-120291843D01*
X119781801Y-120302005D01*
X119760281Y-120312970D01*
X119760279Y-120312972D01*
X119664971Y-120408281D01*
X119385070Y-120688181D01*
X119323747Y-120721666D01*
X119297389Y-120724500D01*
X118927130Y-120724500D01*
X118927123Y-120724501D01*
X118867516Y-120730908D01*
X118732671Y-120781202D01*
X118732664Y-120781206D01*
X118617455Y-120867452D01*
X118617452Y-120867455D01*
X118531206Y-120982664D01*
X118531202Y-120982671D01*
X118480910Y-121117513D01*
X118480909Y-121117517D01*
X118474500Y-121177127D01*
X118474500Y-121177134D01*
X118474500Y-121177135D01*
X118474500Y-121822870D01*
X118474501Y-121822876D01*
X118480908Y-121882483D01*
X118531202Y-122017328D01*
X118531206Y-122017335D01*
X118617452Y-122132544D01*
X118617455Y-122132547D01*
X118732664Y-122218793D01*
X118732671Y-122218797D01*
X118754351Y-122226883D01*
X118867517Y-122269091D01*
X118927127Y-122275500D01*
X119148389Y-122275499D01*
X119215428Y-122295183D01*
X119261183Y-122347987D01*
X119271127Y-122417145D01*
X119242102Y-122480701D01*
X119236070Y-122487180D01*
X117117871Y-124605381D01*
X117056548Y-124638866D01*
X117030190Y-124641700D01*
X116902609Y-124641700D01*
X116835570Y-124622015D01*
X116814928Y-124605381D01*
X115761753Y-123552206D01*
X114705594Y-122496046D01*
X114681620Y-122472072D01*
X114681618Y-122472070D01*
X114660103Y-122461108D01*
X114643510Y-122450940D01*
X114623980Y-122436750D01*
X114601015Y-122429288D01*
X114583041Y-122421843D01*
X114561527Y-122410881D01*
X114556410Y-122410070D01*
X114537673Y-122407103D01*
X114518758Y-122402562D01*
X114495794Y-122395100D01*
X114495793Y-122395100D01*
X114461888Y-122395100D01*
X112359293Y-122395100D01*
X112224507Y-122395100D01*
X112224505Y-122395100D01*
X112224501Y-122395101D01*
X112201542Y-122402561D01*
X112182624Y-122407103D01*
X112158778Y-122410879D01*
X112158770Y-122410882D01*
X112137252Y-122421845D01*
X112119288Y-122429286D01*
X112087042Y-122439765D01*
X112086682Y-122438659D01*
X112041527Y-122449500D01*
X111420730Y-122449500D01*
X111390300Y-122452353D01*
X111390298Y-122452353D01*
X111262119Y-122497206D01*
X111262117Y-122497207D01*
X111152850Y-122577850D01*
X111072207Y-122687117D01*
X111072206Y-122687119D01*
X111027353Y-122815298D01*
X111027353Y-122815300D01*
X111024500Y-122845730D01*
X111024500Y-123254269D01*
X111027353Y-123284699D01*
X111027353Y-123284701D01*
X111072206Y-123412880D01*
X111072207Y-123412882D01*
X111152850Y-123522150D01*
X111262118Y-123602793D01*
X111304845Y-123617744D01*
X111390299Y-123647646D01*
X111420730Y-123650500D01*
X111420734Y-123650500D01*
X112704270Y-123650500D01*
X112734699Y-123647646D01*
X112736984Y-123646847D01*
X112738779Y-123646755D01*
X112742073Y-123646036D01*
X112742192Y-123646580D01*
X112806763Y-123643283D01*
X112867391Y-123678010D01*
X112899620Y-123740003D01*
X112901401Y-123775462D01*
X112899500Y-123795738D01*
X112899500Y-123815386D01*
X112898903Y-123827540D01*
X112887000Y-123948395D01*
X112887000Y-124232129D01*
X112867315Y-124299168D01*
X112814511Y-124344923D01*
X112745353Y-124354867D01*
X112736545Y-124353274D01*
X112734606Y-124352850D01*
X112704207Y-124350000D01*
X112312500Y-124350000D01*
X112312500Y-125551705D01*
X112292815Y-125618744D01*
X112276181Y-125639386D01*
X111922386Y-125993181D01*
X111861063Y-126026666D01*
X111834705Y-126029500D01*
X106264749Y-126029500D01*
X106197710Y-126009815D01*
X106170462Y-125986034D01*
X106135224Y-125944776D01*
X106053954Y-125875365D01*
X105943656Y-125781161D01*
X105943653Y-125781160D01*
X105728859Y-125649533D01*
X105496110Y-125553126D01*
X105251151Y-125494317D01*
X105000000Y-125474551D01*
X104748848Y-125494317D01*
X104503889Y-125553126D01*
X104271140Y-125649533D01*
X104056346Y-125781160D01*
X104056343Y-125781161D01*
X103864776Y-125944776D01*
X103701161Y-126136343D01*
X103701160Y-126136346D01*
X103569533Y-126351140D01*
X103473126Y-126583889D01*
X103414317Y-126828848D01*
X103394551Y-127080000D01*
X103414317Y-127331151D01*
X103473126Y-127576110D01*
X103569533Y-127808859D01*
X103701160Y-128023653D01*
X103701161Y-128023656D01*
X103711348Y-128035583D01*
X103864776Y-128215224D01*
X104013066Y-128341875D01*
X104056343Y-128378838D01*
X104056346Y-128378839D01*
X104271140Y-128510466D01*
X104392849Y-128560879D01*
X104503889Y-128606873D01*
X104748852Y-128665683D01*
X105000000Y-128685449D01*
X105251148Y-128665683D01*
X105496111Y-128606873D01*
X105728859Y-128510466D01*
X105943659Y-128378836D01*
X106135224Y-128215224D01*
X106170460Y-128173967D01*
X106228965Y-128135776D01*
X106264749Y-128130500D01*
X112263498Y-128130500D01*
X112275652Y-128131097D01*
X112321199Y-128135583D01*
X112527133Y-128115300D01*
X112725153Y-128055232D01*
X112761914Y-128035583D01*
X112907645Y-127957687D01*
X112907648Y-127957686D01*
X112936707Y-127933838D01*
X112985987Y-127893395D01*
X113067609Y-127826410D01*
X113096647Y-127791025D01*
X113104810Y-127782018D01*
X114639523Y-126247307D01*
X114648520Y-126239152D01*
X114683910Y-126210110D01*
X114738038Y-126144155D01*
X114815185Y-126050151D01*
X114912732Y-125867655D01*
X114972800Y-125669635D01*
X114993083Y-125463700D01*
X114988597Y-125418153D01*
X114988000Y-125405999D01*
X114988000Y-124281309D01*
X115007685Y-124214270D01*
X115060489Y-124168515D01*
X115129647Y-124158571D01*
X115193203Y-124187596D01*
X115199681Y-124193628D01*
X116213181Y-125207128D01*
X116246666Y-125268451D01*
X116249500Y-125294809D01*
X116249500Y-126206534D01*
X116229815Y-126273573D01*
X116199812Y-126305800D01*
X116117452Y-126367455D01*
X116031206Y-126482664D01*
X116031202Y-126482671D01*
X115980910Y-126617513D01*
X115980909Y-126617517D01*
X115974500Y-126677127D01*
X115974500Y-126677134D01*
X115974500Y-126677135D01*
X115974500Y-127322870D01*
X115974501Y-127322876D01*
X115980908Y-127382483D01*
X116031202Y-127517328D01*
X116031206Y-127517335D01*
X116117452Y-127632544D01*
X116117455Y-127632547D01*
X116232664Y-127718793D01*
X116232671Y-127718797D01*
X116277618Y-127735561D01*
X116367517Y-127769091D01*
X116427127Y-127775500D01*
X116922872Y-127775499D01*
X116982483Y-127769091D01*
X117117331Y-127718796D01*
X117232546Y-127632546D01*
X117318796Y-127517331D01*
X117369091Y-127382483D01*
X117375500Y-127322873D01*
X117375500Y-127250000D01*
X117625000Y-127250000D01*
X117625000Y-127322844D01*
X117631401Y-127382372D01*
X117631403Y-127382379D01*
X117681645Y-127517086D01*
X117681649Y-127517093D01*
X117767809Y-127632187D01*
X117767812Y-127632190D01*
X117882906Y-127718350D01*
X117882913Y-127718354D01*
X118017624Y-127768598D01*
X118075000Y-127774765D01*
X118075000Y-127250000D01*
X118575000Y-127250000D01*
X118575000Y-127774765D01*
X118632375Y-127768598D01*
X118767086Y-127718354D01*
X118767093Y-127718350D01*
X118882187Y-127632190D01*
X118882190Y-127632187D01*
X118968350Y-127517093D01*
X118968354Y-127517086D01*
X119018596Y-127382379D01*
X119018598Y-127382372D01*
X119024999Y-127322844D01*
X119025000Y-127322827D01*
X119025000Y-127250000D01*
X118575000Y-127250000D01*
X118075000Y-127250000D01*
X117625000Y-127250000D01*
X117375500Y-127250000D01*
X117375499Y-126750000D01*
X117625000Y-126750000D01*
X118075000Y-126750000D01*
X118075000Y-126225233D01*
X118074999Y-126225232D01*
X118575000Y-126225232D01*
X118575000Y-126750000D01*
X119025000Y-126750000D01*
X119025000Y-126677172D01*
X119024999Y-126677155D01*
X119018598Y-126617627D01*
X119018596Y-126617620D01*
X118968354Y-126482913D01*
X118968350Y-126482906D01*
X118882190Y-126367812D01*
X118882187Y-126367809D01*
X118767093Y-126281649D01*
X118767086Y-126281645D01*
X118632380Y-126231403D01*
X118632373Y-126231401D01*
X118575000Y-126225232D01*
X118074999Y-126225232D01*
X118017626Y-126231401D01*
X118017619Y-126231403D01*
X117882913Y-126281645D01*
X117882906Y-126281649D01*
X117767812Y-126367809D01*
X117767809Y-126367812D01*
X117681649Y-126482906D01*
X117681645Y-126482913D01*
X117631403Y-126617620D01*
X117631401Y-126617627D01*
X117625000Y-126677155D01*
X117625000Y-126750000D01*
X117375499Y-126750000D01*
X117375499Y-126677128D01*
X117369091Y-126617517D01*
X117363147Y-126601581D01*
X117318797Y-126482671D01*
X117318793Y-126482664D01*
X117232547Y-126367455D01*
X117150188Y-126305800D01*
X117108318Y-126249866D01*
X117100500Y-126206534D01*
X117100500Y-125616700D01*
X117120185Y-125549661D01*
X117172989Y-125503906D01*
X117224500Y-125492700D01*
X117325192Y-125492700D01*
X117325193Y-125492700D01*
X117348160Y-125485236D01*
X117367076Y-125480695D01*
X117390926Y-125476919D01*
X117412436Y-125465957D01*
X117430414Y-125458510D01*
X117453381Y-125451049D01*
X117472918Y-125436853D01*
X117489506Y-125426688D01*
X117511020Y-125415728D01*
X117606328Y-125320420D01*
X120614929Y-122311817D01*
X120676252Y-122278333D01*
X120702610Y-122275499D01*
X120838100Y-122275499D01*
X120905139Y-122295184D01*
X120950894Y-122347988D01*
X120962100Y-122399499D01*
X120962100Y-124953291D01*
X120969561Y-124976257D01*
X120974102Y-124995168D01*
X120977881Y-125019026D01*
X120988844Y-125040543D01*
X120996287Y-125058514D01*
X121003747Y-125081473D01*
X121003748Y-125081475D01*
X121003749Y-125081476D01*
X121003750Y-125081479D01*
X121017947Y-125101019D01*
X121028108Y-125117603D01*
X121039069Y-125139116D01*
X121039071Y-125139118D01*
X121039072Y-125139119D01*
X121063046Y-125163093D01*
X121404271Y-125504319D01*
X121404272Y-125504320D01*
X121499580Y-125599628D01*
X121521099Y-125610592D01*
X121537678Y-125620751D01*
X121557219Y-125634949D01*
X121580181Y-125642409D01*
X121598154Y-125649853D01*
X121619674Y-125660819D01*
X121643524Y-125664595D01*
X121662445Y-125669139D01*
X121685403Y-125676599D01*
X121685404Y-125676599D01*
X121685407Y-125676600D01*
X121820193Y-125676601D01*
X121820196Y-125676600D01*
X124241407Y-125676600D01*
X124376193Y-125676600D01*
X124399160Y-125669136D01*
X124418076Y-125664595D01*
X124441926Y-125660819D01*
X124463436Y-125649857D01*
X124481414Y-125642410D01*
X124504381Y-125634949D01*
X124523918Y-125620753D01*
X124540506Y-125610588D01*
X124562020Y-125599628D01*
X124657328Y-125504320D01*
X125303807Y-124857840D01*
X125365128Y-124824357D01*
X125434819Y-124829341D01*
X125490753Y-124871212D01*
X125506840Y-124900031D01*
X125515638Y-124922342D01*
X125607077Y-125042922D01*
X125727656Y-125134360D01*
X125727657Y-125134360D01*
X125727658Y-125134361D01*
X125868436Y-125189877D01*
X125956898Y-125200500D01*
X127370614Y-125200500D01*
X127437653Y-125220185D01*
X127458295Y-125236819D01*
X127503281Y-125281805D01*
X127536766Y-125343128D01*
X127539600Y-125369486D01*
X127539600Y-128138812D01*
X127519915Y-128205851D01*
X127503281Y-128226493D01*
X127168894Y-128560879D01*
X127165852Y-128563819D01*
X127118958Y-128607616D01*
X127097606Y-128642727D01*
X127090470Y-128653211D01*
X127066026Y-128685448D01*
X127065639Y-128685958D01*
X127065636Y-128685963D01*
X127059055Y-128702652D01*
X127049653Y-128721583D01*
X127040327Y-128736919D01*
X127029242Y-128776481D01*
X127025198Y-128788508D01*
X127010122Y-128826740D01*
X127008288Y-128844584D01*
X127004342Y-128865348D01*
X126999501Y-128882628D01*
X126999500Y-128882637D01*
X126999500Y-128923718D01*
X126998850Y-128936398D01*
X126994648Y-128977270D01*
X126994648Y-128977275D01*
X126997697Y-128994956D01*
X126999500Y-129016024D01*
X126999500Y-129227213D01*
X126988934Y-129277299D01*
X126952416Y-129360003D01*
X126952415Y-129360007D01*
X126952415Y-129360012D01*
X126949500Y-129385134D01*
X126949500Y-130103893D01*
X126949501Y-130280999D01*
X126929817Y-130348038D01*
X126877013Y-130393793D01*
X126825501Y-130404999D01*
X126231000Y-130404999D01*
X126163961Y-130385314D01*
X126118206Y-130332510D01*
X126107000Y-130280999D01*
X126107000Y-130028999D01*
X126126685Y-129961960D01*
X126179489Y-129916205D01*
X126231000Y-129904999D01*
X126500000Y-129904999D01*
X126500000Y-129129998D01*
X126405215Y-129129999D01*
X126405191Y-129130001D01*
X126380130Y-129132907D01*
X126380126Y-129132908D01*
X126277525Y-129178210D01*
X126277520Y-129178213D01*
X126198214Y-129257519D01*
X126198211Y-129257524D01*
X126152910Y-129360121D01*
X126152910Y-129360123D01*
X126150000Y-129385204D01*
X126150000Y-129662134D01*
X126130315Y-129729173D01*
X126077511Y-129774928D01*
X126008353Y-129784872D01*
X125985046Y-129779176D01*
X125930000Y-129759915D01*
X125930000Y-130353888D01*
X125905543Y-130314389D01*
X125816038Y-130246798D01*
X125708160Y-130216104D01*
X125596479Y-130226453D01*
X125496078Y-130276447D01*
X125430000Y-130348929D01*
X125430000Y-129759915D01*
X125429999Y-129759915D01*
X125330698Y-129794662D01*
X125330694Y-129794664D01*
X125178051Y-129890576D01*
X125050577Y-130018050D01*
X124954663Y-130170697D01*
X124895122Y-130340857D01*
X124880000Y-130475068D01*
X124880000Y-130819999D01*
X125380000Y-130819999D01*
X125380000Y-131319999D01*
X124880000Y-131319999D01*
X124880000Y-131664929D01*
X124895121Y-131799139D01*
X124953000Y-131964545D01*
X124956561Y-132034324D01*
X124921832Y-132094952D01*
X124859839Y-132127179D01*
X124835958Y-132129500D01*
X123457610Y-132129500D01*
X123390571Y-132109815D01*
X123369929Y-132093181D01*
X123311818Y-132035070D01*
X123278333Y-131973747D01*
X123275499Y-131947389D01*
X123275499Y-131577129D01*
X123275498Y-131577123D01*
X123275497Y-131577116D01*
X123269091Y-131517517D01*
X123256094Y-131482671D01*
X123218797Y-131382671D01*
X123218793Y-131382664D01*
X123132547Y-131267455D01*
X123132544Y-131267452D01*
X123017335Y-131181206D01*
X123017328Y-131181202D01*
X122882486Y-131130910D01*
X122882485Y-131130909D01*
X122882483Y-131130909D01*
X122822873Y-131124500D01*
X122822863Y-131124500D01*
X122177129Y-131124500D01*
X122177123Y-131124501D01*
X122117516Y-131130908D01*
X121982671Y-131181202D01*
X121982664Y-131181206D01*
X121867455Y-131267452D01*
X121867452Y-131267455D01*
X121781206Y-131382664D01*
X121781202Y-131382671D01*
X121730909Y-131517516D01*
X121730295Y-131523226D01*
X121703555Y-131587776D01*
X121646161Y-131627622D01*
X121576335Y-131630113D01*
X121516248Y-131594458D01*
X121484975Y-131531978D01*
X121484067Y-131526151D01*
X121482930Y-131517517D01*
X121476443Y-131468238D01*
X121415935Y-131322159D01*
X121319681Y-131196718D01*
X121194240Y-131100464D01*
X121138160Y-131077235D01*
X121048161Y-131039956D01*
X121048159Y-131039955D01*
X120891400Y-131019318D01*
X120891398Y-131019318D01*
X120734638Y-131039955D01*
X120734636Y-131039956D01*
X120588556Y-131100464D01*
X120492884Y-131173876D01*
X120427714Y-131199070D01*
X120417398Y-131199500D01*
X118886989Y-131199500D01*
X118819950Y-131179815D01*
X118774195Y-131127011D01*
X118773607Y-131125704D01*
X118752206Y-131077235D01*
X118672765Y-130997794D01*
X118637303Y-130982136D01*
X118569992Y-130952415D01*
X118544865Y-130949500D01*
X117455143Y-130949500D01*
X117455117Y-130949502D01*
X117430012Y-130952413D01*
X117430008Y-130952415D01*
X117327235Y-130997793D01*
X117247795Y-131077233D01*
X117247794Y-131077234D01*
X117247794Y-131077235D01*
X117226443Y-131125588D01*
X117181360Y-131178962D01*
X117114574Y-131199490D01*
X117113011Y-131199500D01*
X112886989Y-131199500D01*
X112819950Y-131179815D01*
X112774195Y-131127011D01*
X112773607Y-131125704D01*
X112752206Y-131077235D01*
X112672765Y-130997794D01*
X112637303Y-130982136D01*
X112569992Y-130952415D01*
X112544865Y-130949500D01*
X111455143Y-130949500D01*
X111455117Y-130949502D01*
X111430012Y-130952413D01*
X111430008Y-130952415D01*
X111327235Y-130997793D01*
X111247794Y-131077234D01*
X111202415Y-131180006D01*
X111202415Y-131180008D01*
X111199500Y-131205131D01*
X111199500Y-132044856D01*
X111199502Y-132044882D01*
X111202413Y-132069987D01*
X111202415Y-132069991D01*
X111247793Y-132172764D01*
X111247794Y-132172765D01*
X111327235Y-132252206D01*
X111430009Y-132297585D01*
X111455135Y-132300500D01*
X112544864Y-132300499D01*
X112544879Y-132300497D01*
X112544882Y-132300497D01*
X112569987Y-132297586D01*
X112569988Y-132297585D01*
X112569991Y-132297585D01*
X112672765Y-132252206D01*
X112752206Y-132172765D01*
X112773556Y-132124411D01*
X112818640Y-132071038D01*
X112885426Y-132050510D01*
X112886989Y-132050500D01*
X117113011Y-132050500D01*
X117180050Y-132070185D01*
X117225805Y-132122989D01*
X117226392Y-132124295D01*
X117247794Y-132172765D01*
X117327235Y-132252206D01*
X117430009Y-132297585D01*
X117455135Y-132300500D01*
X118544864Y-132300499D01*
X118544879Y-132300497D01*
X118544882Y-132300497D01*
X118569987Y-132297586D01*
X118569988Y-132297585D01*
X118569991Y-132297585D01*
X118672765Y-132252206D01*
X118752206Y-132172765D01*
X118773556Y-132124411D01*
X118818640Y-132071038D01*
X118885426Y-132050510D01*
X118886989Y-132050500D01*
X120417398Y-132050500D01*
X120484437Y-132070185D01*
X120492884Y-132076124D01*
X120588556Y-132149535D01*
X120588557Y-132149535D01*
X120588558Y-132149536D01*
X120734637Y-132210044D01*
X120813018Y-132220363D01*
X120891398Y-132230682D01*
X120891399Y-132230682D01*
X120891400Y-132230682D01*
X120943653Y-132223802D01*
X121048161Y-132210044D01*
X121194240Y-132149536D01*
X121319681Y-132053282D01*
X121415935Y-131927841D01*
X121476443Y-131781762D01*
X121477561Y-131773263D01*
X121505825Y-131709371D01*
X121564148Y-131670898D01*
X121634013Y-131670065D01*
X121693238Y-131707135D01*
X121723019Y-131770340D01*
X121724500Y-131789450D01*
X121724500Y-132072869D01*
X121724501Y-132072876D01*
X121730908Y-132132483D01*
X121781202Y-132267328D01*
X121781206Y-132267335D01*
X121867452Y-132382544D01*
X121867455Y-132382547D01*
X121982664Y-132468793D01*
X121982671Y-132468797D01*
X122020511Y-132482910D01*
X122117517Y-132519091D01*
X122177127Y-132525500D01*
X122547389Y-132525499D01*
X122614428Y-132545183D01*
X122635070Y-132561818D01*
X122881471Y-132808219D01*
X122881472Y-132808220D01*
X122976780Y-132903528D01*
X122998296Y-132914491D01*
X123014878Y-132924653D01*
X123028082Y-132934246D01*
X123034419Y-132938850D01*
X123057383Y-132946311D01*
X123075362Y-132953757D01*
X123096874Y-132964719D01*
X123120721Y-132968495D01*
X123139643Y-132973039D01*
X123162601Y-132980499D01*
X123162607Y-132980500D01*
X127505892Y-132980500D01*
X127505893Y-132980500D01*
X127528860Y-132973036D01*
X127547776Y-132968495D01*
X127571626Y-132964719D01*
X127593136Y-132953757D01*
X127611114Y-132946310D01*
X127634081Y-132938849D01*
X127653618Y-132924653D01*
X127670206Y-132914488D01*
X127691720Y-132903528D01*
X127787028Y-132808220D01*
X127787028Y-132808219D01*
X128532992Y-132062253D01*
X128594313Y-132028770D01*
X128664004Y-132033754D01*
X128719938Y-132075626D01*
X128722823Y-132079999D01*
X128725463Y-132083440D01*
X128725464Y-132083441D01*
X128821718Y-132208882D01*
X128947159Y-132305136D01*
X129093238Y-132365644D01*
X129171619Y-132375963D01*
X129249999Y-132386282D01*
X129250000Y-132386282D01*
X129250001Y-132386282D01*
X129302254Y-132379402D01*
X129406762Y-132365644D01*
X129552841Y-132305136D01*
X129678282Y-132208882D01*
X129725304Y-132147600D01*
X129781730Y-132106399D01*
X129851476Y-132102244D01*
X129911360Y-132135407D01*
X131670172Y-133894219D01*
X131765480Y-133989527D01*
X131786994Y-134000489D01*
X131803582Y-134010654D01*
X131823120Y-134024849D01*
X131841081Y-134030685D01*
X131846083Y-134032310D01*
X131864059Y-134039755D01*
X131885574Y-134050718D01*
X131909428Y-134054495D01*
X131928339Y-134059035D01*
X131951307Y-134066499D01*
X131985212Y-134066499D01*
X133792000Y-134066499D01*
X133859039Y-134086184D01*
X133904794Y-134138988D01*
X133914738Y-134208146D01*
X133885713Y-134271702D01*
X133857972Y-134295493D01*
X133818051Y-134320576D01*
X133690577Y-134448050D01*
X133594663Y-134600697D01*
X133535122Y-134770857D01*
X133520000Y-134905068D01*
X133520000Y-134999999D01*
X134020000Y-134999999D01*
X134020000Y-135499999D01*
X133520000Y-135499999D01*
X133520000Y-135594929D01*
X133535122Y-135729140D01*
X133594663Y-135899300D01*
X133690577Y-136051947D01*
X133818051Y-136179421D01*
X133970697Y-136275335D01*
X134070000Y-136310081D01*
X134070000Y-135716109D01*
X134094457Y-135755609D01*
X134183962Y-135823200D01*
X134291840Y-135853894D01*
X134403521Y-135843545D01*
X134503922Y-135793551D01*
X134570000Y-135721068D01*
X134570000Y-136310080D01*
X134669302Y-136275335D01*
X134821948Y-136179421D01*
X134949422Y-136051947D01*
X135045336Y-135899300D01*
X135104877Y-135729140D01*
X135116611Y-135625000D01*
X138700001Y-135625000D01*
X138700001Y-135794785D01*
X138700002Y-135794808D01*
X138702908Y-135819869D01*
X138702909Y-135819873D01*
X138748211Y-135922474D01*
X138748214Y-135922479D01*
X138827520Y-136001785D01*
X138827525Y-136001788D01*
X138930123Y-136047089D01*
X138955206Y-136049999D01*
X139249999Y-136049999D01*
X139250000Y-136049998D01*
X139250000Y-135625000D01*
X139750000Y-135625000D01*
X139750000Y-136049999D01*
X140044786Y-136049999D01*
X140044808Y-136049997D01*
X140069869Y-136047091D01*
X140069873Y-136047090D01*
X140172474Y-136001788D01*
X140172479Y-136001785D01*
X140251785Y-135922479D01*
X140251788Y-135922474D01*
X140297089Y-135819877D01*
X140297089Y-135819875D01*
X140299999Y-135794794D01*
X140300000Y-135794791D01*
X140300000Y-135625000D01*
X144700001Y-135625000D01*
X144700001Y-135794785D01*
X144700002Y-135794808D01*
X144702908Y-135819869D01*
X144702909Y-135819873D01*
X144748211Y-135922474D01*
X144748214Y-135922479D01*
X144827520Y-136001785D01*
X144827525Y-136001788D01*
X144930123Y-136047089D01*
X144955206Y-136049999D01*
X145249999Y-136049999D01*
X145250000Y-136049998D01*
X145250000Y-135625000D01*
X145750000Y-135625000D01*
X145750000Y-136049999D01*
X146044786Y-136049999D01*
X146044808Y-136049997D01*
X146069869Y-136047091D01*
X146069873Y-136047090D01*
X146172474Y-136001788D01*
X146172479Y-136001785D01*
X146251785Y-135922479D01*
X146251788Y-135922474D01*
X146297089Y-135819877D01*
X146297089Y-135819875D01*
X146299999Y-135794794D01*
X146300000Y-135794791D01*
X146300000Y-135625000D01*
X145750000Y-135625000D01*
X145250000Y-135625000D01*
X144700001Y-135625000D01*
X140300000Y-135625000D01*
X139750000Y-135625000D01*
X139250000Y-135625000D01*
X138700001Y-135625000D01*
X135116611Y-135625000D01*
X135119999Y-135594929D01*
X135120000Y-135594929D01*
X135120000Y-135499999D01*
X134620000Y-135499999D01*
X134620000Y-135125000D01*
X138700000Y-135125000D01*
X139250000Y-135125000D01*
X139250000Y-134700000D01*
X139750000Y-134700000D01*
X139750000Y-135125000D01*
X140299999Y-135125000D01*
X144700000Y-135125000D01*
X145250000Y-135125000D01*
X145250000Y-134700000D01*
X145750000Y-134700000D01*
X145750000Y-135125000D01*
X146299999Y-135125000D01*
X146299999Y-134955214D01*
X146299997Y-134955191D01*
X146297091Y-134930130D01*
X146297090Y-134930126D01*
X146261712Y-134850000D01*
X147975000Y-134850000D01*
X147975000Y-134896855D01*
X147985010Y-134980224D01*
X148037325Y-135112886D01*
X148123489Y-135226510D01*
X148237113Y-135312674D01*
X148369775Y-135364989D01*
X148453144Y-135375000D01*
X148462500Y-135375000D01*
X148462500Y-134850000D01*
X147975000Y-134850000D01*
X146261712Y-134850000D01*
X146251788Y-134827525D01*
X146251785Y-134827520D01*
X146172479Y-134748214D01*
X146172474Y-134748211D01*
X146069876Y-134702910D01*
X146044794Y-134700000D01*
X145750000Y-134700000D01*
X145250000Y-134700000D01*
X144955214Y-134700000D01*
X144955191Y-134700002D01*
X144930130Y-134702908D01*
X144930126Y-134702909D01*
X144827525Y-134748211D01*
X144827520Y-134748214D01*
X144748214Y-134827520D01*
X144748211Y-134827525D01*
X144702910Y-134930122D01*
X144702910Y-134930124D01*
X144700000Y-134955205D01*
X144700000Y-135125000D01*
X140299999Y-135125000D01*
X140299999Y-134955214D01*
X140299997Y-134955191D01*
X140297091Y-134930130D01*
X140297090Y-134930126D01*
X140251788Y-134827525D01*
X140251785Y-134827520D01*
X140172479Y-134748214D01*
X140172474Y-134748211D01*
X140069876Y-134702910D01*
X140044794Y-134700000D01*
X139750000Y-134700000D01*
X139250000Y-134700000D01*
X138955214Y-134700000D01*
X138955191Y-134700002D01*
X138930130Y-134702908D01*
X138930126Y-134702909D01*
X138827525Y-134748211D01*
X138827520Y-134748214D01*
X138748214Y-134827520D01*
X138748211Y-134827525D01*
X138702910Y-134930122D01*
X138702910Y-134930124D01*
X138700000Y-134955205D01*
X138700000Y-135125000D01*
X134620000Y-135125000D01*
X134620000Y-134999999D01*
X135120000Y-134999999D01*
X135120000Y-134905069D01*
X135119999Y-134905068D01*
X135104877Y-134770857D01*
X135045336Y-134600697D01*
X134949422Y-134448050D01*
X134821948Y-134320576D01*
X134782028Y-134295493D01*
X134735737Y-134243158D01*
X134725089Y-134174105D01*
X134753464Y-134110256D01*
X134811853Y-134071884D01*
X134848000Y-134066499D01*
X147864511Y-134066499D01*
X147931550Y-134086184D01*
X147977305Y-134138988D01*
X147987249Y-134208146D01*
X147985106Y-134218983D01*
X147975000Y-134303144D01*
X147975000Y-134350000D01*
X148838500Y-134350000D01*
X148905539Y-134369685D01*
X148951294Y-134422489D01*
X148962500Y-134474000D01*
X148962500Y-135375000D01*
X148971856Y-135375000D01*
X149063120Y-135364041D01*
X149063386Y-135366258D01*
X149121741Y-135368468D01*
X149170009Y-135398357D01*
X149185446Y-135413794D01*
X149499972Y-135728320D01*
X149595280Y-135823628D01*
X149616800Y-135834593D01*
X149633375Y-135844749D01*
X149652919Y-135858949D01*
X149675881Y-135866409D01*
X149693854Y-135873853D01*
X149715374Y-135884819D01*
X149739224Y-135888595D01*
X149758145Y-135893139D01*
X149777106Y-135899300D01*
X149781107Y-135900600D01*
X149781108Y-135900600D01*
X150743492Y-135900600D01*
X150743493Y-135900600D01*
X150766460Y-135893136D01*
X150785376Y-135888595D01*
X150809226Y-135884819D01*
X150830736Y-135873857D01*
X150848714Y-135866410D01*
X150871681Y-135858949D01*
X150891218Y-135844753D01*
X150907806Y-135834588D01*
X150929320Y-135823628D01*
X151024628Y-135728320D01*
X151024628Y-135728319D01*
X152185184Y-134567763D01*
X157145787Y-134567763D01*
X157175413Y-134837013D01*
X157175415Y-134837024D01*
X157236144Y-135069314D01*
X157243928Y-135099088D01*
X157349870Y-135348390D01*
X157421998Y-135466575D01*
X157490979Y-135579605D01*
X157490986Y-135579615D01*
X157664253Y-135787819D01*
X157664259Y-135787824D01*
X157775861Y-135887819D01*
X157865998Y-135968582D01*
X158091910Y-136118044D01*
X158337176Y-136233020D01*
X158337183Y-136233022D01*
X158337185Y-136233023D01*
X158596557Y-136311057D01*
X158596564Y-136311058D01*
X158596569Y-136311060D01*
X158864561Y-136350500D01*
X158864566Y-136350500D01*
X159067629Y-136350500D01*
X159067631Y-136350500D01*
X159067636Y-136350499D01*
X159067648Y-136350499D01*
X159105191Y-136347750D01*
X159270156Y-136335677D01*
X159385065Y-136310080D01*
X159534546Y-136276782D01*
X159534548Y-136276781D01*
X159534553Y-136276780D01*
X159787558Y-136180014D01*
X160023777Y-136047441D01*
X160238177Y-135881888D01*
X160426186Y-135686881D01*
X160583799Y-135466579D01*
X160707227Y-135226510D01*
X160707649Y-135225690D01*
X160707651Y-135225684D01*
X160707656Y-135225675D01*
X160795118Y-134969305D01*
X160844319Y-134702933D01*
X160854212Y-134432235D01*
X160824586Y-134162982D01*
X160756072Y-133900912D01*
X160650130Y-133651610D01*
X160509018Y-133420390D01*
X160419747Y-133313119D01*
X160335746Y-133212180D01*
X160335740Y-133212175D01*
X160134002Y-133031418D01*
X159908092Y-132881957D01*
X159908090Y-132881956D01*
X159662824Y-132766980D01*
X159662819Y-132766978D01*
X159662814Y-132766976D01*
X159403442Y-132688942D01*
X159403428Y-132688939D01*
X159287791Y-132671921D01*
X159135439Y-132649500D01*
X158932369Y-132649500D01*
X158932351Y-132649500D01*
X158729844Y-132664323D01*
X158729831Y-132664325D01*
X158465453Y-132723217D01*
X158465446Y-132723220D01*
X158212439Y-132819987D01*
X157976226Y-132952557D01*
X157976224Y-132952558D01*
X157976223Y-132952559D01*
X157940039Y-132980499D01*
X157761822Y-133118112D01*
X157573822Y-133313109D01*
X157573816Y-133313116D01*
X157416202Y-133533419D01*
X157416199Y-133533424D01*
X157292350Y-133774309D01*
X157292343Y-133774327D01*
X157204884Y-134030685D01*
X157204881Y-134030699D01*
X157200486Y-134054494D01*
X157165639Y-134243158D01*
X157155681Y-134297068D01*
X157155680Y-134297075D01*
X157145787Y-134567763D01*
X152185184Y-134567763D01*
X153767318Y-132985629D01*
X153767320Y-132985628D01*
X153862628Y-132890320D01*
X153873593Y-132868798D01*
X153883758Y-132852212D01*
X153892466Y-132840227D01*
X153903691Y-132824780D01*
X153905654Y-132826206D01*
X153944053Y-132785543D01*
X154011873Y-132768741D01*
X154019811Y-132769337D01*
X154077127Y-132775500D01*
X154572872Y-132775499D01*
X154632483Y-132769091D01*
X154767331Y-132718796D01*
X154882546Y-132632546D01*
X154968796Y-132517331D01*
X154972960Y-132506165D01*
X155014829Y-132450234D01*
X155080293Y-132425816D01*
X155089141Y-132425500D01*
X157694092Y-132425500D01*
X157694093Y-132425500D01*
X157717060Y-132418036D01*
X157735976Y-132413495D01*
X157759826Y-132409719D01*
X157781336Y-132398757D01*
X157799314Y-132391310D01*
X157822281Y-132383849D01*
X157841812Y-132369658D01*
X157858398Y-132359493D01*
X157879920Y-132348528D01*
X157975228Y-132253220D01*
X157975228Y-132253218D01*
X157985432Y-132243015D01*
X157985435Y-132243010D01*
X160124554Y-130103893D01*
X160148528Y-130079919D01*
X160159488Y-130058405D01*
X160169653Y-130041817D01*
X160183849Y-130022280D01*
X160191310Y-129999313D01*
X160198759Y-129981333D01*
X160209718Y-129959827D01*
X160209718Y-129959826D01*
X160209719Y-129959825D01*
X160213495Y-129935975D01*
X160218036Y-129917059D01*
X160225500Y-129894092D01*
X160225500Y-129894090D01*
X160228517Y-129884807D01*
X160231143Y-129885660D01*
X160254597Y-129836178D01*
X160313906Y-129799243D01*
X160314594Y-129799053D01*
X160319983Y-129797585D01*
X160319991Y-129797585D01*
X160422765Y-129752206D01*
X160462319Y-129712652D01*
X160523642Y-129679167D01*
X160593334Y-129684151D01*
X160637681Y-129712652D01*
X160677235Y-129752206D01*
X160780009Y-129797585D01*
X160805135Y-129800500D01*
X161794864Y-129800499D01*
X161794879Y-129800497D01*
X161794882Y-129800497D01*
X161819987Y-129797586D01*
X161819988Y-129797585D01*
X161819991Y-129797585D01*
X161922765Y-129752206D01*
X161962319Y-129712652D01*
X162023642Y-129679167D01*
X162093334Y-129684151D01*
X162137681Y-129712652D01*
X162177235Y-129752206D01*
X162280009Y-129797585D01*
X162305135Y-129800500D01*
X163294864Y-129800499D01*
X163294879Y-129800497D01*
X163294882Y-129800497D01*
X163319987Y-129797586D01*
X163319988Y-129797585D01*
X163319991Y-129797585D01*
X163422765Y-129752206D01*
X163502206Y-129672765D01*
X163512067Y-129650431D01*
X163557151Y-129597058D01*
X163623937Y-129576530D01*
X163691219Y-129595368D01*
X163737636Y-129647591D01*
X163749500Y-129700520D01*
X163749500Y-135995572D01*
X163749184Y-136004418D01*
X163732325Y-136240135D01*
X163729807Y-136257647D01*
X163680519Y-136484220D01*
X163675535Y-136501196D01*
X163594498Y-136718462D01*
X163587148Y-136734555D01*
X163476022Y-136938068D01*
X163466457Y-136952951D01*
X163327498Y-137138579D01*
X163315912Y-137151950D01*
X163151950Y-137315912D01*
X163138579Y-137327498D01*
X162952951Y-137466457D01*
X162938068Y-137476022D01*
X162734555Y-137587148D01*
X162718462Y-137594498D01*
X162501196Y-137675535D01*
X162484220Y-137680519D01*
X162257647Y-137729807D01*
X162240135Y-137732325D01*
X162004418Y-137749184D01*
X161995572Y-137749500D01*
X102004428Y-137749500D01*
X101995582Y-137749184D01*
X101759864Y-137732325D01*
X101742352Y-137729807D01*
X101515779Y-137680519D01*
X101498803Y-137675535D01*
X101281537Y-137594498D01*
X101265444Y-137587148D01*
X101061931Y-137476022D01*
X101047048Y-137466457D01*
X100861420Y-137327498D01*
X100848049Y-137315912D01*
X100684087Y-137151950D01*
X100672501Y-137138579D01*
X100533542Y-136952951D01*
X100523977Y-136938068D01*
X100412851Y-136734555D01*
X100405501Y-136718462D01*
X100375740Y-136638672D01*
X100324461Y-136501188D01*
X100319482Y-136484229D01*
X100270191Y-136257641D01*
X100267674Y-136240135D01*
X100267165Y-136233023D01*
X100250816Y-136004418D01*
X100250500Y-135995572D01*
X100250500Y-134667763D01*
X102145787Y-134667763D01*
X102175413Y-134937013D01*
X102175415Y-134937024D01*
X102243926Y-135199082D01*
X102243928Y-135199088D01*
X102349870Y-135448390D01*
X102381367Y-135499999D01*
X102490979Y-135679605D01*
X102490986Y-135679615D01*
X102664253Y-135887819D01*
X102664259Y-135887824D01*
X102825649Y-136032429D01*
X102865998Y-136068582D01*
X103091910Y-136218044D01*
X103337176Y-136333020D01*
X103337183Y-136333022D01*
X103337185Y-136333023D01*
X103596557Y-136411057D01*
X103596564Y-136411058D01*
X103596569Y-136411060D01*
X103864561Y-136450500D01*
X103864566Y-136450500D01*
X104067629Y-136450500D01*
X104067631Y-136450500D01*
X104067636Y-136450499D01*
X104067648Y-136450499D01*
X104105191Y-136447750D01*
X104270156Y-136435677D01*
X104401562Y-136406405D01*
X104534546Y-136376782D01*
X104534548Y-136376781D01*
X104534553Y-136376780D01*
X104787558Y-136280014D01*
X105023777Y-136147441D01*
X105238177Y-135981888D01*
X105426186Y-135786881D01*
X105542002Y-135625000D01*
X111200001Y-135625000D01*
X111200001Y-135794785D01*
X111200002Y-135794808D01*
X111202908Y-135819869D01*
X111202909Y-135819873D01*
X111248211Y-135922474D01*
X111248214Y-135922479D01*
X111327520Y-136001785D01*
X111327525Y-136001788D01*
X111430123Y-136047089D01*
X111455206Y-136049999D01*
X111749999Y-136049999D01*
X111750000Y-136049998D01*
X111750000Y-135625000D01*
X112250000Y-135625000D01*
X112250000Y-136049999D01*
X112544786Y-136049999D01*
X112544808Y-136049997D01*
X112569869Y-136047091D01*
X112569873Y-136047090D01*
X112672474Y-136001788D01*
X112672479Y-136001785D01*
X112751785Y-135922479D01*
X112751788Y-135922474D01*
X112797089Y-135819877D01*
X112797089Y-135819875D01*
X112799999Y-135794794D01*
X112800000Y-135794791D01*
X112800000Y-135625000D01*
X117200001Y-135625000D01*
X117200001Y-135794785D01*
X117200002Y-135794808D01*
X117202908Y-135819869D01*
X117202909Y-135819873D01*
X117248211Y-135922474D01*
X117248214Y-135922479D01*
X117327520Y-136001785D01*
X117327525Y-136001788D01*
X117430123Y-136047089D01*
X117455206Y-136049999D01*
X117749999Y-136049999D01*
X117750000Y-136049998D01*
X117750000Y-135625000D01*
X118250000Y-135625000D01*
X118250000Y-136049999D01*
X118544786Y-136049999D01*
X118544808Y-136049997D01*
X118569869Y-136047091D01*
X118569873Y-136047090D01*
X118672474Y-136001788D01*
X118672479Y-136001785D01*
X118751785Y-135922479D01*
X118751788Y-135922474D01*
X118797089Y-135819877D01*
X118797089Y-135819875D01*
X118799999Y-135794794D01*
X118800000Y-135794791D01*
X118800000Y-135625000D01*
X118250000Y-135625000D01*
X117750000Y-135625000D01*
X117200001Y-135625000D01*
X112800000Y-135625000D01*
X112250000Y-135625000D01*
X111750000Y-135625000D01*
X111200001Y-135625000D01*
X105542002Y-135625000D01*
X105563516Y-135594929D01*
X124880000Y-135594929D01*
X124895122Y-135729140D01*
X124954663Y-135899300D01*
X125050577Y-136051947D01*
X125178051Y-136179421D01*
X125330697Y-136275335D01*
X125430000Y-136310081D01*
X125430000Y-135716109D01*
X125454457Y-135755609D01*
X125543962Y-135823200D01*
X125651840Y-135853894D01*
X125763521Y-135843545D01*
X125863922Y-135793551D01*
X125930000Y-135721068D01*
X125930000Y-136310080D01*
X126029302Y-136275335D01*
X126181948Y-136179421D01*
X126309422Y-136051947D01*
X126405336Y-135899300D01*
X126464877Y-135729140D01*
X126479999Y-135594929D01*
X126480000Y-135594929D01*
X126480000Y-135499999D01*
X125980000Y-135499999D01*
X125980000Y-134999999D01*
X126480000Y-134999999D01*
X126480000Y-134905069D01*
X126479999Y-134905068D01*
X126464877Y-134770857D01*
X126405336Y-134600697D01*
X126309422Y-134448050D01*
X126181948Y-134320576D01*
X126029305Y-134224664D01*
X126029301Y-134224662D01*
X125930000Y-134189915D01*
X125930000Y-134783888D01*
X125905543Y-134744389D01*
X125816038Y-134676798D01*
X125708160Y-134646104D01*
X125596479Y-134656453D01*
X125496078Y-134706447D01*
X125430000Y-134778929D01*
X125430000Y-134189915D01*
X125429999Y-134189915D01*
X125330698Y-134224662D01*
X125330694Y-134224664D01*
X125178051Y-134320576D01*
X125050577Y-134448050D01*
X124954663Y-134600697D01*
X124895122Y-134770857D01*
X124880000Y-134905068D01*
X124880000Y-134999999D01*
X125380000Y-134999999D01*
X125380000Y-135499999D01*
X124880000Y-135499999D01*
X124880000Y-135594929D01*
X105563516Y-135594929D01*
X105583799Y-135566579D01*
X105674677Y-135389820D01*
X105707649Y-135325690D01*
X105707651Y-135325684D01*
X105707656Y-135325675D01*
X105776117Y-135125000D01*
X111200000Y-135125000D01*
X111750000Y-135125000D01*
X111750000Y-134700000D01*
X112250000Y-134700000D01*
X112250000Y-135125000D01*
X112799999Y-135125000D01*
X117200000Y-135125000D01*
X117750000Y-135125000D01*
X117750000Y-134700000D01*
X118250000Y-134700000D01*
X118250000Y-135125000D01*
X118799999Y-135125000D01*
X118799999Y-134955214D01*
X118799997Y-134955191D01*
X118797091Y-134930130D01*
X118797090Y-134930126D01*
X118751788Y-134827525D01*
X118751785Y-134827520D01*
X118672479Y-134748214D01*
X118672474Y-134748211D01*
X118569876Y-134702910D01*
X118544794Y-134700000D01*
X118250000Y-134700000D01*
X117750000Y-134700000D01*
X117455214Y-134700000D01*
X117455191Y-134700002D01*
X117430130Y-134702908D01*
X117430126Y-134702909D01*
X117327525Y-134748211D01*
X117327520Y-134748214D01*
X117248214Y-134827520D01*
X117248211Y-134827525D01*
X117202910Y-134930122D01*
X117202910Y-134930124D01*
X117200000Y-134955205D01*
X117200000Y-135125000D01*
X112799999Y-135125000D01*
X112799999Y-134955214D01*
X112799997Y-134955191D01*
X112797091Y-134930130D01*
X112797090Y-134930126D01*
X112751788Y-134827525D01*
X112751785Y-134827520D01*
X112672479Y-134748214D01*
X112672474Y-134748211D01*
X112569876Y-134702910D01*
X112544794Y-134700000D01*
X112250000Y-134700000D01*
X111750000Y-134700000D01*
X111455214Y-134700000D01*
X111455191Y-134700002D01*
X111430130Y-134702908D01*
X111430126Y-134702909D01*
X111327525Y-134748211D01*
X111327520Y-134748214D01*
X111248214Y-134827520D01*
X111248211Y-134827525D01*
X111202910Y-134930122D01*
X111202910Y-134930124D01*
X111200000Y-134955205D01*
X111200000Y-135125000D01*
X105776117Y-135125000D01*
X105795118Y-135069305D01*
X105844319Y-134802933D01*
X105854212Y-134532235D01*
X105824586Y-134262982D01*
X105756072Y-134000912D01*
X105650130Y-133751610D01*
X105509018Y-133520390D01*
X105419747Y-133413119D01*
X105335746Y-133312180D01*
X105335740Y-133312175D01*
X105134002Y-133131418D01*
X104908092Y-132981957D01*
X104847938Y-132953758D01*
X104662824Y-132866980D01*
X104662819Y-132866978D01*
X104662814Y-132866976D01*
X104403442Y-132788942D01*
X104403428Y-132788939D01*
X104287791Y-132771921D01*
X104135439Y-132749500D01*
X103932369Y-132749500D01*
X103932351Y-132749500D01*
X103729844Y-132764323D01*
X103729831Y-132764325D01*
X103465453Y-132823217D01*
X103465446Y-132823220D01*
X103212439Y-132919987D01*
X102976226Y-133052557D01*
X102761822Y-133218112D01*
X102573822Y-133413109D01*
X102573816Y-133413116D01*
X102416202Y-133633419D01*
X102416199Y-133633424D01*
X102292350Y-133874309D01*
X102292343Y-133874327D01*
X102204884Y-134130685D01*
X102204881Y-134130699D01*
X102187525Y-134224664D01*
X102169810Y-134320576D01*
X102155681Y-134397068D01*
X102155680Y-134397075D01*
X102145787Y-134667763D01*
X100250500Y-134667763D01*
X100250500Y-130425000D01*
X121725234Y-130425000D01*
X121731401Y-130482375D01*
X121781645Y-130617086D01*
X121781649Y-130617093D01*
X121867809Y-130732187D01*
X121867812Y-130732190D01*
X121982906Y-130818350D01*
X121982913Y-130818354D01*
X122117620Y-130868596D01*
X122117627Y-130868598D01*
X122177155Y-130874999D01*
X122177172Y-130875000D01*
X122250000Y-130875000D01*
X122250000Y-130425000D01*
X122750000Y-130425000D01*
X122750000Y-130875000D01*
X122822828Y-130875000D01*
X122822844Y-130874999D01*
X122882372Y-130868598D01*
X122882379Y-130868596D01*
X123017086Y-130818354D01*
X123017093Y-130818350D01*
X123132187Y-130732190D01*
X123132190Y-130732187D01*
X123218350Y-130617093D01*
X123218354Y-130617086D01*
X123268598Y-130482375D01*
X123274766Y-130425000D01*
X122750000Y-130425000D01*
X122250000Y-130425000D01*
X121725234Y-130425000D01*
X100250500Y-130425000D01*
X100250500Y-129925000D01*
X121725234Y-129925000D01*
X122250000Y-129925000D01*
X122250000Y-129475000D01*
X122750000Y-129475000D01*
X122750000Y-129925000D01*
X123274765Y-129925000D01*
X123268598Y-129867624D01*
X123218354Y-129732913D01*
X123218350Y-129732906D01*
X123132190Y-129617812D01*
X123132187Y-129617809D01*
X123017093Y-129531649D01*
X123017086Y-129531645D01*
X122882379Y-129481403D01*
X122882372Y-129481401D01*
X122822844Y-129475000D01*
X122750000Y-129475000D01*
X122250000Y-129475000D01*
X122177155Y-129475000D01*
X122117627Y-129481401D01*
X122117620Y-129481403D01*
X121982913Y-129531645D01*
X121982906Y-129531649D01*
X121867812Y-129617809D01*
X121867809Y-129617812D01*
X121781649Y-129732906D01*
X121781645Y-129732913D01*
X121731401Y-129867624D01*
X121725234Y-129925000D01*
X100250500Y-129925000D01*
X100250500Y-125200000D01*
X111033238Y-125200000D01*
X111072653Y-125312645D01*
X111153207Y-125421792D01*
X111262354Y-125502346D01*
X111390397Y-125547149D01*
X111420792Y-125549999D01*
X111812499Y-125549999D01*
X111812500Y-125549998D01*
X111812500Y-125200000D01*
X111033238Y-125200000D01*
X100250500Y-125200000D01*
X100250500Y-124700000D01*
X111033238Y-124700000D01*
X111812500Y-124700000D01*
X111812500Y-124350000D01*
X111420803Y-124350000D01*
X111390393Y-124352851D01*
X111262354Y-124397653D01*
X111153207Y-124478207D01*
X111072653Y-124587354D01*
X111033238Y-124700000D01*
X100250500Y-124700000D01*
X100250500Y-102004427D01*
X100250816Y-101995581D01*
X100260236Y-101863870D01*
X100267674Y-101759857D01*
X100270190Y-101742360D01*
X100319483Y-101515766D01*
X100324460Y-101498815D01*
X100405501Y-101281536D01*
X100412851Y-101265444D01*
X100517017Y-101074678D01*
X100523981Y-101061923D01*
X100533537Y-101047054D01*
X100672506Y-100861413D01*
X100684080Y-100848056D01*
X100848056Y-100684080D01*
X100861413Y-100672506D01*
X101047054Y-100533537D01*
X101061923Y-100523981D01*
X101265444Y-100412850D01*
X101281537Y-100405501D01*
X101498815Y-100324460D01*
X101515766Y-100319483D01*
X101742360Y-100270190D01*
X101759857Y-100267674D01*
X101995582Y-100250816D01*
X102004428Y-100250500D01*
X102044170Y-100250500D01*
X161955830Y-100250500D01*
X161995572Y-100250500D01*
X162004418Y-100250816D01*
G37*
%TD.AperFunction*%
%TA.AperFunction,Conductor*%
G36*
X131608152Y-104068985D02*
G01*
X131628794Y-104085619D01*
X132489792Y-104946617D01*
X133271421Y-105728245D01*
X133304906Y-105789568D01*
X133299922Y-105859260D01*
X133271422Y-105903607D01*
X133197793Y-105977236D01*
X133152415Y-106080006D01*
X133152415Y-106080008D01*
X133149500Y-106105131D01*
X133149500Y-109894856D01*
X133149502Y-109894882D01*
X133152413Y-109919987D01*
X133152415Y-109919991D01*
X133197793Y-110022764D01*
X133277235Y-110102206D01*
X133372032Y-110144063D01*
X133425408Y-110189148D01*
X133445936Y-110255935D01*
X133445657Y-110265956D01*
X133445618Y-110266514D01*
X133445619Y-110266521D01*
X133456327Y-110318055D01*
X133457765Y-110326395D01*
X133464929Y-110378518D01*
X133464930Y-110378520D01*
X133467451Y-110384324D01*
X133475119Y-110408483D01*
X133476408Y-110414685D01*
X133476409Y-110414687D01*
X133500620Y-110461414D01*
X133504255Y-110469058D01*
X133525218Y-110517319D01*
X133529205Y-110522219D01*
X133543115Y-110543424D01*
X133546029Y-110549047D01*
X133581948Y-110587507D01*
X133587512Y-110593888D01*
X133618961Y-110632544D01*
X133620722Y-110634708D01*
X133625887Y-110638353D01*
X133645004Y-110655023D01*
X133649320Y-110659644D01*
X133694270Y-110686979D01*
X133701351Y-110691623D01*
X133744351Y-110721976D01*
X133744352Y-110721976D01*
X133744353Y-110721977D01*
X133750313Y-110724095D01*
X133773223Y-110734991D01*
X133778618Y-110738272D01*
X133829288Y-110752469D01*
X133837339Y-110755024D01*
X133886944Y-110772654D01*
X133893250Y-110773085D01*
X133918254Y-110777396D01*
X133924334Y-110779100D01*
X133924335Y-110779100D01*
X133976945Y-110779100D01*
X133985407Y-110779389D01*
X134037919Y-110782981D01*
X134037919Y-110782980D01*
X134037921Y-110782981D01*
X134044115Y-110781693D01*
X134069344Y-110779100D01*
X135709878Y-110779100D01*
X135714110Y-110779172D01*
X135716074Y-110779239D01*
X135778226Y-110781362D01*
X135818155Y-110771630D01*
X135830592Y-110769267D01*
X135871320Y-110763670D01*
X135887783Y-110756518D01*
X135907816Y-110749781D01*
X135925252Y-110745533D01*
X135961095Y-110725378D01*
X135972415Y-110719757D01*
X136010120Y-110703380D01*
X136024032Y-110692060D01*
X136041523Y-110680157D01*
X136057159Y-110671366D01*
X136086222Y-110642301D01*
X136095629Y-110633812D01*
X136127508Y-110607878D01*
X136137856Y-110593216D01*
X136151474Y-110577049D01*
X136941705Y-109786819D01*
X137003028Y-109753334D01*
X137029386Y-109750500D01*
X137518097Y-109750500D01*
X137518102Y-109750500D01*
X137606564Y-109739877D01*
X137747342Y-109684361D01*
X137867922Y-109592922D01*
X137900793Y-109549574D01*
X137956985Y-109508052D01*
X137999597Y-109500500D01*
X138500403Y-109500500D01*
X138567442Y-109520185D01*
X138599206Y-109549574D01*
X138599908Y-109550500D01*
X138632077Y-109592922D01*
X138752656Y-109684360D01*
X138752657Y-109684360D01*
X138752658Y-109684361D01*
X138893436Y-109739877D01*
X138981898Y-109750500D01*
X139470613Y-109750500D01*
X139537652Y-109770185D01*
X139558294Y-109786819D01*
X140152578Y-110381102D01*
X140155521Y-110384147D01*
X140199317Y-110431041D01*
X140199317Y-110431042D01*
X140199319Y-110431043D01*
X140199320Y-110431044D01*
X140234439Y-110452399D01*
X140244913Y-110459529D01*
X140277658Y-110484361D01*
X140294353Y-110490944D01*
X140313290Y-110500351D01*
X140328618Y-110509672D01*
X140350436Y-110515785D01*
X140368183Y-110520758D01*
X140380213Y-110524803D01*
X140418436Y-110539876D01*
X140436287Y-110541711D01*
X140457052Y-110545657D01*
X140474335Y-110550500D01*
X140515418Y-110550500D01*
X140528098Y-110551150D01*
X140531178Y-110551466D01*
X140568972Y-110555352D01*
X140586656Y-110552303D01*
X140607724Y-110550500D01*
X145993965Y-110550500D01*
X146061004Y-110570185D01*
X146093229Y-110600186D01*
X146098987Y-110607878D01*
X146099764Y-110608915D01*
X146124184Y-110674378D01*
X146124500Y-110683229D01*
X146124500Y-111816769D01*
X146104815Y-111883808D01*
X146099767Y-111891080D01*
X146031204Y-111982668D01*
X146031202Y-111982671D01*
X145980910Y-112117513D01*
X145980909Y-112117517D01*
X145974500Y-112177127D01*
X145974500Y-112177134D01*
X145974500Y-112177135D01*
X145974500Y-112822870D01*
X145974501Y-112822876D01*
X145980908Y-112882483D01*
X146031202Y-113017328D01*
X146031206Y-113017335D01*
X146117452Y-113132544D01*
X146117455Y-113132547D01*
X146232664Y-113218793D01*
X146232671Y-113218797D01*
X146277618Y-113235561D01*
X146367517Y-113269091D01*
X146427127Y-113275500D01*
X146620611Y-113275499D01*
X146687651Y-113295183D01*
X146708293Y-113311818D01*
X147281392Y-113884917D01*
X147284335Y-113887962D01*
X147328120Y-113934844D01*
X147363229Y-113956194D01*
X147373714Y-113963330D01*
X147406458Y-113988161D01*
X147414730Y-113991423D01*
X147423153Y-113994745D01*
X147442090Y-114004151D01*
X147457418Y-114013472D01*
X147479236Y-114019585D01*
X147496983Y-114024558D01*
X147509013Y-114028603D01*
X147547236Y-114043676D01*
X147565087Y-114045511D01*
X147585852Y-114049457D01*
X147603135Y-114054300D01*
X147644218Y-114054300D01*
X147656898Y-114054950D01*
X147659978Y-114055266D01*
X147697772Y-114059152D01*
X147715456Y-114056103D01*
X147736524Y-114054300D01*
X148824478Y-114054300D01*
X148828710Y-114054372D01*
X148830674Y-114054439D01*
X148892826Y-114056562D01*
X148932755Y-114046830D01*
X148945192Y-114044467D01*
X148985920Y-114038870D01*
X149002383Y-114031718D01*
X149022416Y-114024981D01*
X149039852Y-114020733D01*
X149075695Y-114000578D01*
X149087015Y-113994957D01*
X149124720Y-113978580D01*
X149138632Y-113967260D01*
X149156123Y-113955357D01*
X149171755Y-113946568D01*
X149171753Y-113946568D01*
X149171759Y-113946566D01*
X149200822Y-113917501D01*
X149210229Y-113909012D01*
X149242108Y-113883078D01*
X149252456Y-113868416D01*
X149266074Y-113852249D01*
X149521206Y-113597117D01*
X149561428Y-113570241D01*
X149622041Y-113545136D01*
X149747482Y-113448882D01*
X149843736Y-113323441D01*
X149904244Y-113177362D01*
X149924882Y-113020600D01*
X149921269Y-112993160D01*
X149904244Y-112863839D01*
X149904244Y-112863838D01*
X149843736Y-112717759D01*
X149747482Y-112592318D01*
X149622041Y-112496064D01*
X149612898Y-112492277D01*
X149475962Y-112435556D01*
X149475960Y-112435555D01*
X149319201Y-112414918D01*
X149319199Y-112414918D01*
X149165684Y-112435128D01*
X149096649Y-112424362D01*
X149044393Y-112377982D01*
X149025499Y-112312189D01*
X149025499Y-112177129D01*
X149025498Y-112177123D01*
X149024998Y-112172474D01*
X149019091Y-112117517D01*
X149011460Y-112097058D01*
X148968797Y-111982671D01*
X148968793Y-111982664D01*
X148882547Y-111867455D01*
X148882544Y-111867452D01*
X148767335Y-111781206D01*
X148767328Y-111781202D01*
X148632482Y-111730908D01*
X148632483Y-111730908D01*
X148572883Y-111724501D01*
X148572881Y-111724500D01*
X148572873Y-111724500D01*
X148572865Y-111724500D01*
X148202610Y-111724500D01*
X148135571Y-111704815D01*
X148114929Y-111688181D01*
X147971819Y-111545071D01*
X147947208Y-111500000D01*
X150050001Y-111500000D01*
X150050001Y-112044785D01*
X150050002Y-112044808D01*
X150052908Y-112069869D01*
X150052909Y-112069873D01*
X150098211Y-112172474D01*
X150098214Y-112172479D01*
X150177520Y-112251785D01*
X150177525Y-112251788D01*
X150280123Y-112297089D01*
X150305206Y-112299999D01*
X150549999Y-112299999D01*
X150550000Y-112299998D01*
X150550000Y-111500000D01*
X150050001Y-111500000D01*
X147947208Y-111500000D01*
X147938334Y-111483748D01*
X147935500Y-111457390D01*
X147935500Y-110898318D01*
X147955185Y-110831279D01*
X148007989Y-110785524D01*
X148072764Y-110775030D01*
X148077127Y-110775500D01*
X148572872Y-110775499D01*
X148632483Y-110769091D01*
X148767331Y-110718796D01*
X148882546Y-110632546D01*
X148968796Y-110517331D01*
X148972960Y-110506165D01*
X149014829Y-110450234D01*
X149080293Y-110425816D01*
X149089141Y-110425500D01*
X149926000Y-110425500D01*
X149993039Y-110445185D01*
X150038794Y-110497989D01*
X150050000Y-110549500D01*
X150050000Y-111000000D01*
X150926000Y-111000000D01*
X150993039Y-111019685D01*
X151038794Y-111072489D01*
X151050000Y-111124000D01*
X151050000Y-112299999D01*
X151294786Y-112299999D01*
X151294808Y-112299997D01*
X151319869Y-112297091D01*
X151319873Y-112297090D01*
X151422474Y-112251788D01*
X151422479Y-112251785D01*
X151461966Y-112212299D01*
X151523289Y-112178814D01*
X151592981Y-112183798D01*
X151637328Y-112212299D01*
X151677235Y-112252206D01*
X151742226Y-112280902D01*
X151780006Y-112297584D01*
X151780007Y-112297584D01*
X151780009Y-112297585D01*
X151780010Y-112297585D01*
X151785405Y-112299053D01*
X151844926Y-112335647D01*
X151868968Y-112385628D01*
X151871484Y-112384811D01*
X151881962Y-112417058D01*
X151886503Y-112435973D01*
X151886715Y-112437308D01*
X151890281Y-112459827D01*
X151901243Y-112481341D01*
X151908688Y-112499315D01*
X151916150Y-112522280D01*
X151930340Y-112541810D01*
X151940508Y-112558403D01*
X151951470Y-112579918D01*
X157934881Y-118563329D01*
X157968366Y-118624652D01*
X157971200Y-118651010D01*
X157971200Y-122326490D01*
X157951515Y-122393529D01*
X157934881Y-122414171D01*
X155441672Y-124907380D01*
X155380349Y-124940865D01*
X155353991Y-124943699D01*
X150750804Y-124943699D01*
X150727839Y-124951161D01*
X150708922Y-124955702D01*
X150685073Y-124959479D01*
X150663558Y-124970442D01*
X150645586Y-124977887D01*
X150622618Y-124985350D01*
X150622616Y-124985351D01*
X150603084Y-124999542D01*
X150586499Y-125009705D01*
X150564982Y-125020668D01*
X150564980Y-125020670D01*
X150552381Y-125033270D01*
X150541005Y-125044646D01*
X145246780Y-130338872D01*
X145214680Y-130370972D01*
X145151471Y-130434180D01*
X145140510Y-130455693D01*
X145130346Y-130472278D01*
X145116152Y-130491814D01*
X145116151Y-130491817D01*
X145108688Y-130514785D01*
X145101243Y-130532758D01*
X145090280Y-130554273D01*
X145086503Y-130578122D01*
X145081962Y-130597039D01*
X145074500Y-130620004D01*
X145074500Y-130724600D01*
X145054815Y-130791639D01*
X145002011Y-130837394D01*
X144950500Y-130848600D01*
X140744993Y-130848600D01*
X140610207Y-130848600D01*
X140610205Y-130848600D01*
X140610201Y-130848601D01*
X140587242Y-130856061D01*
X140568324Y-130860603D01*
X140544478Y-130864379D01*
X140544470Y-130864382D01*
X140522952Y-130875345D01*
X140504989Y-130882786D01*
X140482017Y-130890251D01*
X140482016Y-130890251D01*
X140462484Y-130904442D01*
X140445903Y-130914604D01*
X140424381Y-130925571D01*
X140400405Y-130949547D01*
X140400404Y-130949547D01*
X140350139Y-130999810D01*
X140288816Y-131033294D01*
X140219124Y-131028308D01*
X140174779Y-130999808D01*
X140172765Y-130997794D01*
X140069992Y-130952415D01*
X140044865Y-130949500D01*
X138955143Y-130949500D01*
X138955117Y-130949502D01*
X138930012Y-130952413D01*
X138930008Y-130952415D01*
X138827235Y-130997793D01*
X138747794Y-131077234D01*
X138702415Y-131180006D01*
X138702415Y-131180008D01*
X138699500Y-131205131D01*
X138699500Y-132044856D01*
X138699502Y-132044882D01*
X138702413Y-132069987D01*
X138702415Y-132069991D01*
X138747793Y-132172764D01*
X138747794Y-132172765D01*
X138827235Y-132252206D01*
X138930009Y-132297585D01*
X138955135Y-132300500D01*
X140044864Y-132300499D01*
X140044879Y-132300497D01*
X140044882Y-132300497D01*
X140069987Y-132297586D01*
X140069988Y-132297585D01*
X140069991Y-132297585D01*
X140172765Y-132252206D01*
X140252206Y-132172765D01*
X140273556Y-132124411D01*
X140318640Y-132071038D01*
X140385426Y-132050510D01*
X140386989Y-132050500D01*
X140394092Y-132050500D01*
X140394093Y-132050500D01*
X140417060Y-132043036D01*
X140435976Y-132038495D01*
X140459826Y-132034719D01*
X140481336Y-132023757D01*
X140499314Y-132016310D01*
X140522281Y-132008849D01*
X140541818Y-131994653D01*
X140558406Y-131984488D01*
X140579920Y-131973528D01*
X140675228Y-131878220D01*
X140817529Y-131735919D01*
X140878852Y-131702434D01*
X140905210Y-131699600D01*
X144575501Y-131699600D01*
X144642540Y-131719285D01*
X144688295Y-131772089D01*
X144699501Y-131823600D01*
X144699501Y-132044856D01*
X144699502Y-132044882D01*
X144702413Y-132069987D01*
X144702415Y-132069991D01*
X144747793Y-132172764D01*
X144747794Y-132172765D01*
X144827235Y-132252206D01*
X144930009Y-132297585D01*
X144955135Y-132300500D01*
X146044864Y-132300499D01*
X146044879Y-132300497D01*
X146044882Y-132300497D01*
X146069987Y-132297586D01*
X146069988Y-132297585D01*
X146069991Y-132297585D01*
X146172765Y-132252206D01*
X146252206Y-132172765D01*
X146297585Y-132069991D01*
X146300500Y-132044865D01*
X146300499Y-131205136D01*
X146299966Y-131200538D01*
X146297586Y-131180012D01*
X146297585Y-131180010D01*
X146297585Y-131180009D01*
X146252206Y-131077235D01*
X146172765Y-130997794D01*
X146172764Y-130997793D01*
X146073772Y-130954084D01*
X146020395Y-130908998D01*
X145999868Y-130842212D01*
X146018706Y-130774930D01*
X146036173Y-130752973D01*
X150425936Y-126363209D01*
X150487257Y-126329726D01*
X150556949Y-126334710D01*
X150611990Y-126375405D01*
X150649415Y-126424178D01*
X150649416Y-126424179D01*
X150649418Y-126424181D01*
X150774859Y-126520435D01*
X150920938Y-126580943D01*
X150999319Y-126591262D01*
X151077699Y-126601581D01*
X151077700Y-126601581D01*
X151077701Y-126601581D01*
X151129954Y-126594701D01*
X151234462Y-126580943D01*
X151380541Y-126520435D01*
X151429450Y-126482906D01*
X151476215Y-126447023D01*
X151541385Y-126421829D01*
X151551701Y-126421399D01*
X151894990Y-126421399D01*
X151962029Y-126441084D01*
X151982671Y-126457718D01*
X152604149Y-127079197D01*
X152637634Y-127140520D01*
X152632650Y-127210212D01*
X152590778Y-127266145D01*
X152525314Y-127290562D01*
X152460175Y-127277363D01*
X152433126Y-127263581D01*
X152433124Y-127263580D01*
X152433121Y-127263579D01*
X152333489Y-127247800D01*
X152333488Y-127247800D01*
X152316744Y-127245148D01*
X152300001Y-127242496D01*
X152300000Y-127242496D01*
X152276152Y-127246273D01*
X152256755Y-127247800D01*
X152182957Y-127247800D01*
X152115918Y-127228115D01*
X152083643Y-127194264D01*
X152082284Y-127195308D01*
X152077336Y-127188860D01*
X152077336Y-127188859D01*
X151981082Y-127063418D01*
X151855641Y-126967164D01*
X151709562Y-126906656D01*
X151709560Y-126906655D01*
X151552801Y-126886018D01*
X151552799Y-126886018D01*
X151396039Y-126906655D01*
X151396037Y-126906656D01*
X151249960Y-126967163D01*
X151124518Y-127063418D01*
X151028263Y-127188860D01*
X150967756Y-127334937D01*
X150967755Y-127334939D01*
X150947118Y-127491698D01*
X150947118Y-127491702D01*
X150956019Y-127559316D01*
X150945253Y-127628351D01*
X150898873Y-127680606D01*
X150833080Y-127699500D01*
X150305143Y-127699500D01*
X150305117Y-127699502D01*
X150280012Y-127702413D01*
X150280008Y-127702415D01*
X150177235Y-127747793D01*
X150097794Y-127827234D01*
X150052415Y-127930006D01*
X150052415Y-127930008D01*
X150049500Y-127955131D01*
X150049500Y-128847389D01*
X150029815Y-128914428D01*
X150013181Y-128935070D01*
X149215346Y-129732906D01*
X148421780Y-130526472D01*
X148393979Y-130554273D01*
X148326471Y-130621780D01*
X148315510Y-130643293D01*
X148305346Y-130659878D01*
X148291152Y-130679414D01*
X148291151Y-130679417D01*
X148283688Y-130702385D01*
X148276243Y-130720358D01*
X148265280Y-130741873D01*
X148261503Y-130765722D01*
X148256962Y-130784639D01*
X148249500Y-130807604D01*
X148249500Y-131206534D01*
X148229815Y-131273573D01*
X148199812Y-131305800D01*
X148117452Y-131367455D01*
X148031206Y-131482664D01*
X148031202Y-131482671D01*
X147980910Y-131617513D01*
X147980909Y-131617517D01*
X147974500Y-131677127D01*
X147974500Y-131677134D01*
X147974500Y-131677135D01*
X147974500Y-132322870D01*
X147974501Y-132322876D01*
X147980909Y-132382484D01*
X147982991Y-132388067D01*
X147987975Y-132457759D01*
X147954489Y-132519081D01*
X147893166Y-132552566D01*
X147866809Y-132555399D01*
X137750870Y-132555399D01*
X137683831Y-132535714D01*
X137638076Y-132482910D01*
X137628132Y-132413752D01*
X137651603Y-132357088D01*
X137718796Y-132267331D01*
X137769091Y-132132483D01*
X137775500Y-132072873D01*
X137775499Y-131577128D01*
X137769091Y-131517517D01*
X137756094Y-131482671D01*
X137718797Y-131382671D01*
X137718793Y-131382664D01*
X137632547Y-131267455D01*
X137632544Y-131267452D01*
X137517335Y-131181206D01*
X137517328Y-131181202D01*
X137382486Y-131130910D01*
X137382485Y-131130909D01*
X137382483Y-131130909D01*
X137322873Y-131124500D01*
X137322863Y-131124500D01*
X136677129Y-131124500D01*
X136677123Y-131124501D01*
X136617516Y-131130908D01*
X136482671Y-131181202D01*
X136482664Y-131181206D01*
X136367455Y-131267452D01*
X136367452Y-131267455D01*
X136281206Y-131382664D01*
X136281202Y-131382671D01*
X136230908Y-131517517D01*
X136224782Y-131574500D01*
X136224501Y-131577123D01*
X136224500Y-131577135D01*
X136224500Y-131947387D01*
X136204815Y-132014426D01*
X136188184Y-132035066D01*
X136170173Y-132053078D01*
X136108850Y-132086564D01*
X136082489Y-132089399D01*
X135178074Y-132089399D01*
X135111035Y-132069714D01*
X135065280Y-132016910D01*
X135055336Y-131947752D01*
X135061032Y-131924444D01*
X135104878Y-131799139D01*
X135119999Y-131664929D01*
X135120000Y-131664929D01*
X135120000Y-131319999D01*
X134620000Y-131319999D01*
X134620000Y-130819999D01*
X135120000Y-130819999D01*
X135120000Y-130475069D01*
X135119999Y-130475068D01*
X135114358Y-130425000D01*
X136225234Y-130425000D01*
X136231401Y-130482375D01*
X136281645Y-130617086D01*
X136281649Y-130617093D01*
X136367809Y-130732187D01*
X136367812Y-130732190D01*
X136482906Y-130818350D01*
X136482913Y-130818354D01*
X136617620Y-130868596D01*
X136617627Y-130868598D01*
X136677155Y-130874999D01*
X136677172Y-130875000D01*
X136750000Y-130875000D01*
X136750000Y-130425000D01*
X137250000Y-130425000D01*
X137250000Y-130875000D01*
X137322828Y-130875000D01*
X137322844Y-130874999D01*
X137382372Y-130868598D01*
X137382379Y-130868596D01*
X137517086Y-130818354D01*
X137517093Y-130818350D01*
X137632187Y-130732190D01*
X137632190Y-130732187D01*
X137718350Y-130617093D01*
X137718354Y-130617086D01*
X137768598Y-130482375D01*
X137774766Y-130425000D01*
X137250000Y-130425000D01*
X136750000Y-130425000D01*
X136225234Y-130425000D01*
X135114358Y-130425000D01*
X135104877Y-130340857D01*
X135045336Y-130170697D01*
X134949422Y-130018050D01*
X134856372Y-129925000D01*
X136225234Y-129925000D01*
X136750000Y-129925000D01*
X136750000Y-129475000D01*
X137250000Y-129475000D01*
X137250000Y-129925000D01*
X137774765Y-129925000D01*
X137768598Y-129867624D01*
X137718354Y-129732913D01*
X137718350Y-129732906D01*
X137632190Y-129617812D01*
X137632187Y-129617809D01*
X137517093Y-129531649D01*
X137517086Y-129531645D01*
X137382379Y-129481403D01*
X137382372Y-129481401D01*
X137322844Y-129475000D01*
X137250000Y-129475000D01*
X136750000Y-129475000D01*
X136677155Y-129475000D01*
X136617627Y-129481401D01*
X136617620Y-129481403D01*
X136482913Y-129531645D01*
X136482906Y-129531649D01*
X136367812Y-129617809D01*
X136367809Y-129617812D01*
X136281649Y-129732906D01*
X136281645Y-129732913D01*
X136231401Y-129867624D01*
X136225234Y-129925000D01*
X134856372Y-129925000D01*
X134821948Y-129890576D01*
X134669305Y-129794664D01*
X134669301Y-129794662D01*
X134570000Y-129759915D01*
X134570000Y-130353888D01*
X134545543Y-130314389D01*
X134456038Y-130246798D01*
X134348160Y-130216104D01*
X134236479Y-130226453D01*
X134136078Y-130276447D01*
X134070000Y-130348929D01*
X134070000Y-129759915D01*
X134014954Y-129779177D01*
X133945175Y-129782738D01*
X133884547Y-129748009D01*
X133852320Y-129686016D01*
X133849999Y-129662135D01*
X133849999Y-129385213D01*
X133849997Y-129385190D01*
X133847091Y-129360129D01*
X133847090Y-129360125D01*
X133801788Y-129257524D01*
X133801785Y-129257519D01*
X133722479Y-129178213D01*
X133722474Y-129178210D01*
X133619876Y-129132909D01*
X133594794Y-129129999D01*
X133500000Y-129129999D01*
X133500000Y-130280999D01*
X133480315Y-130348038D01*
X133427511Y-130393793D01*
X133376000Y-130404999D01*
X133174500Y-130404999D01*
X133107461Y-130385314D01*
X133061706Y-130332510D01*
X133050500Y-130280999D01*
X133050499Y-129385142D01*
X133050499Y-129385136D01*
X133050499Y-129385135D01*
X133050497Y-129385116D01*
X133047586Y-129360012D01*
X133047585Y-129360010D01*
X133047585Y-129360008D01*
X133011063Y-129277294D01*
X133000499Y-129227211D01*
X133000499Y-128969839D01*
X133000571Y-128965606D01*
X133002762Y-128901475D01*
X132993031Y-128861547D01*
X132990661Y-128849073D01*
X132987592Y-128826740D01*
X132985069Y-128808380D01*
X132977921Y-128791925D01*
X132971181Y-128771885D01*
X132966933Y-128754449D01*
X132946793Y-128718632D01*
X132941148Y-128707265D01*
X132931671Y-128685448D01*
X132924779Y-128669580D01*
X132921608Y-128665682D01*
X132913455Y-128655660D01*
X132901559Y-128638181D01*
X132892766Y-128622543D01*
X132863717Y-128593494D01*
X132855208Y-128584066D01*
X132829276Y-128552191D01*
X132814620Y-128541846D01*
X132798445Y-128528222D01*
X132307294Y-128037068D01*
X132304381Y-128034054D01*
X132260580Y-127987155D01*
X132260579Y-127987154D01*
X132260576Y-127987151D01*
X132225478Y-127965808D01*
X132214981Y-127958664D01*
X132182244Y-127933838D01*
X132165543Y-127927252D01*
X132146614Y-127917849D01*
X132131289Y-127908530D01*
X132131283Y-127908527D01*
X132131282Y-127908527D01*
X132131279Y-127908526D01*
X132131276Y-127908525D01*
X132091719Y-127897441D01*
X132079687Y-127893395D01*
X132041466Y-127878323D01*
X132041461Y-127878322D01*
X132023609Y-127876486D01*
X132002846Y-127872540D01*
X131985567Y-127867699D01*
X131985565Y-127867699D01*
X131944483Y-127867699D01*
X131931803Y-127867049D01*
X131890930Y-127862847D01*
X131890925Y-127862847D01*
X131873245Y-127865896D01*
X131852177Y-127867699D01*
X128764600Y-127867699D01*
X128697561Y-127848014D01*
X128651806Y-127795210D01*
X128640600Y-127743699D01*
X128640600Y-125101621D01*
X128640672Y-125097389D01*
X128641215Y-125081479D01*
X128642862Y-125033274D01*
X128639390Y-125019026D01*
X128633135Y-124993360D01*
X128630764Y-124980884D01*
X128626679Y-124951161D01*
X128625170Y-124940180D01*
X128618021Y-124923722D01*
X128611280Y-124903678D01*
X128607033Y-124886248D01*
X128586895Y-124850432D01*
X128581248Y-124839063D01*
X128574860Y-124824357D01*
X128564880Y-124801380D01*
X128564878Y-124801377D01*
X128564293Y-124800415D01*
X128564026Y-124799416D01*
X128561500Y-124793600D01*
X128562373Y-124793220D01*
X128546278Y-124732908D01*
X128547123Y-124721215D01*
X128550500Y-124693102D01*
X128550500Y-123306898D01*
X128539877Y-123218436D01*
X128484361Y-123077658D01*
X128484360Y-123077657D01*
X128484360Y-123077656D01*
X128392922Y-122957077D01*
X128272343Y-122865639D01*
X128144692Y-122815300D01*
X128131564Y-122810123D01*
X128131563Y-122810122D01*
X128131561Y-122810122D01*
X128085926Y-122804642D01*
X128043102Y-122799500D01*
X128043097Y-122799500D01*
X126532710Y-122799500D01*
X126465671Y-122779815D01*
X126419916Y-122727011D01*
X126409972Y-122657853D01*
X126438997Y-122594297D01*
X126445029Y-122587819D01*
X127706529Y-121326319D01*
X127767852Y-121292834D01*
X127794210Y-121290000D01*
X153401499Y-121290000D01*
X153468538Y-121309685D01*
X153476985Y-121315624D01*
X153572657Y-121389035D01*
X153572658Y-121389035D01*
X153572659Y-121389036D01*
X153718738Y-121449544D01*
X153797119Y-121459863D01*
X153875499Y-121470182D01*
X153875500Y-121470182D01*
X153875501Y-121470182D01*
X153927754Y-121463302D01*
X154032262Y-121449544D01*
X154178341Y-121389036D01*
X154303782Y-121292782D01*
X154400036Y-121167341D01*
X154460544Y-121021262D01*
X154481182Y-120864500D01*
X154460544Y-120707738D01*
X154400036Y-120561659D01*
X154303782Y-120436218D01*
X154178341Y-120339964D01*
X154032262Y-120279456D01*
X154032260Y-120279455D01*
X153875501Y-120258818D01*
X153875499Y-120258818D01*
X153718739Y-120279455D01*
X153718737Y-120279456D01*
X153572657Y-120339964D01*
X153476985Y-120413376D01*
X153411815Y-120438570D01*
X153401499Y-120439000D01*
X127633993Y-120439000D01*
X127499207Y-120439000D01*
X127499205Y-120439000D01*
X127499201Y-120439001D01*
X127476242Y-120446461D01*
X127457324Y-120451003D01*
X127433478Y-120454779D01*
X127433470Y-120454782D01*
X127411952Y-120465745D01*
X127393989Y-120473186D01*
X127371017Y-120480651D01*
X127371016Y-120480651D01*
X127351484Y-120494842D01*
X127334903Y-120505004D01*
X127313380Y-120515972D01*
X127313379Y-120515972D01*
X126006482Y-121822870D01*
X124746780Y-123082572D01*
X124721891Y-123107461D01*
X124693647Y-123135704D01*
X124632323Y-123169188D01*
X124562631Y-123164202D01*
X124506698Y-123122330D01*
X124490612Y-123093509D01*
X124484361Y-123077658D01*
X124392922Y-122957077D01*
X124272343Y-122865639D01*
X124144692Y-122815300D01*
X124131564Y-122810123D01*
X124131563Y-122810122D01*
X124131561Y-122810122D01*
X124085926Y-122804642D01*
X124043102Y-122799500D01*
X124043097Y-122799500D01*
X123674500Y-122799500D01*
X123607461Y-122779815D01*
X123561706Y-122727011D01*
X123550500Y-122675500D01*
X123550500Y-111978521D01*
X123550572Y-111974289D01*
X123552762Y-111910174D01*
X123548109Y-111891080D01*
X123543035Y-111870260D01*
X123540664Y-111857784D01*
X123535070Y-111817083D01*
X123535070Y-111817080D01*
X123527921Y-111800622D01*
X123521180Y-111780578D01*
X123516933Y-111763148D01*
X123498806Y-111730909D01*
X123496795Y-111727332D01*
X123491148Y-111715963D01*
X123486306Y-111704815D01*
X123474780Y-111678280D01*
X123463454Y-111664359D01*
X123451556Y-111646877D01*
X123442764Y-111631240D01*
X123413718Y-111602194D01*
X123405210Y-111592767D01*
X123379278Y-111560891D01*
X123364613Y-111550540D01*
X123348441Y-111536917D01*
X122102782Y-110291257D01*
X122069297Y-110229934D01*
X122074281Y-110160242D01*
X122091658Y-110128653D01*
X122126318Y-110082948D01*
X122134360Y-110072344D01*
X122140176Y-110057595D01*
X122189877Y-109931564D01*
X122200500Y-109843102D01*
X122200500Y-109449500D01*
X122220185Y-109382461D01*
X122272989Y-109336706D01*
X122324500Y-109325500D01*
X122775737Y-109325500D01*
X122842776Y-109345185D01*
X122868772Y-109369238D01*
X122868928Y-109369083D01*
X122872919Y-109373074D01*
X122874539Y-109374573D01*
X122874922Y-109375078D01*
X122874926Y-109375081D01*
X122990023Y-109462363D01*
X122990024Y-109462363D01*
X122990025Y-109462364D01*
X123124410Y-109515359D01*
X123208856Y-109525500D01*
X123208862Y-109525500D01*
X123791138Y-109525500D01*
X123791144Y-109525500D01*
X123875590Y-109515359D01*
X124009975Y-109462364D01*
X124125078Y-109375078D01*
X124125459Y-109374574D01*
X124125923Y-109374232D01*
X124131072Y-109369083D01*
X124131845Y-109369856D01*
X124181650Y-109333052D01*
X124224263Y-109325500D01*
X125393921Y-109325500D01*
X125460960Y-109345185D01*
X125493692Y-109375867D01*
X125527848Y-109422148D01*
X125527850Y-109422150D01*
X125637118Y-109502793D01*
X125679845Y-109517744D01*
X125765299Y-109547646D01*
X125795730Y-109550500D01*
X125795734Y-109550500D01*
X126929270Y-109550500D01*
X126959699Y-109547646D01*
X126959701Y-109547646D01*
X127026615Y-109524231D01*
X127087882Y-109502793D01*
X127197150Y-109422150D01*
X127277793Y-109312882D01*
X127306476Y-109230910D01*
X127317292Y-109200000D01*
X127683238Y-109200000D01*
X127722653Y-109312645D01*
X127803207Y-109421792D01*
X127912354Y-109502346D01*
X128040397Y-109547149D01*
X128070792Y-109549999D01*
X128387499Y-109549999D01*
X128387500Y-109549998D01*
X128387500Y-109200000D01*
X128887500Y-109200000D01*
X128887500Y-109549999D01*
X129204196Y-109549999D01*
X129234606Y-109547148D01*
X129362645Y-109502346D01*
X129471792Y-109421792D01*
X129552346Y-109312645D01*
X129591762Y-109200000D01*
X128887500Y-109200000D01*
X128387500Y-109200000D01*
X127683238Y-109200000D01*
X127317292Y-109200000D01*
X127322646Y-109184701D01*
X127322646Y-109184699D01*
X127325500Y-109154269D01*
X127325500Y-108745730D01*
X127322646Y-108715300D01*
X127322646Y-108715298D01*
X127285805Y-108610016D01*
X127277793Y-108587118D01*
X127249389Y-108548632D01*
X127225419Y-108483005D01*
X127240734Y-108414835D01*
X127249385Y-108401373D01*
X127277793Y-108362882D01*
X127301275Y-108295773D01*
X127322646Y-108234701D01*
X127322646Y-108234699D01*
X127325500Y-108204269D01*
X127325500Y-107795730D01*
X127322646Y-107765300D01*
X127322646Y-107765298D01*
X127285167Y-107658193D01*
X127277793Y-107637118D01*
X127249389Y-107598632D01*
X127225419Y-107533005D01*
X127240734Y-107464835D01*
X127249385Y-107451373D01*
X127277793Y-107412882D01*
X127305423Y-107333920D01*
X127322646Y-107284701D01*
X127322646Y-107284699D01*
X127325500Y-107254269D01*
X127325500Y-106845730D01*
X127322646Y-106815300D01*
X127322646Y-106815298D01*
X127281115Y-106696613D01*
X127277793Y-106687118D01*
X127197150Y-106577850D01*
X127087882Y-106497207D01*
X127087880Y-106497206D01*
X126959700Y-106452353D01*
X126929270Y-106449500D01*
X126929266Y-106449500D01*
X126591886Y-106449500D01*
X126524847Y-106429815D01*
X126504210Y-106413185D01*
X126374717Y-106283692D01*
X126341234Y-106222371D01*
X126338400Y-106196013D01*
X126338400Y-105652010D01*
X126358085Y-105584971D01*
X126410889Y-105539216D01*
X126480047Y-105529272D01*
X126543603Y-105558297D01*
X126550081Y-105564329D01*
X127654324Y-106668572D01*
X127687809Y-106729895D01*
X127683685Y-106797206D01*
X127677354Y-106815298D01*
X127677353Y-106815305D01*
X127674500Y-106845730D01*
X127674500Y-107254269D01*
X127677353Y-107284699D01*
X127677353Y-107284701D01*
X127722206Y-107412880D01*
X127722207Y-107412882D01*
X127735906Y-107431443D01*
X127750610Y-107451367D01*
X127774580Y-107516997D01*
X127759264Y-107585167D01*
X127750610Y-107598633D01*
X127722207Y-107637118D01*
X127722206Y-107637119D01*
X127677353Y-107765298D01*
X127677353Y-107765300D01*
X127674500Y-107795730D01*
X127674500Y-108204269D01*
X127677353Y-108234699D01*
X127677353Y-108234701D01*
X127717848Y-108350425D01*
X127722207Y-108362882D01*
X127750921Y-108401788D01*
X127774891Y-108467417D01*
X127759575Y-108535587D01*
X127750920Y-108549054D01*
X127722655Y-108587351D01*
X127722653Y-108587354D01*
X127683238Y-108700000D01*
X129591761Y-108700000D01*
X129560275Y-108610016D01*
X129556714Y-108540238D01*
X129591443Y-108479610D01*
X129599045Y-108472887D01*
X129610643Y-108463452D01*
X129628112Y-108451563D01*
X129643760Y-108442765D01*
X129672813Y-108413710D01*
X129682242Y-108405202D01*
X129714108Y-108379278D01*
X129724461Y-108364610D01*
X129738073Y-108348450D01*
X129937821Y-108148701D01*
X129999142Y-108115218D01*
X130068833Y-108120202D01*
X130124767Y-108162073D01*
X130149184Y-108227538D01*
X130149500Y-108236384D01*
X130149500Y-109894856D01*
X130149502Y-109894882D01*
X130152413Y-109919987D01*
X130152415Y-109919991D01*
X130197793Y-110022764D01*
X130197794Y-110022765D01*
X130277235Y-110102206D01*
X130380009Y-110147585D01*
X130405135Y-110150500D01*
X131594864Y-110150499D01*
X131594879Y-110150497D01*
X131594882Y-110150497D01*
X131619987Y-110147586D01*
X131619988Y-110147585D01*
X131619991Y-110147585D01*
X131722765Y-110102206D01*
X131802206Y-110022765D01*
X131847585Y-109919991D01*
X131850500Y-109894865D01*
X131850499Y-106105136D01*
X131850497Y-106105117D01*
X131847586Y-106080012D01*
X131847585Y-106080010D01*
X131847585Y-106080009D01*
X131802206Y-105977235D01*
X131722765Y-105897794D01*
X131659802Y-105869993D01*
X131624413Y-105854367D01*
X131571037Y-105809281D01*
X131550510Y-105742495D01*
X131550500Y-105740933D01*
X131550500Y-105701354D01*
X131550789Y-105692892D01*
X131554381Y-105640379D01*
X131553030Y-105633876D01*
X131543668Y-105588831D01*
X131542234Y-105580507D01*
X131538808Y-105555582D01*
X131535070Y-105528380D01*
X131532551Y-105522581D01*
X131524879Y-105498409D01*
X131523592Y-105492215D01*
X131499373Y-105445475D01*
X131495753Y-105437865D01*
X131474780Y-105389580D01*
X131473013Y-105387409D01*
X131470787Y-105384671D01*
X131456884Y-105363474D01*
X131455347Y-105360509D01*
X131453971Y-105357853D01*
X131453968Y-105357850D01*
X131453967Y-105357848D01*
X131418052Y-105319393D01*
X131412487Y-105313011D01*
X131379277Y-105272191D01*
X131379276Y-105272190D01*
X131374111Y-105268544D01*
X131354997Y-105251879D01*
X131350680Y-105247256D01*
X131350679Y-105247255D01*
X131350677Y-105247253D01*
X131305714Y-105219911D01*
X131298655Y-105215281D01*
X131255647Y-105184923D01*
X131255644Y-105184922D01*
X131255643Y-105184921D01*
X131255644Y-105184921D01*
X131249683Y-105182803D01*
X131226782Y-105171912D01*
X131221382Y-105168628D01*
X131221379Y-105168627D01*
X131221380Y-105168627D01*
X131170727Y-105154434D01*
X131162661Y-105151874D01*
X131113060Y-105134246D01*
X131113048Y-105134244D01*
X131106731Y-105133812D01*
X131081755Y-105129506D01*
X131075666Y-105127800D01*
X131075665Y-105127800D01*
X131023055Y-105127800D01*
X131014593Y-105127511D01*
X130962080Y-105123918D01*
X130962079Y-105123919D01*
X130955884Y-105125206D01*
X130930656Y-105127800D01*
X129918819Y-105127800D01*
X129914587Y-105127728D01*
X129894781Y-105127051D01*
X129850471Y-105125538D01*
X129850470Y-105125538D01*
X129850469Y-105125538D01*
X129810554Y-105135265D01*
X129798081Y-105137635D01*
X129765095Y-105142169D01*
X129696000Y-105131797D01*
X129660529Y-105107005D01*
X129061819Y-104508295D01*
X129028334Y-104446972D01*
X129025500Y-104420614D01*
X129025500Y-104208861D01*
X129025500Y-104208856D01*
X129023005Y-104188081D01*
X129034557Y-104119175D01*
X129081530Y-104067451D01*
X129146121Y-104049300D01*
X131541113Y-104049300D01*
X131608152Y-104068985D01*
G37*
%TD.AperFunction*%
%TA.AperFunction,Conductor*%
G36*
X159186943Y-107925228D02*
G01*
X159235420Y-107975545D01*
X159249500Y-108032935D01*
X159249500Y-108118102D01*
X159254546Y-108160122D01*
X159260122Y-108206561D01*
X159260122Y-108206563D01*
X159260123Y-108206564D01*
X159289699Y-108281564D01*
X159295303Y-108295773D01*
X159301584Y-108365360D01*
X159269247Y-108427296D01*
X159267629Y-108428944D01*
X158907194Y-108789381D01*
X158845871Y-108822866D01*
X158819513Y-108825700D01*
X158671287Y-108825700D01*
X158604248Y-108806015D01*
X158583606Y-108789381D01*
X158380906Y-108586681D01*
X158347421Y-108525358D01*
X158352405Y-108455666D01*
X158394277Y-108399733D01*
X158459741Y-108375316D01*
X158468587Y-108375000D01*
X158541102Y-108375000D01*
X158625467Y-108364868D01*
X158625468Y-108364868D01*
X158759729Y-108311922D01*
X158874721Y-108224721D01*
X158961922Y-108109729D01*
X159010145Y-107987445D01*
X159053051Y-107932301D01*
X159118959Y-107909108D01*
X159186943Y-107925228D01*
G37*
%TD.AperFunction*%
%TD*%
M02*
