M48
; DRILL file {KiCad 7.0.11+dfsg-1build4} date Thu Oct  8 21:22:42 2026
; FORMAT={-:-/ absolute / metric / decimal}
; #@! TF.CreationDate,2026-10-08T21:22:42+03:00
; #@! TF.GenerationSoftware,Kicad,Pcbnew,7.0.11+dfsg-1build4
; #@! TF.FileFunction,MixedPlating,1,2
FMAT,2
METRIC
; #@! TA.AperFunction,Plated,PTH,ComponentDrill
T1C0.200
; #@! TA.AperFunction,Plated,PTH,ViaDrill
T2C0.300
; #@! TA.AperFunction,Plated,PTH,ComponentDrill
T3C0.600
; #@! TA.AperFunction,Plated,PTH,ComponentDrill
T4C1.000
; #@! TA.AperFunction,Plated,PTH,ComponentDrill
T5C1.300
; #@! TA.AperFunction,NonPlated,NPTH,ComponentDrill
T6C0.650
; #@! TA.AperFunction,NonPlated,NPTH,ComponentDrill
T7C3.200
%
G90
G05
T1
X155.5Y-120.41
X155.5Y-121.51
X156.05Y-119.86
X156.05Y-120.96
X156.05Y-122.06
X156.6Y-120.41
X156.6Y-121.51
X157.15Y-119.86
X157.15Y-120.96
X157.15Y-122.06
X157.7Y-120.41
X157.7Y-121.51
T2
X102.0Y-118.0
X106.0Y-114.0
X110.0Y-114.0
X110.0Y-118.0
X110.0Y-134.0
X114.0Y-130.0
X118.0Y-122.0
X118.0Y-130.0
X120.891Y-131.625
X122.0Y-102.0
X122.0Y-114.0
X122.0Y-118.0
X122.0Y-134.0
X126.0Y-102.0
X129.25Y-131.781
X130.0Y-102.0
X130.0Y-126.0
X130.757Y-131.46
X134.0Y-102.0
X134.0Y-122.0
X134.0Y-126.0
X138.0Y-102.0
X138.0Y-122.0
X138.0Y-126.0
X142.0Y-106.0
X142.0Y-122.0
X142.0Y-126.0
X142.0Y-130.0
X144.243Y-108.273
X146.0Y-126.0
X149.319Y-113.021
X151.078Y-125.996
X151.553Y-127.492
X152.351Y-130.898
X153.875Y-120.864
X154.0Y-102.0
X158.643Y-113.296
X158.758Y-108.602
T4
X144.0Y-102.5
X146.54Y-102.5
X149.08Y-102.5
X151.62Y-102.5
T5
X105.0Y-104.5
X105.0Y-109.58
X105.0Y-122.0
X105.0Y-127.08
T6
X127.11Y-131.6
X132.89Y-131.6
T7
X104.0Y-134.6
X114.5Y-116.8
X159.0Y-103.0
X159.0Y-134.5
T3
X125.68Y-130.52G85X125.68Y-131.62
G05
X125.68Y-134.95G85X125.68Y-135.55
G05
X134.32Y-130.52G85X134.32Y-131.62
G05
X134.32Y-134.95G85X134.32Y-135.55
G05
M30
