%TF.GenerationSoftware,KiCad,Pcbnew,7.0.11+dfsg-1build4*%
%TF.CreationDate,2026-10-08T21:22:42+03:00*%
%TF.ProjectId,ledctl,6c656463-746c-42e6-9b69-6361645f7063,rev?*%
%TF.SameCoordinates,Original*%
%TF.FileFunction,Paste,Top*%
%TF.FilePolarity,Positive*%
%FSLAX46Y46*%
G04 Gerber Fmt 4.6, Leading zero omitted, Abs format (unit mm)*
G04 Created by KiCad (PCBNEW 7.0.11+dfsg-1build4) date 2026-10-08 21:22:42*
%MOMM*%
%LPD*%
G01*
G04 APERTURE LIST*
G04 Aperture macros list*
%AMRoundRect*
0 Rectangle with rounded corners*
0 $1 Rounding radius*
0 $2 $3 $4 $5 $6 $7 $8 $9 X,Y pos of 4 corners*
0 Add a 4 corners polygon primitive as box body*
4,1,4,$2,$3,$4,$5,$6,$7,$8,$9,$2,$3,0*
0 Add four circle primitives for the rounded corners*
1,1,$1+$1,$2,$3*
1,1,$1+$1,$4,$5*
1,1,$1+$1,$6,$7*
1,1,$1+$1,$8,$9*
0 Add four rect primitives between the rounded corners*
20,1,$1+$1,$2,$3,$4,$5,0*
20,1,$1+$1,$4,$5,$6,$7,0*
20,1,$1+$1,$6,$7,$8,$9,0*
20,1,$1+$1,$8,$9,$2,$3,0*%
G04 Aperture macros list end*
%ADD10RoundRect,0.250000X-1.000000X-0.650000X1.000000X-0.650000X1.000000X0.650000X-1.000000X0.650000X0*%
%ADD11RoundRect,0.225000X-0.225000X-0.250000X0.225000X-0.250000X0.225000X0.250000X-0.225000X0.250000X0*%
%ADD12R,0.700000X0.700000*%
%ADD13R,0.900000X1.500000*%
%ADD14RoundRect,0.200000X-0.200000X-0.275000X0.200000X-0.275000X0.200000X0.275000X-0.200000X0.275000X0*%
%ADD15RoundRect,0.250000X0.650000X-0.325000X0.650000X0.325000X-0.650000X0.325000X-0.650000X-0.325000X0*%
%ADD16RoundRect,0.150000X-0.512500X-0.150000X0.512500X-0.150000X0.512500X0.150000X-0.512500X0.150000X0*%
%ADD17RoundRect,0.250000X-0.250000X-0.475000X0.250000X-0.475000X0.250000X0.475000X-0.250000X0.475000X0*%
%ADD18R,1.000000X0.750000*%
%ADD19RoundRect,0.225000X0.250000X-0.225000X0.250000X0.225000X-0.250000X0.225000X-0.250000X-0.225000X0*%
%ADD20RoundRect,0.250000X0.475000X-0.250000X0.475000X0.250000X-0.475000X0.250000X-0.475000X-0.250000X0*%
%ADD21RoundRect,0.218750X-0.218750X-0.256250X0.218750X-0.256250X0.218750X0.256250X-0.218750X0.256250X0*%
%ADD22RoundRect,0.200000X0.275000X-0.200000X0.275000X0.200000X-0.275000X0.200000X-0.275000X-0.200000X0*%
%ADD23RoundRect,0.150000X-0.587500X-0.150000X0.587500X-0.150000X0.587500X0.150000X-0.587500X0.150000X0*%
%ADD24R,0.600000X1.450000*%
%ADD25R,0.300000X1.450000*%
%ADD26R,1.100000X3.700000*%
%ADD27RoundRect,0.250000X-0.312500X-1.450000X0.312500X-1.450000X0.312500X1.450000X-0.312500X1.450000X0*%
G04 APERTURE END LIST*
D10*
%TO.C,D2*%
X123000000Y-124000000D03*
X127000000Y-124000000D03*
%TD*%
D11*
%TO.C,C8*%
X149725000Y-107600000D03*
X151275000Y-107600000D03*
%TD*%
D10*
%TO.C,D3*%
X113500000Y-107500000D03*
X117500000Y-107500000D03*
%TD*%
D12*
%TO.C,U2*%
X157700000Y-119860000D03*
X156600000Y-119860000D03*
X155500000Y-119860000D03*
X157700000Y-120960000D03*
X156600000Y-120960000D03*
X155500000Y-120960000D03*
X157700000Y-122060000D03*
X156600000Y-122060000D03*
X155500000Y-122060000D03*
D13*
X162800000Y-111250000D03*
X161300000Y-111250000D03*
X159800000Y-111250000D03*
X158300000Y-111250000D03*
X156800000Y-111250000D03*
X155300000Y-111250000D03*
X153800000Y-111250000D03*
X152300000Y-111250000D03*
X150800000Y-111250000D03*
X150800000Y-128750000D03*
X152300000Y-128750000D03*
X153800000Y-128750000D03*
X155300000Y-128750000D03*
X156800000Y-128750000D03*
X158300000Y-128750000D03*
X159800000Y-128750000D03*
X161300000Y-128750000D03*
X162800000Y-128750000D03*
%TD*%
D14*
%TO.C,R3*%
X146675000Y-112500000D03*
X148325000Y-112500000D03*
%TD*%
D15*
%TO.C,C1*%
X121000000Y-109475000D03*
X121000000Y-106525000D03*
%TD*%
D14*
%TO.C,R7*%
X148675000Y-132000000D03*
X150325000Y-132000000D03*
%TD*%
D16*
%TO.C,U1*%
X126362500Y-107050000D03*
X126362500Y-108000000D03*
X126362500Y-108950000D03*
X128637500Y-108950000D03*
X128637500Y-108000000D03*
X128637500Y-107050000D03*
%TD*%
D17*
%TO.C,C6*%
X160050000Y-107600000D03*
X161950000Y-107600000D03*
%TD*%
D11*
%TO.C,C3*%
X126725000Y-104500000D03*
X128275000Y-104500000D03*
%TD*%
D18*
%TO.C,SW1*%
X112000000Y-131625000D03*
X118000000Y-131625000D03*
X112000000Y-135375000D03*
X118000000Y-135375000D03*
%TD*%
D14*
%TO.C,R5*%
X119175000Y-121500000D03*
X120825000Y-121500000D03*
%TD*%
%TO.C,R6*%
X116675000Y-127000000D03*
X118325000Y-127000000D03*
%TD*%
%TO.C,R1*%
X153175000Y-107600000D03*
X154825000Y-107600000D03*
%TD*%
D11*
%TO.C,C7*%
X156725000Y-107600000D03*
X158275000Y-107600000D03*
%TD*%
D18*
%TO.C,SW2*%
X139500000Y-131625000D03*
X145500000Y-131625000D03*
X139500000Y-135375000D03*
X145500000Y-135375000D03*
%TD*%
D19*
%TO.C,C2*%
X123500000Y-108775000D03*
X123500000Y-107225000D03*
%TD*%
D10*
%TO.C,D1*%
X113500000Y-111500000D03*
X117500000Y-111500000D03*
%TD*%
D20*
%TO.C,C4*%
X137000000Y-108950000D03*
X137000000Y-107050000D03*
%TD*%
D21*
%TO.C,D4*%
X148712500Y-134600000D03*
X150287500Y-134600000D03*
%TD*%
D22*
%TO.C,R8*%
X122500000Y-131825000D03*
X122500000Y-130175000D03*
%TD*%
D23*
%TO.C,Q1*%
X112062500Y-123050000D03*
X112062500Y-124950000D03*
X113937500Y-124000000D03*
%TD*%
D24*
%TO.C,J3*%
X126750000Y-130154999D03*
X127550000Y-130154999D03*
D25*
X128750000Y-130154999D03*
X129750000Y-130154999D03*
X130250000Y-130154999D03*
X131250000Y-130154999D03*
D24*
X132450000Y-130154999D03*
X133250000Y-130154999D03*
X133250000Y-130154999D03*
X132450000Y-130154999D03*
D25*
X131750000Y-130154999D03*
X130750000Y-130154999D03*
X129250000Y-130154999D03*
X128250000Y-130154999D03*
D24*
X127550000Y-130154999D03*
X126750000Y-130154999D03*
%TD*%
D14*
%TO.C,R4*%
X152675000Y-132000000D03*
X154325000Y-132000000D03*
%TD*%
D22*
%TO.C,R9*%
X137000000Y-131825000D03*
X137000000Y-130175000D03*
%TD*%
D26*
%TO.C,L1*%
X131000000Y-108000000D03*
X134000000Y-108000000D03*
%TD*%
D14*
%TO.C,R2*%
X146675000Y-110000000D03*
X148325000Y-110000000D03*
%TD*%
D20*
%TO.C,C5*%
X139500000Y-108950000D03*
X139500000Y-107050000D03*
%TD*%
D27*
%TO.C,F1*%
X113362500Y-103500000D03*
X117637500Y-103500000D03*
%TD*%
M02*
