%TF.GenerationSoftware,KiCad,Pcbnew,7.0.11+dfsg-1build4*%
%TF.CreationDate,2026-10-08T21:22:42+03:00*%
%TF.ProjectId,ledctl,6c656463-746c-42e6-9b69-6361645f7063,rev?*%
%TF.SameCoordinates,Original*%
%TF.FileFunction,Legend,Top*%
%TF.FilePolarity,Positive*%
%FSLAX46Y46*%
G04 Gerber Fmt 4.6, Leading zero omitted, Abs format (unit mm)*
G04 Created by KiCad (PCBNEW 7.0.11+dfsg-1build4) date 2026-10-08 21:22:42*
%MOMM*%
%LPD*%
G01*
G04 APERTURE LIST*
%ADD10C,0.000000*%
%ADD11C,0.135000*%
%ADD12C,0.240000*%
%ADD13C,0.210000*%
%ADD14C,0.120000*%
G04 APERTURE END LIST*
D10*
G36*
X134695702Y-110829508D02*
G01*
X134870564Y-110897487D01*
X135046008Y-111015135D01*
X135137874Y-111114584D01*
X135368820Y-111081499D01*
X135628401Y-111124861D01*
X135829238Y-111221685D01*
X135983284Y-111348107D01*
X136113376Y-111518762D01*
X136159139Y-111618137D01*
X136359824Y-111655460D01*
X136617331Y-111797496D01*
X136768584Y-111949708D01*
X136860745Y-112097574D01*
X136921928Y-112260615D01*
X136944343Y-112423483D01*
X137162254Y-112572935D01*
X137330767Y-112808018D01*
X137391054Y-112968493D01*
X137418000Y-113128644D01*
X137410959Y-113324187D01*
X137984198Y-113324187D01*
X138535088Y-112773297D01*
X139428605Y-112773297D01*
X139456094Y-112839660D01*
X139506886Y-112890452D01*
X139573248Y-112917940D01*
X139645079Y-112917940D01*
X139711442Y-112890452D01*
X139762234Y-112839660D01*
X139789722Y-112773297D01*
X139789722Y-112701467D01*
X139762234Y-112635104D01*
X139711442Y-112584312D01*
X139645079Y-112556824D01*
X139573248Y-112556824D01*
X139506886Y-112584312D01*
X139456094Y-112635104D01*
X139428605Y-112701467D01*
X139428605Y-112773297D01*
X138535088Y-112773297D01*
X138644227Y-112664158D01*
X138677822Y-112641711D01*
X138717450Y-112633828D01*
X139232299Y-112633828D01*
X139264153Y-112552970D01*
X139332541Y-112460759D01*
X139424752Y-112392371D01*
X139532844Y-112353696D01*
X139609164Y-112346179D01*
X139722724Y-112363024D01*
X139793576Y-112392371D01*
X139857340Y-112434978D01*
X139934437Y-112520041D01*
X139970588Y-112587675D01*
X139998483Y-112699037D01*
X139998483Y-112775727D01*
X139983522Y-112850942D01*
X139934437Y-112954723D01*
X139857340Y-113039786D01*
X139758871Y-113098807D01*
X139685484Y-113121068D01*
X139609164Y-113128585D01*
X139532844Y-113121068D01*
X139424752Y-113082392D01*
X139360987Y-113039786D01*
X139306759Y-112985559D01*
X139264153Y-112921794D01*
X139232299Y-112840936D01*
X138760344Y-112840936D01*
X138075907Y-113519067D01*
X138027092Y-113531294D01*
X137437183Y-113531294D01*
X137495857Y-113619242D01*
X137577451Y-113899486D01*
X139462419Y-113899486D01*
X139494273Y-113818628D01*
X139536879Y-113754863D01*
X139591107Y-113700635D01*
X139654871Y-113658029D01*
X139725723Y-113628681D01*
X139800939Y-113613720D01*
X139877628Y-113613720D01*
X139952844Y-113628681D01*
X140056624Y-113677766D01*
X140141687Y-113754863D01*
X140184294Y-113818628D01*
X140222970Y-113926719D01*
X140230486Y-114003039D01*
X140213641Y-114116600D01*
X140164557Y-114220380D01*
X140087460Y-114305444D01*
X139988990Y-114364464D01*
X139915603Y-114386726D01*
X139800939Y-114392359D01*
X139725723Y-114377398D01*
X139654871Y-114348050D01*
X139562661Y-114279662D01*
X139494273Y-114187451D01*
X139462419Y-114106593D01*
X137573983Y-114106593D01*
X137537931Y-114284364D01*
X137470829Y-114434104D01*
X137443397Y-114474785D01*
X138027092Y-114474785D01*
X138075907Y-114487012D01*
X138760344Y-115165143D01*
X139232299Y-115165143D01*
X139264153Y-115084285D01*
X139306759Y-115020520D01*
X139360987Y-114966293D01*
X139424752Y-114923687D01*
X139495603Y-114894339D01*
X139570819Y-114879378D01*
X139647508Y-114879378D01*
X139722724Y-114894339D01*
X139793576Y-114923687D01*
X139857340Y-114966293D01*
X139911568Y-115020520D01*
X139954174Y-115084285D01*
X139983522Y-115155137D01*
X139998483Y-115230352D01*
X139998483Y-115307042D01*
X139983522Y-115382257D01*
X139954174Y-115453109D01*
X139911568Y-115516874D01*
X139857340Y-115571101D01*
X139793576Y-115613707D01*
X139722724Y-115643055D01*
X139647508Y-115658017D01*
X139570819Y-115658017D01*
X139495603Y-115643055D01*
X139391823Y-115593971D01*
X139332541Y-115545319D01*
X139264153Y-115453109D01*
X139232299Y-115372251D01*
X138717450Y-115372251D01*
X138659919Y-115354799D01*
X138609522Y-115304612D01*
X139428605Y-115304612D01*
X139456094Y-115370975D01*
X139506886Y-115421767D01*
X139573248Y-115449255D01*
X139645079Y-115449255D01*
X139711442Y-115421767D01*
X139762234Y-115370975D01*
X139789722Y-115304612D01*
X139789722Y-115232782D01*
X139762234Y-115166419D01*
X139711442Y-115115627D01*
X139645079Y-115088139D01*
X139573248Y-115088139D01*
X139506886Y-115115627D01*
X139456094Y-115166419D01*
X139428605Y-115232782D01*
X139428605Y-115304612D01*
X138609522Y-115304612D01*
X137984198Y-114681892D01*
X137399349Y-114681892D01*
X137420548Y-114819921D01*
X137404133Y-114981491D01*
X137354044Y-115146612D01*
X137272705Y-115298788D01*
X137163385Y-115432025D01*
X136946051Y-115581440D01*
X136934589Y-115691001D01*
X136884943Y-115854994D01*
X136738067Y-116093422D01*
X136607147Y-116217514D01*
X136460616Y-116308633D01*
X136297909Y-116369732D01*
X136158225Y-116389960D01*
X136114236Y-116485856D01*
X136013727Y-116626117D01*
X135887788Y-116744071D01*
X135750140Y-116830253D01*
X135579766Y-116895971D01*
X135409520Y-116924078D01*
X135236915Y-116918413D01*
X135134852Y-116894835D01*
X135050555Y-116987116D01*
X134909631Y-117088212D01*
X134752461Y-117159425D01*
X134571167Y-117199493D01*
X134363498Y-117199535D01*
X134316430Y-117182990D01*
X134278142Y-117137304D01*
X134248370Y-117007609D01*
X134189760Y-116919893D01*
X134102697Y-116861720D01*
X134000000Y-116841292D01*
X133897302Y-116861720D01*
X133810239Y-116919893D01*
X133751629Y-117007609D01*
X133717437Y-117146356D01*
X133691708Y-117177055D01*
X133665757Y-117192353D01*
X133626439Y-117200000D01*
X133417131Y-117198800D01*
X133257310Y-117162216D01*
X132999666Y-117027872D01*
X132867386Y-116894306D01*
X132763084Y-116918413D01*
X132590479Y-116924078D01*
X132420233Y-116895971D01*
X132258741Y-116835190D01*
X132112211Y-116744071D01*
X131986272Y-116626117D01*
X131885763Y-116485856D01*
X131840860Y-116387942D01*
X131640175Y-116350619D01*
X131382668Y-116208583D01*
X131231415Y-116056371D01*
X131139254Y-115908505D01*
X131078071Y-115745464D01*
X131055656Y-115582596D01*
X130837745Y-115433144D01*
X130669232Y-115198061D01*
X130608945Y-115037585D01*
X130581999Y-114877435D01*
X130582851Y-114853761D01*
X130788002Y-114853761D01*
X130809480Y-114983852D01*
X130854715Y-115104040D01*
X130983368Y-115283575D01*
X131217968Y-115442918D01*
X131250484Y-115490409D01*
X131257953Y-115459188D01*
X131280401Y-115425593D01*
X131313996Y-115403145D01*
X131343475Y-115395761D01*
X131928923Y-115395263D01*
X131970403Y-115403933D01*
X132011767Y-115436684D01*
X132356946Y-115896923D01*
X132376453Y-115943312D01*
X132367951Y-116002828D01*
X132336235Y-116041899D01*
X132289847Y-116061406D01*
X132239740Y-116056742D01*
X132191260Y-116021188D01*
X131877147Y-115602370D01*
X131343475Y-115601872D01*
X131296093Y-115584918D01*
X131259003Y-115540664D01*
X131279578Y-115694795D01*
X131325453Y-115816682D01*
X131394175Y-115927196D01*
X131518253Y-116051274D01*
X131713194Y-116155472D01*
X131930361Y-116193308D01*
X131975993Y-116213453D01*
X132002316Y-116243634D01*
X132065562Y-116382058D01*
X132142361Y-116489231D01*
X132238595Y-116579364D01*
X132350564Y-116648991D01*
X132473966Y-116695436D01*
X132604057Y-116716914D01*
X132735689Y-116712605D01*
X132886646Y-116677421D01*
X132934642Y-116682094D01*
X132975317Y-116707997D01*
X133120815Y-116858422D01*
X133317616Y-116963614D01*
X133441142Y-116992416D01*
X133543024Y-116992677D01*
X133563373Y-116917403D01*
X133662357Y-116772011D01*
X133808082Y-116672848D01*
X133896446Y-116650725D01*
X133896446Y-115556346D01*
X133913898Y-115498815D01*
X133951185Y-115465020D01*
X134000000Y-115452793D01*
X134048814Y-115465020D01*
X134086101Y-115498815D01*
X134103055Y-115546196D01*
X134103553Y-116650725D01*
X134191917Y-116672848D01*
X134337642Y-116772011D01*
X134436626Y-116917403D01*
X134456975Y-116992677D01*
X134558857Y-116992416D01*
X134685727Y-116962835D01*
X134805827Y-116908418D01*
X134912272Y-116832141D01*
X135029421Y-116703400D01*
X135063587Y-116682723D01*
X135113043Y-116677379D01*
X135264310Y-116712605D01*
X135395942Y-116716914D01*
X135526033Y-116695436D01*
X135649435Y-116648991D01*
X135761404Y-116579364D01*
X135857638Y-116489231D01*
X135934437Y-116382058D01*
X135997854Y-116243337D01*
X136025371Y-116212414D01*
X136062800Y-116194739D01*
X136246581Y-116168432D01*
X136368794Y-116122434D01*
X136480763Y-116052807D01*
X136574491Y-115965021D01*
X136693708Y-115773305D01*
X136731010Y-115650336D01*
X136742278Y-115537795D01*
X136712068Y-115578865D01*
X136656524Y-115601872D01*
X136122852Y-115602370D01*
X135808739Y-116021188D01*
X135760259Y-116056742D01*
X135710152Y-116061406D01*
X135663764Y-116041899D01*
X135628210Y-115993418D01*
X135623546Y-115943312D01*
X135643053Y-115896923D01*
X135988232Y-115436684D01*
X136029596Y-115403933D01*
X136071076Y-115395263D01*
X136656524Y-115395761D01*
X136686003Y-115403145D01*
X136719598Y-115425593D01*
X136742046Y-115459188D01*
X136749526Y-115490635D01*
X136781739Y-115443159D01*
X137019511Y-115281625D01*
X137100084Y-115183447D01*
X137162239Y-115067163D01*
X137200514Y-114940989D01*
X137213010Y-114814107D01*
X137188797Y-114681892D01*
X135081561Y-114681892D01*
X135081561Y-115084601D01*
X134678852Y-115084601D01*
X134676862Y-115346429D01*
X134655347Y-115391921D01*
X134614927Y-115421898D01*
X134575298Y-115429781D01*
X134535670Y-115421898D01*
X134502075Y-115399451D01*
X134479627Y-115365855D01*
X134471745Y-115326227D01*
X134471745Y-115084601D01*
X134103553Y-115084601D01*
X134099094Y-115356287D01*
X134086101Y-115383758D01*
X134057531Y-115412329D01*
X134000000Y-115429781D01*
X133942468Y-115412329D01*
X133913898Y-115383758D01*
X133900905Y-115356287D01*
X133896446Y-115084601D01*
X133528254Y-115084601D01*
X133523795Y-115356287D01*
X133510802Y-115383758D01*
X133482232Y-115412329D01*
X133424701Y-115429781D01*
X133367169Y-115412329D01*
X133338599Y-115383758D01*
X133325606Y-115356287D01*
X133321147Y-115084601D01*
X132918438Y-115084601D01*
X132918438Y-114681892D01*
X130802654Y-114681892D01*
X130792284Y-114722940D01*
X130788002Y-114853761D01*
X130582851Y-114853761D01*
X130589040Y-114681892D01*
X130015801Y-114681892D01*
X129355772Y-115341921D01*
X129312609Y-115367792D01*
X128767700Y-115372251D01*
X128716109Y-115486038D01*
X128639012Y-115571101D01*
X128540542Y-115630122D01*
X128429180Y-115658017D01*
X128352491Y-115658017D01*
X128277275Y-115643055D01*
X128206423Y-115613707D01*
X128114213Y-115545319D01*
X128045825Y-115453109D01*
X128016477Y-115382257D01*
X128004959Y-115304612D01*
X128210277Y-115304612D01*
X128237765Y-115370975D01*
X128288557Y-115421767D01*
X128354920Y-115449255D01*
X128426751Y-115449255D01*
X128493113Y-115421767D01*
X128543905Y-115370975D01*
X128571394Y-115304612D01*
X128571394Y-115232782D01*
X128543905Y-115166419D01*
X128493113Y-115115627D01*
X128426751Y-115088139D01*
X128354920Y-115088139D01*
X128288557Y-115115627D01*
X128237765Y-115166419D01*
X128210277Y-115232782D01*
X128210277Y-115304612D01*
X128004959Y-115304612D01*
X127999632Y-115268697D01*
X128007149Y-115192377D01*
X128029411Y-115118990D01*
X128088431Y-115020520D01*
X128173494Y-114943423D01*
X128241128Y-114907272D01*
X128314515Y-114885011D01*
X128429180Y-114879378D01*
X128504396Y-114894339D01*
X128575247Y-114923687D01*
X128639012Y-114966293D01*
X128693240Y-115020520D01*
X128735846Y-115084285D01*
X128767700Y-115165143D01*
X129239655Y-115165143D01*
X129924092Y-114487012D01*
X129972907Y-114474785D01*
X130562816Y-114474785D01*
X130504142Y-114386837D01*
X130422639Y-114106593D01*
X130634960Y-114106593D01*
X130693850Y-114300727D01*
X130815479Y-114474785D01*
X132918438Y-114474785D01*
X132918438Y-114106593D01*
X130634960Y-114106593D01*
X130422639Y-114106593D01*
X128537580Y-114106593D01*
X128485989Y-114220380D01*
X128408892Y-114305444D01*
X128310423Y-114364464D01*
X128199060Y-114392359D01*
X128122371Y-114392359D01*
X128047155Y-114377398D01*
X127976304Y-114348050D01*
X127884093Y-114279662D01*
X127815705Y-114187451D01*
X127786358Y-114116600D01*
X127774841Y-114038955D01*
X127980157Y-114038955D01*
X128007646Y-114105318D01*
X128058438Y-114156109D01*
X128124800Y-114183598D01*
X128196631Y-114183598D01*
X128262994Y-114156109D01*
X128313786Y-114105318D01*
X128341274Y-114038955D01*
X128341274Y-113967124D01*
X128313786Y-113900761D01*
X128262994Y-113849970D01*
X128196631Y-113822481D01*
X128124800Y-113822481D01*
X128058438Y-113849970D01*
X128007646Y-113900761D01*
X127980157Y-113967124D01*
X127980157Y-114038955D01*
X127774841Y-114038955D01*
X127769513Y-114003039D01*
X127786358Y-113889479D01*
X127835442Y-113785699D01*
X127912539Y-113700635D01*
X127976304Y-113658029D01*
X128084396Y-113619353D01*
X128160716Y-113611836D01*
X128237036Y-113619353D01*
X128310423Y-113641615D01*
X128378057Y-113677766D01*
X128437338Y-113726417D01*
X128485989Y-113785699D01*
X128537580Y-113899486D01*
X130422657Y-113899486D01*
X130632925Y-113899486D01*
X132918438Y-113899486D01*
X132918438Y-113531294D01*
X130815407Y-113531294D01*
X130713146Y-113667758D01*
X130659191Y-113786840D01*
X130632925Y-113899486D01*
X130422657Y-113899486D01*
X130462600Y-113720106D01*
X130529170Y-113571975D01*
X130556602Y-113531294D01*
X129972907Y-113531294D01*
X129924092Y-113519067D01*
X129239655Y-112840936D01*
X128767700Y-112840936D01*
X128716109Y-112954723D01*
X128639012Y-113039786D01*
X128540542Y-113098807D01*
X128429180Y-113126701D01*
X128314515Y-113121068D01*
X128206423Y-113082392D01*
X128142659Y-113039786D01*
X128065562Y-112954723D01*
X128029411Y-112887089D01*
X128007149Y-112813702D01*
X128003169Y-112773297D01*
X128210277Y-112773297D01*
X128237765Y-112839660D01*
X128288557Y-112890452D01*
X128354920Y-112917940D01*
X128426751Y-112917940D01*
X128493113Y-112890452D01*
X128543905Y-112839660D01*
X128571394Y-112773297D01*
X128571394Y-112701467D01*
X128543905Y-112635104D01*
X128493113Y-112584312D01*
X128426751Y-112556824D01*
X128354920Y-112556824D01*
X128288557Y-112584312D01*
X128237765Y-112635104D01*
X128210277Y-112701467D01*
X128210277Y-112773297D01*
X128003169Y-112773297D01*
X127999632Y-112737382D01*
X128007149Y-112661062D01*
X128029411Y-112587675D01*
X128065562Y-112520041D01*
X128114213Y-112460759D01*
X128173494Y-112412108D01*
X128241128Y-112375957D01*
X128314515Y-112353696D01*
X128390835Y-112346179D01*
X128467155Y-112353696D01*
X128540542Y-112375957D01*
X128608176Y-112412108D01*
X128667458Y-112460759D01*
X128716109Y-112520041D01*
X128767700Y-112633828D01*
X129282549Y-112633828D01*
X129340080Y-112651280D01*
X130015801Y-113324187D01*
X130600650Y-113324187D01*
X130580344Y-113191972D01*
X130786989Y-113191972D01*
X130811202Y-113324187D01*
X132918438Y-113324187D01*
X132918438Y-113128585D01*
X133125545Y-113128585D01*
X133125545Y-114877494D01*
X134874454Y-114877494D01*
X134874454Y-114106593D01*
X135081561Y-114106593D01*
X135081561Y-114474785D01*
X137184592Y-114474785D01*
X137286853Y-114338321D01*
X137340101Y-114220800D01*
X137362818Y-114106593D01*
X135081561Y-114106593D01*
X134874454Y-114106593D01*
X134874454Y-114038955D01*
X139658725Y-114038955D01*
X139686213Y-114105318D01*
X139737005Y-114156109D01*
X139803368Y-114183598D01*
X139875199Y-114183598D01*
X139941561Y-114156109D01*
X139992353Y-114105318D01*
X140019842Y-114038955D01*
X140019842Y-113967124D01*
X139992353Y-113900761D01*
X139941561Y-113849970D01*
X139875199Y-113822481D01*
X139803368Y-113822481D01*
X139737005Y-113849970D01*
X139686213Y-113900761D01*
X139658725Y-113967124D01*
X139658725Y-114038955D01*
X134874454Y-114038955D01*
X134874454Y-113531294D01*
X135081561Y-113531294D01*
X135081561Y-113899486D01*
X137365039Y-113899486D01*
X137306149Y-113705352D01*
X137184520Y-113531294D01*
X135081561Y-113531294D01*
X134874454Y-113531294D01*
X134874454Y-113128585D01*
X133125545Y-113128585D01*
X132918438Y-113128585D01*
X132918438Y-112921478D01*
X133321147Y-112921478D01*
X133325606Y-112649792D01*
X133344652Y-112614158D01*
X133367169Y-112593750D01*
X133424701Y-112576298D01*
X133482232Y-112593750D01*
X133504749Y-112614158D01*
X133523795Y-112649792D01*
X133528254Y-112921478D01*
X133896446Y-112921478D01*
X133900905Y-112649792D01*
X133919951Y-112614158D01*
X133942468Y-112593750D01*
X134000000Y-112576298D01*
X134057531Y-112593750D01*
X134080048Y-112614158D01*
X134099094Y-112649792D01*
X134103553Y-112921478D01*
X134471745Y-112921478D01*
X134471745Y-112679852D01*
X134479627Y-112640224D01*
X134502075Y-112606628D01*
X134535670Y-112584181D01*
X134575298Y-112576298D01*
X134614927Y-112584181D01*
X134655347Y-112614158D01*
X134676862Y-112659650D01*
X134678852Y-112921478D01*
X135081561Y-112921478D01*
X135081561Y-113324187D01*
X137197345Y-113324187D01*
X137207715Y-113283139D01*
X137211997Y-113152318D01*
X137190519Y-113022227D01*
X137145284Y-112902039D01*
X137016631Y-112722504D01*
X136782031Y-112563161D01*
X136749515Y-112515670D01*
X136742046Y-112546891D01*
X136719598Y-112580486D01*
X136695189Y-112598589D01*
X136656524Y-112610318D01*
X136071076Y-112610816D01*
X136029596Y-112602146D01*
X135988232Y-112569395D01*
X135643053Y-112109156D01*
X135623546Y-112062767D01*
X135628210Y-112012661D01*
X135663764Y-111964180D01*
X135710152Y-111944673D01*
X135760259Y-111949337D01*
X135808739Y-111984891D01*
X136122852Y-112403709D01*
X136656524Y-112404207D01*
X136703906Y-112421161D01*
X136740996Y-112465415D01*
X136720421Y-112311283D01*
X136674546Y-112189397D01*
X136605824Y-112078883D01*
X136481746Y-111954805D01*
X136286805Y-111850607D01*
X136069638Y-111812771D01*
X136024006Y-111792626D01*
X135997683Y-111762445D01*
X135935144Y-111625582D01*
X135826226Y-111483637D01*
X135726952Y-111402165D01*
X135569575Y-111324555D01*
X135352088Y-111288648D01*
X135116248Y-111328214D01*
X135065114Y-111323900D01*
X135029661Y-111302896D01*
X134913424Y-111175211D01*
X134765407Y-111076309D01*
X134645213Y-111031072D01*
X134454163Y-111008239D01*
X134418283Y-111126481D01*
X134278044Y-111283391D01*
X134103553Y-111362086D01*
X134101564Y-112469935D01*
X134073223Y-112522956D01*
X134048814Y-112541059D01*
X134010150Y-112552788D01*
X133951185Y-112541059D01*
X133919951Y-112515426D01*
X133904328Y-112489361D01*
X133896446Y-112449732D01*
X133896446Y-111361947D01*
X133770486Y-111315036D01*
X133664792Y-111236424D01*
X133563373Y-111088676D01*
X133543623Y-111016198D01*
X133397831Y-111021368D01*
X133233162Y-111077265D01*
X133086575Y-111175211D01*
X132970578Y-111302679D01*
X132936412Y-111323356D01*
X132886956Y-111328700D01*
X132735689Y-111293474D01*
X132604057Y-111289165D01*
X132473966Y-111310643D01*
X132350564Y-111357088D01*
X132238595Y-111426715D01*
X132142361Y-111516848D01*
X132065562Y-111624021D01*
X132002486Y-111762149D01*
X131977335Y-111791569D01*
X131933717Y-111812129D01*
X131667170Y-111867685D01*
X131555012Y-111927635D01*
X131453089Y-112011281D01*
X131369443Y-112113204D01*
X131307288Y-112229488D01*
X131268989Y-112355743D01*
X131257721Y-112468283D01*
X131287931Y-112427214D01*
X131343475Y-112404207D01*
X131877147Y-112403709D01*
X132212863Y-111963518D01*
X132259458Y-111944510D01*
X132318879Y-111953651D01*
X132363208Y-111994263D01*
X132377503Y-112052659D01*
X132356946Y-112109156D01*
X132011767Y-112569395D01*
X131970403Y-112602146D01*
X131928923Y-112610816D01*
X131343475Y-112610318D01*
X131304810Y-112598589D01*
X131280401Y-112580486D01*
X131257953Y-112546891D01*
X131250473Y-112515444D01*
X131218260Y-112562920D01*
X130980488Y-112724454D01*
X130899915Y-112822632D01*
X130837760Y-112938915D01*
X130799485Y-113065090D01*
X130786989Y-113191972D01*
X130580344Y-113191972D01*
X130579451Y-113186158D01*
X130595866Y-113024588D01*
X130645955Y-112859467D01*
X130727294Y-112707291D01*
X130836614Y-112574054D01*
X131053948Y-112424639D01*
X131065410Y-112315078D01*
X131112059Y-112159607D01*
X131202876Y-111989701D01*
X131306288Y-111864479D01*
X131448388Y-111749790D01*
X131600813Y-111670436D01*
X131839965Y-111620111D01*
X131885763Y-111520223D01*
X131986272Y-111379962D01*
X132112211Y-111262008D01*
X132249859Y-111175826D01*
X132420233Y-111110108D01*
X132590479Y-111082001D01*
X132763084Y-111087666D01*
X132865147Y-111111244D01*
X132953991Y-111015135D01*
X133145260Y-110888805D01*
X133365251Y-110815775D01*
X133623034Y-110806144D01*
X133672943Y-110816976D01*
X133711605Y-110850343D01*
X133725302Y-110877982D01*
X133751629Y-110998470D01*
X133811700Y-111088372D01*
X133873072Y-111133889D01*
X133945015Y-111159631D01*
X134052354Y-111159631D01*
X134146640Y-111120576D01*
X134236205Y-111021756D01*
X134280162Y-110864360D01*
X134328514Y-110816262D01*
X134473007Y-110800000D01*
X134695702Y-110829508D01*
G37*
G36*
X134489004Y-114492044D02*
G01*
X133510995Y-114492044D01*
X133510995Y-113514035D01*
X134489004Y-113514035D01*
X134489004Y-114492044D01*
G37*
D11*
X128857143Y-120337908D02*
X128985715Y-120380765D01*
X128985715Y-120380765D02*
X129028572Y-120423622D01*
X129028572Y-120423622D02*
X129071429Y-120509337D01*
X129071429Y-120509337D02*
X129071429Y-120637908D01*
X129071429Y-120637908D02*
X129028572Y-120723622D01*
X129028572Y-120723622D02*
X128985715Y-120766480D01*
X128985715Y-120766480D02*
X128900000Y-120809337D01*
X128900000Y-120809337D02*
X128557143Y-120809337D01*
X128557143Y-120809337D02*
X128557143Y-119909337D01*
X128557143Y-119909337D02*
X128857143Y-119909337D01*
X128857143Y-119909337D02*
X128942858Y-119952194D01*
X128942858Y-119952194D02*
X128985715Y-119995051D01*
X128985715Y-119995051D02*
X129028572Y-120080765D01*
X129028572Y-120080765D02*
X129028572Y-120166480D01*
X129028572Y-120166480D02*
X128985715Y-120252194D01*
X128985715Y-120252194D02*
X128942858Y-120295051D01*
X128942858Y-120295051D02*
X128857143Y-120337908D01*
X128857143Y-120337908D02*
X128557143Y-120337908D01*
X129457143Y-120809337D02*
X129457143Y-119909337D01*
X130314286Y-120809337D02*
X129885714Y-120809337D01*
X129885714Y-120809337D02*
X129885714Y-119909337D01*
X131085714Y-119952194D02*
X131000000Y-119909337D01*
X131000000Y-119909337D02*
X130871428Y-119909337D01*
X130871428Y-119909337D02*
X130742857Y-119952194D01*
X130742857Y-119952194D02*
X130657142Y-120037908D01*
X130657142Y-120037908D02*
X130614285Y-120123622D01*
X130614285Y-120123622D02*
X130571428Y-120295051D01*
X130571428Y-120295051D02*
X130571428Y-120423622D01*
X130571428Y-120423622D02*
X130614285Y-120595051D01*
X130614285Y-120595051D02*
X130657142Y-120680765D01*
X130657142Y-120680765D02*
X130742857Y-120766480D01*
X130742857Y-120766480D02*
X130871428Y-120809337D01*
X130871428Y-120809337D02*
X130957142Y-120809337D01*
X130957142Y-120809337D02*
X131085714Y-120766480D01*
X131085714Y-120766480D02*
X131128571Y-120723622D01*
X131128571Y-120723622D02*
X131128571Y-120423622D01*
X131128571Y-120423622D02*
X130957142Y-120423622D01*
X131514285Y-120809337D02*
X131514285Y-119909337D01*
X131942856Y-120809337D02*
X131942856Y-119909337D01*
X131942856Y-119909337D02*
X132457142Y-120809337D01*
X132457142Y-120809337D02*
X132457142Y-119909337D01*
X132885713Y-120809337D02*
X132885713Y-119909337D01*
X133314284Y-120337908D02*
X133614284Y-120337908D01*
X133742856Y-120809337D02*
X133314284Y-120809337D01*
X133314284Y-120809337D02*
X133314284Y-119909337D01*
X133314284Y-119909337D02*
X133742856Y-119909337D01*
X134642856Y-120809337D02*
X134342856Y-120380765D01*
X134128570Y-120809337D02*
X134128570Y-119909337D01*
X134128570Y-119909337D02*
X134471427Y-119909337D01*
X134471427Y-119909337D02*
X134557142Y-119952194D01*
X134557142Y-119952194D02*
X134599999Y-119995051D01*
X134599999Y-119995051D02*
X134642856Y-120080765D01*
X134642856Y-120080765D02*
X134642856Y-120209337D01*
X134642856Y-120209337D02*
X134599999Y-120295051D01*
X134599999Y-120295051D02*
X134557142Y-120337908D01*
X134557142Y-120337908D02*
X134471427Y-120380765D01*
X134471427Y-120380765D02*
X134128570Y-120380765D01*
X136399998Y-120809337D02*
X136399998Y-120209337D01*
X136399998Y-120380765D02*
X136442855Y-120295051D01*
X136442855Y-120295051D02*
X136485713Y-120252194D01*
X136485713Y-120252194D02*
X136571427Y-120209337D01*
X136571427Y-120209337D02*
X136657141Y-120209337D01*
X137299998Y-120766480D02*
X137214284Y-120809337D01*
X137214284Y-120809337D02*
X137042856Y-120809337D01*
X137042856Y-120809337D02*
X136957141Y-120766480D01*
X136957141Y-120766480D02*
X136914284Y-120680765D01*
X136914284Y-120680765D02*
X136914284Y-120337908D01*
X136914284Y-120337908D02*
X136957141Y-120252194D01*
X136957141Y-120252194D02*
X137042856Y-120209337D01*
X137042856Y-120209337D02*
X137214284Y-120209337D01*
X137214284Y-120209337D02*
X137299998Y-120252194D01*
X137299998Y-120252194D02*
X137342856Y-120337908D01*
X137342856Y-120337908D02*
X137342856Y-120423622D01*
X137342856Y-120423622D02*
X136914284Y-120509337D01*
X137642856Y-120209337D02*
X137857142Y-120809337D01*
X137857142Y-120809337D02*
X138071427Y-120209337D01*
X139057141Y-120552194D02*
X139485713Y-120552194D01*
X138971427Y-120809337D02*
X139271427Y-119909337D01*
X139271427Y-119909337D02*
X139571427Y-120809337D01*
D12*
X128314286Y-119142662D02*
X127742858Y-119142662D01*
X127742858Y-119142662D02*
X127742858Y-117942662D01*
X128714287Y-118514091D02*
X129114287Y-118514091D01*
X129285715Y-119142662D02*
X128714287Y-119142662D01*
X128714287Y-119142662D02*
X128714287Y-117942662D01*
X128714287Y-117942662D02*
X129285715Y-117942662D01*
X129800001Y-119142662D02*
X129800001Y-117942662D01*
X129800001Y-117942662D02*
X130085715Y-117942662D01*
X130085715Y-117942662D02*
X130257144Y-117999805D01*
X130257144Y-117999805D02*
X130371429Y-118114091D01*
X130371429Y-118114091D02*
X130428572Y-118228377D01*
X130428572Y-118228377D02*
X130485715Y-118456948D01*
X130485715Y-118456948D02*
X130485715Y-118628377D01*
X130485715Y-118628377D02*
X130428572Y-118856948D01*
X130428572Y-118856948D02*
X130371429Y-118971234D01*
X130371429Y-118971234D02*
X130257144Y-119085520D01*
X130257144Y-119085520D02*
X130085715Y-119142662D01*
X130085715Y-119142662D02*
X129800001Y-119142662D01*
X132600001Y-119028377D02*
X132542858Y-119085520D01*
X132542858Y-119085520D02*
X132371430Y-119142662D01*
X132371430Y-119142662D02*
X132257144Y-119142662D01*
X132257144Y-119142662D02*
X132085715Y-119085520D01*
X132085715Y-119085520D02*
X131971430Y-118971234D01*
X131971430Y-118971234D02*
X131914287Y-118856948D01*
X131914287Y-118856948D02*
X131857144Y-118628377D01*
X131857144Y-118628377D02*
X131857144Y-118456948D01*
X131857144Y-118456948D02*
X131914287Y-118228377D01*
X131914287Y-118228377D02*
X131971430Y-118114091D01*
X131971430Y-118114091D02*
X132085715Y-117999805D01*
X132085715Y-117999805D02*
X132257144Y-117942662D01*
X132257144Y-117942662D02*
X132371430Y-117942662D01*
X132371430Y-117942662D02*
X132542858Y-117999805D01*
X132542858Y-117999805D02*
X132600001Y-118056948D01*
X133285715Y-119142662D02*
X133171430Y-119085520D01*
X133171430Y-119085520D02*
X133114287Y-119028377D01*
X133114287Y-119028377D02*
X133057144Y-118914091D01*
X133057144Y-118914091D02*
X133057144Y-118571234D01*
X133057144Y-118571234D02*
X133114287Y-118456948D01*
X133114287Y-118456948D02*
X133171430Y-118399805D01*
X133171430Y-118399805D02*
X133285715Y-118342662D01*
X133285715Y-118342662D02*
X133457144Y-118342662D01*
X133457144Y-118342662D02*
X133571430Y-118399805D01*
X133571430Y-118399805D02*
X133628573Y-118456948D01*
X133628573Y-118456948D02*
X133685715Y-118571234D01*
X133685715Y-118571234D02*
X133685715Y-118914091D01*
X133685715Y-118914091D02*
X133628573Y-119028377D01*
X133628573Y-119028377D02*
X133571430Y-119085520D01*
X133571430Y-119085520D02*
X133457144Y-119142662D01*
X133457144Y-119142662D02*
X133285715Y-119142662D01*
X134200001Y-118342662D02*
X134200001Y-119142662D01*
X134200001Y-118456948D02*
X134257144Y-118399805D01*
X134257144Y-118399805D02*
X134371429Y-118342662D01*
X134371429Y-118342662D02*
X134542858Y-118342662D01*
X134542858Y-118342662D02*
X134657144Y-118399805D01*
X134657144Y-118399805D02*
X134714287Y-118514091D01*
X134714287Y-118514091D02*
X134714287Y-119142662D01*
X135114286Y-118342662D02*
X135571429Y-118342662D01*
X135285715Y-117942662D02*
X135285715Y-118971234D01*
X135285715Y-118971234D02*
X135342858Y-119085520D01*
X135342858Y-119085520D02*
X135457143Y-119142662D01*
X135457143Y-119142662D02*
X135571429Y-119142662D01*
X135971429Y-119142662D02*
X135971429Y-118342662D01*
X135971429Y-118571234D02*
X136028572Y-118456948D01*
X136028572Y-118456948D02*
X136085715Y-118399805D01*
X136085715Y-118399805D02*
X136200000Y-118342662D01*
X136200000Y-118342662D02*
X136314286Y-118342662D01*
X136885714Y-119142662D02*
X136771429Y-119085520D01*
X136771429Y-119085520D02*
X136714286Y-119028377D01*
X136714286Y-119028377D02*
X136657143Y-118914091D01*
X136657143Y-118914091D02*
X136657143Y-118571234D01*
X136657143Y-118571234D02*
X136714286Y-118456948D01*
X136714286Y-118456948D02*
X136771429Y-118399805D01*
X136771429Y-118399805D02*
X136885714Y-118342662D01*
X136885714Y-118342662D02*
X137057143Y-118342662D01*
X137057143Y-118342662D02*
X137171429Y-118399805D01*
X137171429Y-118399805D02*
X137228572Y-118456948D01*
X137228572Y-118456948D02*
X137285714Y-118571234D01*
X137285714Y-118571234D02*
X137285714Y-118914091D01*
X137285714Y-118914091D02*
X137228572Y-119028377D01*
X137228572Y-119028377D02*
X137171429Y-119085520D01*
X137171429Y-119085520D02*
X137057143Y-119142662D01*
X137057143Y-119142662D02*
X136885714Y-119142662D01*
X137971428Y-119142662D02*
X137857143Y-119085520D01*
X137857143Y-119085520D02*
X137800000Y-118971234D01*
X137800000Y-118971234D02*
X137800000Y-117942662D01*
X138599999Y-119142662D02*
X138485714Y-119085520D01*
X138485714Y-119085520D02*
X138428571Y-118971234D01*
X138428571Y-118971234D02*
X138428571Y-117942662D01*
X139514285Y-119085520D02*
X139399999Y-119142662D01*
X139399999Y-119142662D02*
X139171428Y-119142662D01*
X139171428Y-119142662D02*
X139057142Y-119085520D01*
X139057142Y-119085520D02*
X138999999Y-118971234D01*
X138999999Y-118971234D02*
X138999999Y-118514091D01*
X138999999Y-118514091D02*
X139057142Y-118399805D01*
X139057142Y-118399805D02*
X139171428Y-118342662D01*
X139171428Y-118342662D02*
X139399999Y-118342662D01*
X139399999Y-118342662D02*
X139514285Y-118399805D01*
X139514285Y-118399805D02*
X139571428Y-118514091D01*
X139571428Y-118514091D02*
X139571428Y-118628377D01*
X139571428Y-118628377D02*
X138999999Y-118742662D01*
X140085713Y-119142662D02*
X140085713Y-118342662D01*
X140085713Y-118571234D02*
X140142856Y-118456948D01*
X140142856Y-118456948D02*
X140199999Y-118399805D01*
X140199999Y-118399805D02*
X140314284Y-118342662D01*
X140314284Y-118342662D02*
X140428570Y-118342662D01*
D13*
X100766667Y-127203413D02*
X101833334Y-127203413D01*
X100766667Y-104603413D02*
X101833334Y-104603413D01*
X101300000Y-105136746D02*
X101300000Y-104070080D01*
X100766667Y-122103413D02*
X101833334Y-122103413D01*
X101300000Y-122636746D02*
X101300000Y-121570080D01*
X100766667Y-109703413D02*
X101833334Y-109703413D01*
D14*
X124409524Y-121863855D02*
X124409524Y-121063855D01*
X124409524Y-121063855D02*
X124600000Y-121063855D01*
X124600000Y-121063855D02*
X124714286Y-121101950D01*
X124714286Y-121101950D02*
X124790476Y-121178140D01*
X124790476Y-121178140D02*
X124828571Y-121254331D01*
X124828571Y-121254331D02*
X124866667Y-121406712D01*
X124866667Y-121406712D02*
X124866667Y-121520998D01*
X124866667Y-121520998D02*
X124828571Y-121673379D01*
X124828571Y-121673379D02*
X124790476Y-121749569D01*
X124790476Y-121749569D02*
X124714286Y-121825760D01*
X124714286Y-121825760D02*
X124600000Y-121863855D01*
X124600000Y-121863855D02*
X124409524Y-121863855D01*
X125171428Y-121140045D02*
X125209524Y-121101950D01*
X125209524Y-121101950D02*
X125285714Y-121063855D01*
X125285714Y-121063855D02*
X125476190Y-121063855D01*
X125476190Y-121063855D02*
X125552381Y-121101950D01*
X125552381Y-121101950D02*
X125590476Y-121140045D01*
X125590476Y-121140045D02*
X125628571Y-121216236D01*
X125628571Y-121216236D02*
X125628571Y-121292426D01*
X125628571Y-121292426D02*
X125590476Y-121406712D01*
X125590476Y-121406712D02*
X125133333Y-121863855D01*
X125133333Y-121863855D02*
X125628571Y-121863855D01*
X150366667Y-106457664D02*
X150328571Y-106495760D01*
X150328571Y-106495760D02*
X150214286Y-106533855D01*
X150214286Y-106533855D02*
X150138095Y-106533855D01*
X150138095Y-106533855D02*
X150023809Y-106495760D01*
X150023809Y-106495760D02*
X149947619Y-106419569D01*
X149947619Y-106419569D02*
X149909524Y-106343379D01*
X149909524Y-106343379D02*
X149871428Y-106190998D01*
X149871428Y-106190998D02*
X149871428Y-106076712D01*
X149871428Y-106076712D02*
X149909524Y-105924331D01*
X149909524Y-105924331D02*
X149947619Y-105848140D01*
X149947619Y-105848140D02*
X150023809Y-105771950D01*
X150023809Y-105771950D02*
X150138095Y-105733855D01*
X150138095Y-105733855D02*
X150214286Y-105733855D01*
X150214286Y-105733855D02*
X150328571Y-105771950D01*
X150328571Y-105771950D02*
X150366667Y-105810045D01*
X150823809Y-106076712D02*
X150747619Y-106038617D01*
X150747619Y-106038617D02*
X150709524Y-106000521D01*
X150709524Y-106000521D02*
X150671428Y-105924331D01*
X150671428Y-105924331D02*
X150671428Y-105886236D01*
X150671428Y-105886236D02*
X150709524Y-105810045D01*
X150709524Y-105810045D02*
X150747619Y-105771950D01*
X150747619Y-105771950D02*
X150823809Y-105733855D01*
X150823809Y-105733855D02*
X150976190Y-105733855D01*
X150976190Y-105733855D02*
X151052381Y-105771950D01*
X151052381Y-105771950D02*
X151090476Y-105810045D01*
X151090476Y-105810045D02*
X151128571Y-105886236D01*
X151128571Y-105886236D02*
X151128571Y-105924331D01*
X151128571Y-105924331D02*
X151090476Y-106000521D01*
X151090476Y-106000521D02*
X151052381Y-106038617D01*
X151052381Y-106038617D02*
X150976190Y-106076712D01*
X150976190Y-106076712D02*
X150823809Y-106076712D01*
X150823809Y-106076712D02*
X150747619Y-106114807D01*
X150747619Y-106114807D02*
X150709524Y-106152902D01*
X150709524Y-106152902D02*
X150671428Y-106229093D01*
X150671428Y-106229093D02*
X150671428Y-106381474D01*
X150671428Y-106381474D02*
X150709524Y-106457664D01*
X150709524Y-106457664D02*
X150747619Y-106495760D01*
X150747619Y-106495760D02*
X150823809Y-106533855D01*
X150823809Y-106533855D02*
X150976190Y-106533855D01*
X150976190Y-106533855D02*
X151052381Y-106495760D01*
X151052381Y-106495760D02*
X151090476Y-106457664D01*
X151090476Y-106457664D02*
X151128571Y-106381474D01*
X151128571Y-106381474D02*
X151128571Y-106229093D01*
X151128571Y-106229093D02*
X151090476Y-106152902D01*
X151090476Y-106152902D02*
X151052381Y-106114807D01*
X151052381Y-106114807D02*
X150976190Y-106076712D01*
X114909524Y-105363855D02*
X114909524Y-104563855D01*
X114909524Y-104563855D02*
X115100000Y-104563855D01*
X115100000Y-104563855D02*
X115214286Y-104601950D01*
X115214286Y-104601950D02*
X115290476Y-104678140D01*
X115290476Y-104678140D02*
X115328571Y-104754331D01*
X115328571Y-104754331D02*
X115366667Y-104906712D01*
X115366667Y-104906712D02*
X115366667Y-105020998D01*
X115366667Y-105020998D02*
X115328571Y-105173379D01*
X115328571Y-105173379D02*
X115290476Y-105249569D01*
X115290476Y-105249569D02*
X115214286Y-105325760D01*
X115214286Y-105325760D02*
X115100000Y-105363855D01*
X115100000Y-105363855D02*
X114909524Y-105363855D01*
X115633333Y-104563855D02*
X116128571Y-104563855D01*
X116128571Y-104563855D02*
X115861905Y-104868617D01*
X115861905Y-104868617D02*
X115976190Y-104868617D01*
X115976190Y-104868617D02*
X116052381Y-104906712D01*
X116052381Y-104906712D02*
X116090476Y-104944807D01*
X116090476Y-104944807D02*
X116128571Y-105020998D01*
X116128571Y-105020998D02*
X116128571Y-105211474D01*
X116128571Y-105211474D02*
X116090476Y-105287664D01*
X116090476Y-105287664D02*
X116052381Y-105325760D01*
X116052381Y-105325760D02*
X115976190Y-105363855D01*
X115976190Y-105363855D02*
X115747619Y-105363855D01*
X115747619Y-105363855D02*
X115671428Y-105325760D01*
X115671428Y-105325760D02*
X115633333Y-105287664D01*
X151060476Y-109063855D02*
X151060476Y-109711474D01*
X151060476Y-109711474D02*
X151098571Y-109787664D01*
X151098571Y-109787664D02*
X151136666Y-109825760D01*
X151136666Y-109825760D02*
X151212857Y-109863855D01*
X151212857Y-109863855D02*
X151365238Y-109863855D01*
X151365238Y-109863855D02*
X151441428Y-109825760D01*
X151441428Y-109825760D02*
X151479523Y-109787664D01*
X151479523Y-109787664D02*
X151517619Y-109711474D01*
X151517619Y-109711474D02*
X151517619Y-109063855D01*
X151860475Y-109140045D02*
X151898571Y-109101950D01*
X151898571Y-109101950D02*
X151974761Y-109063855D01*
X151974761Y-109063855D02*
X152165237Y-109063855D01*
X152165237Y-109063855D02*
X152241428Y-109101950D01*
X152241428Y-109101950D02*
X152279523Y-109140045D01*
X152279523Y-109140045D02*
X152317618Y-109216236D01*
X152317618Y-109216236D02*
X152317618Y-109292426D01*
X152317618Y-109292426D02*
X152279523Y-109406712D01*
X152279523Y-109406712D02*
X151822380Y-109863855D01*
X151822380Y-109863855D02*
X152317618Y-109863855D01*
X141233855Y-102766666D02*
X141805283Y-102766666D01*
X141805283Y-102766666D02*
X141919569Y-102804761D01*
X141919569Y-102804761D02*
X141995760Y-102880952D01*
X141995760Y-102880952D02*
X142033855Y-102995237D01*
X142033855Y-102995237D02*
X142033855Y-103071428D01*
X141500521Y-102042856D02*
X142033855Y-102042856D01*
X141195760Y-102233332D02*
X141767188Y-102423809D01*
X141767188Y-102423809D02*
X141767188Y-101928570D01*
X147366667Y-111433855D02*
X147100000Y-111052902D01*
X146909524Y-111433855D02*
X146909524Y-110633855D01*
X146909524Y-110633855D02*
X147214286Y-110633855D01*
X147214286Y-110633855D02*
X147290476Y-110671950D01*
X147290476Y-110671950D02*
X147328571Y-110710045D01*
X147328571Y-110710045D02*
X147366667Y-110786236D01*
X147366667Y-110786236D02*
X147366667Y-110900521D01*
X147366667Y-110900521D02*
X147328571Y-110976712D01*
X147328571Y-110976712D02*
X147290476Y-111014807D01*
X147290476Y-111014807D02*
X147214286Y-111052902D01*
X147214286Y-111052902D02*
X146909524Y-111052902D01*
X147633333Y-110633855D02*
X148128571Y-110633855D01*
X148128571Y-110633855D02*
X147861905Y-110938617D01*
X147861905Y-110938617D02*
X147976190Y-110938617D01*
X147976190Y-110938617D02*
X148052381Y-110976712D01*
X148052381Y-110976712D02*
X148090476Y-111014807D01*
X148090476Y-111014807D02*
X148128571Y-111090998D01*
X148128571Y-111090998D02*
X148128571Y-111281474D01*
X148128571Y-111281474D02*
X148090476Y-111357664D01*
X148090476Y-111357664D02*
X148052381Y-111395760D01*
X148052381Y-111395760D02*
X147976190Y-111433855D01*
X147976190Y-111433855D02*
X147747619Y-111433855D01*
X147747619Y-111433855D02*
X147671428Y-111395760D01*
X147671428Y-111395760D02*
X147633333Y-111357664D01*
X110823855Y-124806666D02*
X111395283Y-124806666D01*
X111395283Y-124806666D02*
X111509569Y-124844761D01*
X111509569Y-124844761D02*
X111585760Y-124920952D01*
X111585760Y-124920952D02*
X111623855Y-125035237D01*
X111623855Y-125035237D02*
X111623855Y-125111428D01*
X110900045Y-124463809D02*
X110861950Y-124425713D01*
X110861950Y-124425713D02*
X110823855Y-124349523D01*
X110823855Y-124349523D02*
X110823855Y-124159047D01*
X110823855Y-124159047D02*
X110861950Y-124082856D01*
X110861950Y-124082856D02*
X110900045Y-124044761D01*
X110900045Y-124044761D02*
X110976236Y-124006666D01*
X110976236Y-124006666D02*
X111052426Y-124006666D01*
X111052426Y-124006666D02*
X111166712Y-124044761D01*
X111166712Y-124044761D02*
X111623855Y-124501904D01*
X111623855Y-124501904D02*
X111623855Y-124006666D01*
X119437664Y-108133332D02*
X119475760Y-108171428D01*
X119475760Y-108171428D02*
X119513855Y-108285713D01*
X119513855Y-108285713D02*
X119513855Y-108361904D01*
X119513855Y-108361904D02*
X119475760Y-108476190D01*
X119475760Y-108476190D02*
X119399569Y-108552380D01*
X119399569Y-108552380D02*
X119323379Y-108590475D01*
X119323379Y-108590475D02*
X119170998Y-108628571D01*
X119170998Y-108628571D02*
X119056712Y-108628571D01*
X119056712Y-108628571D02*
X118904331Y-108590475D01*
X118904331Y-108590475D02*
X118828140Y-108552380D01*
X118828140Y-108552380D02*
X118751950Y-108476190D01*
X118751950Y-108476190D02*
X118713855Y-108361904D01*
X118713855Y-108361904D02*
X118713855Y-108285713D01*
X118713855Y-108285713D02*
X118751950Y-108171428D01*
X118751950Y-108171428D02*
X118790045Y-108133332D01*
X119513855Y-107371428D02*
X119513855Y-107828571D01*
X119513855Y-107599999D02*
X118713855Y-107599999D01*
X118713855Y-107599999D02*
X118828140Y-107676190D01*
X118828140Y-107676190D02*
X118904331Y-107752380D01*
X118904331Y-107752380D02*
X118942426Y-107828571D01*
X149366667Y-130933855D02*
X149100000Y-130552902D01*
X148909524Y-130933855D02*
X148909524Y-130133855D01*
X148909524Y-130133855D02*
X149214286Y-130133855D01*
X149214286Y-130133855D02*
X149290476Y-130171950D01*
X149290476Y-130171950D02*
X149328571Y-130210045D01*
X149328571Y-130210045D02*
X149366667Y-130286236D01*
X149366667Y-130286236D02*
X149366667Y-130400521D01*
X149366667Y-130400521D02*
X149328571Y-130476712D01*
X149328571Y-130476712D02*
X149290476Y-130514807D01*
X149290476Y-130514807D02*
X149214286Y-130552902D01*
X149214286Y-130552902D02*
X148909524Y-130552902D01*
X149633333Y-130133855D02*
X150166667Y-130133855D01*
X150166667Y-130133855D02*
X149823809Y-130933855D01*
X126890476Y-105163855D02*
X126890476Y-105811474D01*
X126890476Y-105811474D02*
X126928571Y-105887664D01*
X126928571Y-105887664D02*
X126966666Y-105925760D01*
X126966666Y-105925760D02*
X127042857Y-105963855D01*
X127042857Y-105963855D02*
X127195238Y-105963855D01*
X127195238Y-105963855D02*
X127271428Y-105925760D01*
X127271428Y-105925760D02*
X127309523Y-105887664D01*
X127309523Y-105887664D02*
X127347619Y-105811474D01*
X127347619Y-105811474D02*
X127347619Y-105163855D01*
X128147618Y-105963855D02*
X127690475Y-105963855D01*
X127919047Y-105963855D02*
X127919047Y-105163855D01*
X127919047Y-105163855D02*
X127842856Y-105278140D01*
X127842856Y-105278140D02*
X127766666Y-105354331D01*
X127766666Y-105354331D02*
X127690475Y-105392426D01*
X160866667Y-106207664D02*
X160828571Y-106245760D01*
X160828571Y-106245760D02*
X160714286Y-106283855D01*
X160714286Y-106283855D02*
X160638095Y-106283855D01*
X160638095Y-106283855D02*
X160523809Y-106245760D01*
X160523809Y-106245760D02*
X160447619Y-106169569D01*
X160447619Y-106169569D02*
X160409524Y-106093379D01*
X160409524Y-106093379D02*
X160371428Y-105940998D01*
X160371428Y-105940998D02*
X160371428Y-105826712D01*
X160371428Y-105826712D02*
X160409524Y-105674331D01*
X160409524Y-105674331D02*
X160447619Y-105598140D01*
X160447619Y-105598140D02*
X160523809Y-105521950D01*
X160523809Y-105521950D02*
X160638095Y-105483855D01*
X160638095Y-105483855D02*
X160714286Y-105483855D01*
X160714286Y-105483855D02*
X160828571Y-105521950D01*
X160828571Y-105521950D02*
X160866667Y-105560045D01*
X161552381Y-105483855D02*
X161400000Y-105483855D01*
X161400000Y-105483855D02*
X161323809Y-105521950D01*
X161323809Y-105521950D02*
X161285714Y-105560045D01*
X161285714Y-105560045D02*
X161209524Y-105674331D01*
X161209524Y-105674331D02*
X161171428Y-105826712D01*
X161171428Y-105826712D02*
X161171428Y-106131474D01*
X161171428Y-106131474D02*
X161209524Y-106207664D01*
X161209524Y-106207664D02*
X161247619Y-106245760D01*
X161247619Y-106245760D02*
X161323809Y-106283855D01*
X161323809Y-106283855D02*
X161476190Y-106283855D01*
X161476190Y-106283855D02*
X161552381Y-106245760D01*
X161552381Y-106245760D02*
X161590476Y-106207664D01*
X161590476Y-106207664D02*
X161628571Y-106131474D01*
X161628571Y-106131474D02*
X161628571Y-105940998D01*
X161628571Y-105940998D02*
X161590476Y-105864807D01*
X161590476Y-105864807D02*
X161552381Y-105826712D01*
X161552381Y-105826712D02*
X161476190Y-105788617D01*
X161476190Y-105788617D02*
X161323809Y-105788617D01*
X161323809Y-105788617D02*
X161247619Y-105826712D01*
X161247619Y-105826712D02*
X161209524Y-105864807D01*
X161209524Y-105864807D02*
X161171428Y-105940998D01*
X127366667Y-103357664D02*
X127328571Y-103395760D01*
X127328571Y-103395760D02*
X127214286Y-103433855D01*
X127214286Y-103433855D02*
X127138095Y-103433855D01*
X127138095Y-103433855D02*
X127023809Y-103395760D01*
X127023809Y-103395760D02*
X126947619Y-103319569D01*
X126947619Y-103319569D02*
X126909524Y-103243379D01*
X126909524Y-103243379D02*
X126871428Y-103090998D01*
X126871428Y-103090998D02*
X126871428Y-102976712D01*
X126871428Y-102976712D02*
X126909524Y-102824331D01*
X126909524Y-102824331D02*
X126947619Y-102748140D01*
X126947619Y-102748140D02*
X127023809Y-102671950D01*
X127023809Y-102671950D02*
X127138095Y-102633855D01*
X127138095Y-102633855D02*
X127214286Y-102633855D01*
X127214286Y-102633855D02*
X127328571Y-102671950D01*
X127328571Y-102671950D02*
X127366667Y-102710045D01*
X127633333Y-102633855D02*
X128128571Y-102633855D01*
X128128571Y-102633855D02*
X127861905Y-102938617D01*
X127861905Y-102938617D02*
X127976190Y-102938617D01*
X127976190Y-102938617D02*
X128052381Y-102976712D01*
X128052381Y-102976712D02*
X128090476Y-103014807D01*
X128090476Y-103014807D02*
X128128571Y-103090998D01*
X128128571Y-103090998D02*
X128128571Y-103281474D01*
X128128571Y-103281474D02*
X128090476Y-103357664D01*
X128090476Y-103357664D02*
X128052381Y-103395760D01*
X128052381Y-103395760D02*
X127976190Y-103433855D01*
X127976190Y-103433855D02*
X127747619Y-103433855D01*
X127747619Y-103433855D02*
X127671428Y-103395760D01*
X127671428Y-103395760D02*
X127633333Y-103357664D01*
X113933332Y-130075760D02*
X114047618Y-130113855D01*
X114047618Y-130113855D02*
X114238094Y-130113855D01*
X114238094Y-130113855D02*
X114314285Y-130075760D01*
X114314285Y-130075760D02*
X114352380Y-130037664D01*
X114352380Y-130037664D02*
X114390475Y-129961474D01*
X114390475Y-129961474D02*
X114390475Y-129885283D01*
X114390475Y-129885283D02*
X114352380Y-129809093D01*
X114352380Y-129809093D02*
X114314285Y-129770998D01*
X114314285Y-129770998D02*
X114238094Y-129732902D01*
X114238094Y-129732902D02*
X114085713Y-129694807D01*
X114085713Y-129694807D02*
X114009523Y-129656712D01*
X114009523Y-129656712D02*
X113971428Y-129618617D01*
X113971428Y-129618617D02*
X113933332Y-129542426D01*
X113933332Y-129542426D02*
X113933332Y-129466236D01*
X113933332Y-129466236D02*
X113971428Y-129390045D01*
X113971428Y-129390045D02*
X114009523Y-129351950D01*
X114009523Y-129351950D02*
X114085713Y-129313855D01*
X114085713Y-129313855D02*
X114276190Y-129313855D01*
X114276190Y-129313855D02*
X114390475Y-129351950D01*
X114657142Y-129313855D02*
X114847618Y-130113855D01*
X114847618Y-130113855D02*
X114999999Y-129542426D01*
X114999999Y-129542426D02*
X115152380Y-130113855D01*
X115152380Y-130113855D02*
X115342857Y-129313855D01*
X116066666Y-130113855D02*
X115609523Y-130113855D01*
X115838095Y-130113855D02*
X115838095Y-129313855D01*
X115838095Y-129313855D02*
X115761904Y-129428140D01*
X115761904Y-129428140D02*
X115685714Y-129504331D01*
X115685714Y-129504331D02*
X115609523Y-129542426D01*
X119866667Y-120433855D02*
X119600000Y-120052902D01*
X119409524Y-120433855D02*
X119409524Y-119633855D01*
X119409524Y-119633855D02*
X119714286Y-119633855D01*
X119714286Y-119633855D02*
X119790476Y-119671950D01*
X119790476Y-119671950D02*
X119828571Y-119710045D01*
X119828571Y-119710045D02*
X119866667Y-119786236D01*
X119866667Y-119786236D02*
X119866667Y-119900521D01*
X119866667Y-119900521D02*
X119828571Y-119976712D01*
X119828571Y-119976712D02*
X119790476Y-120014807D01*
X119790476Y-120014807D02*
X119714286Y-120052902D01*
X119714286Y-120052902D02*
X119409524Y-120052902D01*
X120590476Y-119633855D02*
X120209524Y-119633855D01*
X120209524Y-119633855D02*
X120171428Y-120014807D01*
X120171428Y-120014807D02*
X120209524Y-119976712D01*
X120209524Y-119976712D02*
X120285714Y-119938617D01*
X120285714Y-119938617D02*
X120476190Y-119938617D01*
X120476190Y-119938617D02*
X120552381Y-119976712D01*
X120552381Y-119976712D02*
X120590476Y-120014807D01*
X120590476Y-120014807D02*
X120628571Y-120090998D01*
X120628571Y-120090998D02*
X120628571Y-120281474D01*
X120628571Y-120281474D02*
X120590476Y-120357664D01*
X120590476Y-120357664D02*
X120552381Y-120395760D01*
X120552381Y-120395760D02*
X120476190Y-120433855D01*
X120476190Y-120433855D02*
X120285714Y-120433855D01*
X120285714Y-120433855D02*
X120209524Y-120395760D01*
X120209524Y-120395760D02*
X120171428Y-120357664D01*
X117366667Y-125933855D02*
X117100000Y-125552902D01*
X116909524Y-125933855D02*
X116909524Y-125133855D01*
X116909524Y-125133855D02*
X117214286Y-125133855D01*
X117214286Y-125133855D02*
X117290476Y-125171950D01*
X117290476Y-125171950D02*
X117328571Y-125210045D01*
X117328571Y-125210045D02*
X117366667Y-125286236D01*
X117366667Y-125286236D02*
X117366667Y-125400521D01*
X117366667Y-125400521D02*
X117328571Y-125476712D01*
X117328571Y-125476712D02*
X117290476Y-125514807D01*
X117290476Y-125514807D02*
X117214286Y-125552902D01*
X117214286Y-125552902D02*
X116909524Y-125552902D01*
X118052381Y-125133855D02*
X117900000Y-125133855D01*
X117900000Y-125133855D02*
X117823809Y-125171950D01*
X117823809Y-125171950D02*
X117785714Y-125210045D01*
X117785714Y-125210045D02*
X117709524Y-125324331D01*
X117709524Y-125324331D02*
X117671428Y-125476712D01*
X117671428Y-125476712D02*
X117671428Y-125781474D01*
X117671428Y-125781474D02*
X117709524Y-125857664D01*
X117709524Y-125857664D02*
X117747619Y-125895760D01*
X117747619Y-125895760D02*
X117823809Y-125933855D01*
X117823809Y-125933855D02*
X117976190Y-125933855D01*
X117976190Y-125933855D02*
X118052381Y-125895760D01*
X118052381Y-125895760D02*
X118090476Y-125857664D01*
X118090476Y-125857664D02*
X118128571Y-125781474D01*
X118128571Y-125781474D02*
X118128571Y-125590998D01*
X118128571Y-125590998D02*
X118090476Y-125514807D01*
X118090476Y-125514807D02*
X118052381Y-125476712D01*
X118052381Y-125476712D02*
X117976190Y-125438617D01*
X117976190Y-125438617D02*
X117823809Y-125438617D01*
X117823809Y-125438617D02*
X117747619Y-125476712D01*
X117747619Y-125476712D02*
X117709524Y-125514807D01*
X117709524Y-125514807D02*
X117671428Y-125590998D01*
X153866667Y-106533855D02*
X153600000Y-106152902D01*
X153409524Y-106533855D02*
X153409524Y-105733855D01*
X153409524Y-105733855D02*
X153714286Y-105733855D01*
X153714286Y-105733855D02*
X153790476Y-105771950D01*
X153790476Y-105771950D02*
X153828571Y-105810045D01*
X153828571Y-105810045D02*
X153866667Y-105886236D01*
X153866667Y-105886236D02*
X153866667Y-106000521D01*
X153866667Y-106000521D02*
X153828571Y-106076712D01*
X153828571Y-106076712D02*
X153790476Y-106114807D01*
X153790476Y-106114807D02*
X153714286Y-106152902D01*
X153714286Y-106152902D02*
X153409524Y-106152902D01*
X154628571Y-106533855D02*
X154171428Y-106533855D01*
X154400000Y-106533855D02*
X154400000Y-105733855D01*
X154400000Y-105733855D02*
X154323809Y-105848140D01*
X154323809Y-105848140D02*
X154247619Y-105924331D01*
X154247619Y-105924331D02*
X154171428Y-105962426D01*
X157366667Y-106457664D02*
X157328571Y-106495760D01*
X157328571Y-106495760D02*
X157214286Y-106533855D01*
X157214286Y-106533855D02*
X157138095Y-106533855D01*
X157138095Y-106533855D02*
X157023809Y-106495760D01*
X157023809Y-106495760D02*
X156947619Y-106419569D01*
X156947619Y-106419569D02*
X156909524Y-106343379D01*
X156909524Y-106343379D02*
X156871428Y-106190998D01*
X156871428Y-106190998D02*
X156871428Y-106076712D01*
X156871428Y-106076712D02*
X156909524Y-105924331D01*
X156909524Y-105924331D02*
X156947619Y-105848140D01*
X156947619Y-105848140D02*
X157023809Y-105771950D01*
X157023809Y-105771950D02*
X157138095Y-105733855D01*
X157138095Y-105733855D02*
X157214286Y-105733855D01*
X157214286Y-105733855D02*
X157328571Y-105771950D01*
X157328571Y-105771950D02*
X157366667Y-105810045D01*
X157633333Y-105733855D02*
X158166667Y-105733855D01*
X158166667Y-105733855D02*
X157823809Y-106533855D01*
X141433332Y-130075760D02*
X141547618Y-130113855D01*
X141547618Y-130113855D02*
X141738094Y-130113855D01*
X141738094Y-130113855D02*
X141814285Y-130075760D01*
X141814285Y-130075760D02*
X141852380Y-130037664D01*
X141852380Y-130037664D02*
X141890475Y-129961474D01*
X141890475Y-129961474D02*
X141890475Y-129885283D01*
X141890475Y-129885283D02*
X141852380Y-129809093D01*
X141852380Y-129809093D02*
X141814285Y-129770998D01*
X141814285Y-129770998D02*
X141738094Y-129732902D01*
X141738094Y-129732902D02*
X141585713Y-129694807D01*
X141585713Y-129694807D02*
X141509523Y-129656712D01*
X141509523Y-129656712D02*
X141471428Y-129618617D01*
X141471428Y-129618617D02*
X141433332Y-129542426D01*
X141433332Y-129542426D02*
X141433332Y-129466236D01*
X141433332Y-129466236D02*
X141471428Y-129390045D01*
X141471428Y-129390045D02*
X141509523Y-129351950D01*
X141509523Y-129351950D02*
X141585713Y-129313855D01*
X141585713Y-129313855D02*
X141776190Y-129313855D01*
X141776190Y-129313855D02*
X141890475Y-129351950D01*
X142157142Y-129313855D02*
X142347618Y-130113855D01*
X142347618Y-130113855D02*
X142499999Y-129542426D01*
X142499999Y-129542426D02*
X142652380Y-130113855D01*
X142652380Y-130113855D02*
X142842857Y-129313855D01*
X143109523Y-129390045D02*
X143147619Y-129351950D01*
X143147619Y-129351950D02*
X143223809Y-129313855D01*
X143223809Y-129313855D02*
X143414285Y-129313855D01*
X143414285Y-129313855D02*
X143490476Y-129351950D01*
X143490476Y-129351950D02*
X143528571Y-129390045D01*
X143528571Y-129390045D02*
X143566666Y-129466236D01*
X143566666Y-129466236D02*
X143566666Y-129542426D01*
X143566666Y-129542426D02*
X143528571Y-129656712D01*
X143528571Y-129656712D02*
X143071428Y-130113855D01*
X143071428Y-130113855D02*
X143566666Y-130113855D01*
X122357664Y-108133332D02*
X122395760Y-108171428D01*
X122395760Y-108171428D02*
X122433855Y-108285713D01*
X122433855Y-108285713D02*
X122433855Y-108361904D01*
X122433855Y-108361904D02*
X122395760Y-108476190D01*
X122395760Y-108476190D02*
X122319569Y-108552380D01*
X122319569Y-108552380D02*
X122243379Y-108590475D01*
X122243379Y-108590475D02*
X122090998Y-108628571D01*
X122090998Y-108628571D02*
X121976712Y-108628571D01*
X121976712Y-108628571D02*
X121824331Y-108590475D01*
X121824331Y-108590475D02*
X121748140Y-108552380D01*
X121748140Y-108552380D02*
X121671950Y-108476190D01*
X121671950Y-108476190D02*
X121633855Y-108361904D01*
X121633855Y-108361904D02*
X121633855Y-108285713D01*
X121633855Y-108285713D02*
X121671950Y-108171428D01*
X121671950Y-108171428D02*
X121710045Y-108133332D01*
X121710045Y-107828571D02*
X121671950Y-107790475D01*
X121671950Y-107790475D02*
X121633855Y-107714285D01*
X121633855Y-107714285D02*
X121633855Y-107523809D01*
X121633855Y-107523809D02*
X121671950Y-107447618D01*
X121671950Y-107447618D02*
X121710045Y-107409523D01*
X121710045Y-107409523D02*
X121786236Y-107371428D01*
X121786236Y-107371428D02*
X121862426Y-107371428D01*
X121862426Y-107371428D02*
X121976712Y-107409523D01*
X121976712Y-107409523D02*
X122433855Y-107866666D01*
X122433855Y-107866666D02*
X122433855Y-107371428D01*
X114909524Y-109363855D02*
X114909524Y-108563855D01*
X114909524Y-108563855D02*
X115100000Y-108563855D01*
X115100000Y-108563855D02*
X115214286Y-108601950D01*
X115214286Y-108601950D02*
X115290476Y-108678140D01*
X115290476Y-108678140D02*
X115328571Y-108754331D01*
X115328571Y-108754331D02*
X115366667Y-108906712D01*
X115366667Y-108906712D02*
X115366667Y-109020998D01*
X115366667Y-109020998D02*
X115328571Y-109173379D01*
X115328571Y-109173379D02*
X115290476Y-109249569D01*
X115290476Y-109249569D02*
X115214286Y-109325760D01*
X115214286Y-109325760D02*
X115100000Y-109363855D01*
X115100000Y-109363855D02*
X114909524Y-109363855D01*
X116128571Y-109363855D02*
X115671428Y-109363855D01*
X115900000Y-109363855D02*
X115900000Y-108563855D01*
X115900000Y-108563855D02*
X115823809Y-108678140D01*
X115823809Y-108678140D02*
X115747619Y-108754331D01*
X115747619Y-108754331D02*
X115671428Y-108792426D01*
X135607664Y-108133332D02*
X135645760Y-108171428D01*
X135645760Y-108171428D02*
X135683855Y-108285713D01*
X135683855Y-108285713D02*
X135683855Y-108361904D01*
X135683855Y-108361904D02*
X135645760Y-108476190D01*
X135645760Y-108476190D02*
X135569569Y-108552380D01*
X135569569Y-108552380D02*
X135493379Y-108590475D01*
X135493379Y-108590475D02*
X135340998Y-108628571D01*
X135340998Y-108628571D02*
X135226712Y-108628571D01*
X135226712Y-108628571D02*
X135074331Y-108590475D01*
X135074331Y-108590475D02*
X134998140Y-108552380D01*
X134998140Y-108552380D02*
X134921950Y-108476190D01*
X134921950Y-108476190D02*
X134883855Y-108361904D01*
X134883855Y-108361904D02*
X134883855Y-108285713D01*
X134883855Y-108285713D02*
X134921950Y-108171428D01*
X134921950Y-108171428D02*
X134960045Y-108133332D01*
X135150521Y-107447618D02*
X135683855Y-107447618D01*
X134845760Y-107638094D02*
X135417188Y-107828571D01*
X135417188Y-107828571D02*
X135417188Y-107333332D01*
X148909524Y-133533855D02*
X148909524Y-132733855D01*
X148909524Y-132733855D02*
X149100000Y-132733855D01*
X149100000Y-132733855D02*
X149214286Y-132771950D01*
X149214286Y-132771950D02*
X149290476Y-132848140D01*
X149290476Y-132848140D02*
X149328571Y-132924331D01*
X149328571Y-132924331D02*
X149366667Y-133076712D01*
X149366667Y-133076712D02*
X149366667Y-133190998D01*
X149366667Y-133190998D02*
X149328571Y-133343379D01*
X149328571Y-133343379D02*
X149290476Y-133419569D01*
X149290476Y-133419569D02*
X149214286Y-133495760D01*
X149214286Y-133495760D02*
X149100000Y-133533855D01*
X149100000Y-133533855D02*
X148909524Y-133533855D01*
X150052381Y-133000521D02*
X150052381Y-133533855D01*
X149861905Y-132695760D02*
X149671428Y-133267188D01*
X149671428Y-133267188D02*
X150166667Y-133267188D01*
X121433855Y-131133332D02*
X121052902Y-131399999D01*
X121433855Y-131590475D02*
X120633855Y-131590475D01*
X120633855Y-131590475D02*
X120633855Y-131285713D01*
X120633855Y-131285713D02*
X120671950Y-131209523D01*
X120671950Y-131209523D02*
X120710045Y-131171428D01*
X120710045Y-131171428D02*
X120786236Y-131133332D01*
X120786236Y-131133332D02*
X120900521Y-131133332D01*
X120900521Y-131133332D02*
X120976712Y-131171428D01*
X120976712Y-131171428D02*
X121014807Y-131209523D01*
X121014807Y-131209523D02*
X121052902Y-131285713D01*
X121052902Y-131285713D02*
X121052902Y-131590475D01*
X120976712Y-130676190D02*
X120938617Y-130752380D01*
X120938617Y-130752380D02*
X120900521Y-130790475D01*
X120900521Y-130790475D02*
X120824331Y-130828571D01*
X120824331Y-130828571D02*
X120786236Y-130828571D01*
X120786236Y-130828571D02*
X120710045Y-130790475D01*
X120710045Y-130790475D02*
X120671950Y-130752380D01*
X120671950Y-130752380D02*
X120633855Y-130676190D01*
X120633855Y-130676190D02*
X120633855Y-130523809D01*
X120633855Y-130523809D02*
X120671950Y-130447618D01*
X120671950Y-130447618D02*
X120710045Y-130409523D01*
X120710045Y-130409523D02*
X120786236Y-130371428D01*
X120786236Y-130371428D02*
X120824331Y-130371428D01*
X120824331Y-130371428D02*
X120900521Y-130409523D01*
X120900521Y-130409523D02*
X120938617Y-130447618D01*
X120938617Y-130447618D02*
X120976712Y-130523809D01*
X120976712Y-130523809D02*
X120976712Y-130676190D01*
X120976712Y-130676190D02*
X121014807Y-130752380D01*
X121014807Y-130752380D02*
X121052902Y-130790475D01*
X121052902Y-130790475D02*
X121129093Y-130828571D01*
X121129093Y-130828571D02*
X121281474Y-130828571D01*
X121281474Y-130828571D02*
X121357664Y-130790475D01*
X121357664Y-130790475D02*
X121395760Y-130752380D01*
X121395760Y-130752380D02*
X121433855Y-130676190D01*
X121433855Y-130676190D02*
X121433855Y-130523809D01*
X121433855Y-130523809D02*
X121395760Y-130447618D01*
X121395760Y-130447618D02*
X121357664Y-130409523D01*
X121357664Y-130409523D02*
X121281474Y-130371428D01*
X121281474Y-130371428D02*
X121129093Y-130371428D01*
X121129093Y-130371428D02*
X121052902Y-130409523D01*
X121052902Y-130409523D02*
X121014807Y-130447618D01*
X121014807Y-130447618D02*
X120976712Y-130523809D01*
X112923809Y-122040045D02*
X112847619Y-122001950D01*
X112847619Y-122001950D02*
X112771428Y-121925760D01*
X112771428Y-121925760D02*
X112657142Y-121811474D01*
X112657142Y-121811474D02*
X112580952Y-121773379D01*
X112580952Y-121773379D02*
X112504761Y-121773379D01*
X112542857Y-121963855D02*
X112466666Y-121925760D01*
X112466666Y-121925760D02*
X112390476Y-121849569D01*
X112390476Y-121849569D02*
X112352380Y-121697188D01*
X112352380Y-121697188D02*
X112352380Y-121430521D01*
X112352380Y-121430521D02*
X112390476Y-121278140D01*
X112390476Y-121278140D02*
X112466666Y-121201950D01*
X112466666Y-121201950D02*
X112542857Y-121163855D01*
X112542857Y-121163855D02*
X112695238Y-121163855D01*
X112695238Y-121163855D02*
X112771428Y-121201950D01*
X112771428Y-121201950D02*
X112847619Y-121278140D01*
X112847619Y-121278140D02*
X112885714Y-121430521D01*
X112885714Y-121430521D02*
X112885714Y-121697188D01*
X112885714Y-121697188D02*
X112847619Y-121849569D01*
X112847619Y-121849569D02*
X112771428Y-121925760D01*
X112771428Y-121925760D02*
X112695238Y-121963855D01*
X112695238Y-121963855D02*
X112542857Y-121963855D01*
X113647618Y-121963855D02*
X113190475Y-121963855D01*
X113419047Y-121963855D02*
X113419047Y-121163855D01*
X113419047Y-121163855D02*
X113342856Y-121278140D01*
X113342856Y-121278140D02*
X113266666Y-121354331D01*
X113266666Y-121354331D02*
X113190475Y-121392426D01*
X129733333Y-128118854D02*
X129733333Y-128690282D01*
X129733333Y-128690282D02*
X129695238Y-128804568D01*
X129695238Y-128804568D02*
X129619047Y-128880759D01*
X129619047Y-128880759D02*
X129504762Y-128918854D01*
X129504762Y-128918854D02*
X129428571Y-128918854D01*
X130038095Y-128118854D02*
X130533333Y-128118854D01*
X130533333Y-128118854D02*
X130266667Y-128423616D01*
X130266667Y-128423616D02*
X130380952Y-128423616D01*
X130380952Y-128423616D02*
X130457143Y-128461711D01*
X130457143Y-128461711D02*
X130495238Y-128499806D01*
X130495238Y-128499806D02*
X130533333Y-128575997D01*
X130533333Y-128575997D02*
X130533333Y-128766473D01*
X130533333Y-128766473D02*
X130495238Y-128842663D01*
X130495238Y-128842663D02*
X130457143Y-128880759D01*
X130457143Y-128880759D02*
X130380952Y-128918854D01*
X130380952Y-128918854D02*
X130152381Y-128918854D01*
X130152381Y-128918854D02*
X130076190Y-128880759D01*
X130076190Y-128880759D02*
X130038095Y-128842663D01*
X153366667Y-130933855D02*
X153100000Y-130552902D01*
X152909524Y-130933855D02*
X152909524Y-130133855D01*
X152909524Y-130133855D02*
X153214286Y-130133855D01*
X153214286Y-130133855D02*
X153290476Y-130171950D01*
X153290476Y-130171950D02*
X153328571Y-130210045D01*
X153328571Y-130210045D02*
X153366667Y-130286236D01*
X153366667Y-130286236D02*
X153366667Y-130400521D01*
X153366667Y-130400521D02*
X153328571Y-130476712D01*
X153328571Y-130476712D02*
X153290476Y-130514807D01*
X153290476Y-130514807D02*
X153214286Y-130552902D01*
X153214286Y-130552902D02*
X152909524Y-130552902D01*
X154052381Y-130400521D02*
X154052381Y-130933855D01*
X153861905Y-130095760D02*
X153671428Y-130667188D01*
X153671428Y-130667188D02*
X154166667Y-130667188D01*
X135933855Y-131133332D02*
X135552902Y-131399999D01*
X135933855Y-131590475D02*
X135133855Y-131590475D01*
X135133855Y-131590475D02*
X135133855Y-131285713D01*
X135133855Y-131285713D02*
X135171950Y-131209523D01*
X135171950Y-131209523D02*
X135210045Y-131171428D01*
X135210045Y-131171428D02*
X135286236Y-131133332D01*
X135286236Y-131133332D02*
X135400521Y-131133332D01*
X135400521Y-131133332D02*
X135476712Y-131171428D01*
X135476712Y-131171428D02*
X135514807Y-131209523D01*
X135514807Y-131209523D02*
X135552902Y-131285713D01*
X135552902Y-131285713D02*
X135552902Y-131590475D01*
X135933855Y-130752380D02*
X135933855Y-130599999D01*
X135933855Y-130599999D02*
X135895760Y-130523809D01*
X135895760Y-130523809D02*
X135857664Y-130485713D01*
X135857664Y-130485713D02*
X135743379Y-130409523D01*
X135743379Y-130409523D02*
X135590998Y-130371428D01*
X135590998Y-130371428D02*
X135286236Y-130371428D01*
X135286236Y-130371428D02*
X135210045Y-130409523D01*
X135210045Y-130409523D02*
X135171950Y-130447618D01*
X135171950Y-130447618D02*
X135133855Y-130523809D01*
X135133855Y-130523809D02*
X135133855Y-130676190D01*
X135133855Y-130676190D02*
X135171950Y-130752380D01*
X135171950Y-130752380D02*
X135210045Y-130790475D01*
X135210045Y-130790475D02*
X135286236Y-130828571D01*
X135286236Y-130828571D02*
X135476712Y-130828571D01*
X135476712Y-130828571D02*
X135552902Y-130790475D01*
X135552902Y-130790475D02*
X135590998Y-130752380D01*
X135590998Y-130752380D02*
X135629093Y-130676190D01*
X135629093Y-130676190D02*
X135629093Y-130523809D01*
X135629093Y-130523809D02*
X135590998Y-130447618D01*
X135590998Y-130447618D02*
X135552902Y-130409523D01*
X135552902Y-130409523D02*
X135476712Y-130371428D01*
X132366666Y-105363855D02*
X131985714Y-105363855D01*
X131985714Y-105363855D02*
X131985714Y-104563855D01*
X133052380Y-105363855D02*
X132595237Y-105363855D01*
X132823809Y-105363855D02*
X132823809Y-104563855D01*
X132823809Y-104563855D02*
X132747618Y-104678140D01*
X132747618Y-104678140D02*
X132671428Y-104754331D01*
X132671428Y-104754331D02*
X132595237Y-104792426D01*
X110823855Y-107306666D02*
X111395283Y-107306666D01*
X111395283Y-107306666D02*
X111509569Y-107344761D01*
X111509569Y-107344761D02*
X111585760Y-107420952D01*
X111585760Y-107420952D02*
X111623855Y-107535237D01*
X111623855Y-107535237D02*
X111623855Y-107611428D01*
X111623855Y-106506666D02*
X111623855Y-106963809D01*
X111623855Y-106735237D02*
X110823855Y-106735237D01*
X110823855Y-106735237D02*
X110938140Y-106811428D01*
X110938140Y-106811428D02*
X111014331Y-106887618D01*
X111014331Y-106887618D02*
X111052426Y-106963809D01*
X147366667Y-108933855D02*
X147100000Y-108552902D01*
X146909524Y-108933855D02*
X146909524Y-108133855D01*
X146909524Y-108133855D02*
X147214286Y-108133855D01*
X147214286Y-108133855D02*
X147290476Y-108171950D01*
X147290476Y-108171950D02*
X147328571Y-108210045D01*
X147328571Y-108210045D02*
X147366667Y-108286236D01*
X147366667Y-108286236D02*
X147366667Y-108400521D01*
X147366667Y-108400521D02*
X147328571Y-108476712D01*
X147328571Y-108476712D02*
X147290476Y-108514807D01*
X147290476Y-108514807D02*
X147214286Y-108552902D01*
X147214286Y-108552902D02*
X146909524Y-108552902D01*
X147671428Y-108210045D02*
X147709524Y-108171950D01*
X147709524Y-108171950D02*
X147785714Y-108133855D01*
X147785714Y-108133855D02*
X147976190Y-108133855D01*
X147976190Y-108133855D02*
X148052381Y-108171950D01*
X148052381Y-108171950D02*
X148090476Y-108210045D01*
X148090476Y-108210045D02*
X148128571Y-108286236D01*
X148128571Y-108286236D02*
X148128571Y-108362426D01*
X148128571Y-108362426D02*
X148090476Y-108476712D01*
X148090476Y-108476712D02*
X147633333Y-108933855D01*
X147633333Y-108933855D02*
X148128571Y-108933855D01*
X138107664Y-108133332D02*
X138145760Y-108171428D01*
X138145760Y-108171428D02*
X138183855Y-108285713D01*
X138183855Y-108285713D02*
X138183855Y-108361904D01*
X138183855Y-108361904D02*
X138145760Y-108476190D01*
X138145760Y-108476190D02*
X138069569Y-108552380D01*
X138069569Y-108552380D02*
X137993379Y-108590475D01*
X137993379Y-108590475D02*
X137840998Y-108628571D01*
X137840998Y-108628571D02*
X137726712Y-108628571D01*
X137726712Y-108628571D02*
X137574331Y-108590475D01*
X137574331Y-108590475D02*
X137498140Y-108552380D01*
X137498140Y-108552380D02*
X137421950Y-108476190D01*
X137421950Y-108476190D02*
X137383855Y-108361904D01*
X137383855Y-108361904D02*
X137383855Y-108285713D01*
X137383855Y-108285713D02*
X137421950Y-108171428D01*
X137421950Y-108171428D02*
X137460045Y-108133332D01*
X137383855Y-107409523D02*
X137383855Y-107790475D01*
X137383855Y-107790475D02*
X137764807Y-107828571D01*
X137764807Y-107828571D02*
X137726712Y-107790475D01*
X137726712Y-107790475D02*
X137688617Y-107714285D01*
X137688617Y-107714285D02*
X137688617Y-107523809D01*
X137688617Y-107523809D02*
X137726712Y-107447618D01*
X137726712Y-107447618D02*
X137764807Y-107409523D01*
X137764807Y-107409523D02*
X137840998Y-107371428D01*
X137840998Y-107371428D02*
X138031474Y-107371428D01*
X138031474Y-107371428D02*
X138107664Y-107409523D01*
X138107664Y-107409523D02*
X138145760Y-107447618D01*
X138145760Y-107447618D02*
X138183855Y-107523809D01*
X138183855Y-107523809D02*
X138183855Y-107714285D01*
X138183855Y-107714285D02*
X138145760Y-107790475D01*
X138145760Y-107790475D02*
X138107664Y-107828571D01*
X115233333Y-100794807D02*
X114966667Y-100794807D01*
X114966667Y-101213855D02*
X114966667Y-100413855D01*
X114966667Y-100413855D02*
X115347619Y-100413855D01*
X116071428Y-101213855D02*
X115614285Y-101213855D01*
X115842857Y-101213855D02*
X115842857Y-100413855D01*
X115842857Y-100413855D02*
X115766666Y-100528140D01*
X115766666Y-100528140D02*
X115690476Y-100604331D01*
X115690476Y-100604331D02*
X115614285Y-100642426D01*
%TO.C,D2*%
X121490000Y-122350000D02*
X121490000Y-125650000D01*
X121490000Y-122350000D02*
X127000000Y-122350000D01*
X121490000Y-125650000D02*
X127000000Y-125650000D01*
%TO.C,C8*%
X150359420Y-107090000D02*
X150640580Y-107090000D01*
X150359420Y-108110000D02*
X150640580Y-108110000D01*
%TO.C,D3*%
X111990000Y-105850000D02*
X111990000Y-109150000D01*
X111990000Y-105850000D02*
X117500000Y-105850000D01*
X111990000Y-109150000D02*
X117500000Y-109150000D01*
%TO.C,U2*%
X170010000Y-110890000D02*
X164200000Y-110890000D01*
X170010000Y-110890000D02*
X170010000Y-129110000D01*
X150090000Y-110890000D02*
X149790000Y-110890000D01*
X149790000Y-110890000D02*
X149790000Y-129110000D01*
X170010000Y-129110000D02*
X163510000Y-129110000D01*
X150090000Y-129110000D02*
X149790000Y-129110000D01*
X164000000Y-110900000D02*
X163500000Y-110900000D01*
X163500000Y-110400000D01*
X164000000Y-110900000D01*
G36*
X164000000Y-110900000D02*
G01*
X163500000Y-110900000D01*
X163500000Y-110400000D01*
X164000000Y-110900000D01*
G37*
%TO.C,J4*%
X142670000Y-103830000D02*
X142670000Y-102500000D01*
X144000000Y-103830000D02*
X142670000Y-103830000D01*
X145270000Y-103830000D02*
X152950000Y-103830000D01*
X145270000Y-103830000D02*
X145270000Y-101170000D01*
X152950000Y-103830000D02*
X152950000Y-101170000D01*
X145270000Y-101170000D02*
X152950000Y-101170000D01*
%TO.C,R3*%
X147262742Y-111977500D02*
X147737258Y-111977500D01*
X147262742Y-113022500D02*
X147737258Y-113022500D01*
%TO.C,J2*%
X100840000Y-119160000D02*
X100100000Y-119160000D01*
X100100000Y-119160000D02*
X100100000Y-119660000D01*
X110261000Y-119400000D02*
X100340000Y-119400000D01*
X110261000Y-119400000D02*
X110261000Y-129680000D01*
X107301000Y-119400000D02*
X107301000Y-129680000D01*
X102400000Y-119400000D02*
X102400000Y-129680000D01*
X100900000Y-119400000D02*
X100900000Y-129680000D01*
X100340000Y-119400000D02*
X100340000Y-129680000D01*
X103977000Y-125853000D02*
X103931000Y-125806000D01*
X103761000Y-126046000D02*
X103726000Y-126011000D01*
X106275000Y-128150000D02*
X106239000Y-128115000D01*
X106069000Y-128355000D02*
X106023000Y-128308000D01*
X110261000Y-129680000D02*
X100340000Y-129680000D01*
X105683999Y-120465001D02*
G75*
G03*
X104316958Y-120464574I-684000J-1534992D01*
G01*
X106534999Y-122683999D02*
G75*
G03*
X106535426Y-121316958I-1534992J684000D01*
G01*
X103465001Y-121316000D02*
G75*
G03*
X103319748Y-122028805I1535000J-683999D01*
G01*
X103320001Y-122000000D02*
G75*
G03*
X103465245Y-122683318I1679999J0D01*
G01*
X104316000Y-123535000D02*
G75*
G03*
X105683042Y-123535426I684000J1535000D01*
G01*
X106680000Y-127080000D02*
G75*
G03*
X103320000Y-127080000I-1680000J0D01*
G01*
X103320000Y-127080000D02*
G75*
G03*
X106680000Y-127080000I1680000J0D01*
G01*
%TO.C,C1*%
X120090000Y-108711252D02*
X120090000Y-107288748D01*
X121910000Y-108711252D02*
X121910000Y-107288748D01*
%TO.C,R7*%
X149262742Y-131477500D02*
X149737258Y-131477500D01*
X149262742Y-132522500D02*
X149737258Y-132522500D01*
%TO.C,U1*%
X127500000Y-106440000D02*
X126700000Y-106440000D01*
X127500000Y-106440000D02*
X128300000Y-106440000D01*
X127500000Y-109560000D02*
X126700000Y-109560000D01*
X127500000Y-109560000D02*
X128300000Y-109560000D01*
X126200000Y-106490000D02*
X125960000Y-106160000D01*
X126440000Y-106160000D01*
X126200000Y-106490000D01*
G36*
X126200000Y-106490000D02*
G01*
X125960000Y-106160000D01*
X126440000Y-106160000D01*
X126200000Y-106490000D01*
G37*
%TO.C,C6*%
X160738748Y-106865000D02*
X161261252Y-106865000D01*
X160738748Y-108335000D02*
X161261252Y-108335000D01*
%TO.C,C3*%
X127359420Y-103990000D02*
X127640580Y-103990000D01*
X127359420Y-105010000D02*
X127640580Y-105010000D01*
%TO.C,SW1*%
X112250000Y-132500000D02*
X112250000Y-134500000D01*
X113250000Y-131200000D02*
X113700000Y-130750000D01*
X113250000Y-135800000D02*
X113700000Y-136250000D01*
X113700000Y-130750000D02*
X116300000Y-130750000D01*
X113700000Y-136250000D02*
X116300000Y-136250000D01*
X116750000Y-131200000D02*
X116300000Y-130750000D01*
X116750000Y-135800000D02*
X116300000Y-136250000D01*
X117750000Y-132500000D02*
X117750000Y-134500000D01*
%TO.C,R5*%
X119762742Y-120977500D02*
X120237258Y-120977500D01*
X119762742Y-122022500D02*
X120237258Y-122022500D01*
%TO.C,R6*%
X117262742Y-126477500D02*
X117737258Y-126477500D01*
X117262742Y-127522500D02*
X117737258Y-127522500D01*
%TO.C,R1*%
X153762742Y-107077500D02*
X154237258Y-107077500D01*
X153762742Y-108122500D02*
X154237258Y-108122500D01*
%TO.C,C7*%
X157359420Y-107090000D02*
X157640580Y-107090000D01*
X157359420Y-108110000D02*
X157640580Y-108110000D01*
%TO.C,SW2*%
X139750000Y-132500000D02*
X139750000Y-134500000D01*
X140750000Y-131200000D02*
X141200000Y-130750000D01*
X140750000Y-135800000D02*
X141200000Y-136250000D01*
X141200000Y-130750000D02*
X143800000Y-130750000D01*
X141200000Y-136250000D02*
X143800000Y-136250000D01*
X144250000Y-131200000D02*
X143800000Y-130750000D01*
X144250000Y-135800000D02*
X143800000Y-136250000D01*
X145250000Y-132500000D02*
X145250000Y-134500000D01*
%TO.C,C2*%
X122990000Y-108140580D02*
X122990000Y-107859420D01*
X124010000Y-108140580D02*
X124010000Y-107859420D01*
%TO.C,D1*%
X111990000Y-109850000D02*
X111990000Y-113150000D01*
X111990000Y-109850000D02*
X117500000Y-109850000D01*
X111990000Y-113150000D02*
X117500000Y-113150000D01*
%TO.C,C4*%
X136265000Y-108261252D02*
X136265000Y-107738748D01*
X137735000Y-108261252D02*
X137735000Y-107738748D01*
%TO.C,D4*%
X148015000Y-133865000D02*
X148015000Y-135335000D01*
X148015000Y-135335000D02*
X150300000Y-135335000D01*
X150300000Y-133865000D02*
X148015000Y-133865000D01*
%TO.C,R8*%
X121977500Y-131237258D02*
X121977500Y-130762742D01*
X123022500Y-131237258D02*
X123022500Y-130762742D01*
%TO.C,Q1*%
X113000000Y-122440000D02*
X112350000Y-122440000D01*
X113000000Y-122440000D02*
X113650000Y-122440000D01*
X113000000Y-125560000D02*
X112350000Y-125560000D01*
X113000000Y-125560000D02*
X113650000Y-125560000D01*
X111837500Y-122490000D02*
X111597500Y-122160000D01*
X112077500Y-122160000D01*
X111837500Y-122490000D01*
G36*
X111837500Y-122490000D02*
G01*
X111597500Y-122160000D01*
X112077500Y-122160000D01*
X111837500Y-122490000D01*
G37*
%TO.C,J3*%
X125300000Y-132299999D02*
X125300000Y-134299999D01*
X125300000Y-136199999D02*
X125300000Y-138099999D01*
X125300000Y-138099999D02*
X134700000Y-138099999D01*
X134700000Y-132299999D02*
X134700000Y-134299999D01*
X134700000Y-136199999D02*
X134700000Y-138099999D01*
%TO.C,R4*%
X153262742Y-131477500D02*
X153737258Y-131477500D01*
X153262742Y-132522500D02*
X153737258Y-132522500D01*
%TO.C,R9*%
X136477500Y-131237258D02*
X136477500Y-130762742D01*
X137522500Y-131237258D02*
X137522500Y-130762742D01*
%TO.C,L1*%
X130240000Y-105740000D02*
X130240000Y-105890000D01*
X130240000Y-105740000D02*
X134760000Y-105740000D01*
X130240000Y-110260000D02*
X130240000Y-110110000D01*
X130240000Y-110260000D02*
X134760000Y-110260000D01*
X134760000Y-105740000D02*
X134760000Y-105890000D01*
X134760000Y-110260000D02*
X134760000Y-110110000D01*
%TO.C,J1*%
X100840000Y-101660000D02*
X100100000Y-101660000D01*
X100100000Y-101660000D02*
X100100000Y-102160000D01*
X110261000Y-101900000D02*
X100340000Y-101900000D01*
X110261000Y-101900000D02*
X110261000Y-112180000D01*
X107301000Y-101900000D02*
X107301000Y-112180000D01*
X102400000Y-101900000D02*
X102400000Y-112180000D01*
X100900000Y-101900000D02*
X100900000Y-112180000D01*
X100340000Y-101900000D02*
X100340000Y-112180000D01*
X103977000Y-108353000D02*
X103931000Y-108306000D01*
X103761000Y-108546000D02*
X103726000Y-108511000D01*
X106275000Y-110650000D02*
X106239000Y-110615000D01*
X106069000Y-110855000D02*
X106023000Y-110808000D01*
X110261000Y-112180000D02*
X100340000Y-112180000D01*
X105683999Y-102965001D02*
G75*
G03*
X104316958Y-102964574I-684000J-1534992D01*
G01*
X106534999Y-105183999D02*
G75*
G03*
X106535426Y-103816958I-1534992J684000D01*
G01*
X103465001Y-103816000D02*
G75*
G03*
X103319748Y-104528805I1535000J-683999D01*
G01*
X103320001Y-104500000D02*
G75*
G03*
X103465245Y-105183318I1679999J0D01*
G01*
X104316000Y-106035000D02*
G75*
G03*
X105683042Y-106035426I684000J1535000D01*
G01*
X106680000Y-109580000D02*
G75*
G03*
X103320000Y-109580000I-1680000J0D01*
G01*
X103320000Y-109580000D02*
G75*
G03*
X106680000Y-109580000I1680000J0D01*
G01*
%TO.C,R2*%
X147262742Y-109477500D02*
X147737258Y-109477500D01*
X147262742Y-110522500D02*
X147737258Y-110522500D01*
%TO.C,C5*%
X138765000Y-108261252D02*
X138765000Y-107738748D01*
X140235000Y-108261252D02*
X140235000Y-107738748D01*
%TO.C,F1*%
X114113748Y-101790000D02*
X116886252Y-101790000D01*
X114113748Y-105210000D02*
X116886252Y-105210000D01*
%TD*%
M02*
